<?xml version="1.0" encoding="UTF-8" standalone="no"?>
<!-- Created with Inkscape (http://www.inkscape.org/) -->

<svg
   xmlns:dc="http://purl.org/dc/elements/1.1/"
   xmlns:cc="http://creativecommons.org/ns#"
   xmlns:rdf="http://www.w3.org/1999/02/22-rdf-syntax-ns#"
   xmlns:svg="http://www.w3.org/2000/svg"
   xmlns="http://www.w3.org/2000/svg"
   xmlns:xlink="http://www.w3.org/1999/xlink"
   xmlns:sodipodi="http://sodipodi.sourceforge.net/DTD/sodipodi-0.dtd"
   xmlns:inkscape="http://www.inkscape.org/namespaces/inkscape"
   width="744.09448819"
   height="1052.3622047"
   id="svg2"
   inkscape:label="Pozadí"
   version="1.1"
   inkscape:version="0.47 r22583"
   sodipodi:docname="Nový dokument 7">
  <defs
     id="defs9632">
    <inkscape:perspective
       sodipodi:type="inkscape:persp3d"
       inkscape:vp_x="0 : 526.18109 : 1"
       inkscape:vp_y="0 : 1000 : 0"
       inkscape:vp_z="744.09448 : 526.18109 : 1"
       inkscape:persp3d-origin="372.04724 : 350.78739 : 1"
       id="perspective9638" />
    <inkscape:perspective
       id="perspective9590"
       inkscape:persp3d-origin="0.5 : 0.33333333 : 1"
       inkscape:vp_z="1 : 0.5 : 1"
       inkscape:vp_y="0 : 1000 : 0"
       inkscape:vp_x="0 : 0.5 : 1"
       sodipodi:type="inkscape:persp3d" />
    <linearGradient
       inkscape:collect="always"
       xlink:href="#linearGradient35151"
       id="linearGradient9365"
       x1="691.29144"
       y1="743.69159"
       x2="738.13733"
       y2="743.69159"
       gradientUnits="userSpaceOnUse" />
    <linearGradient
       id="linearGradient35151">
      <stop
         style="stop-color:#ad612a;stop-opacity:1;"
         offset="0"
         id="stop35153" />
      <stop
         style="stop-color:#ffa569;stop-opacity:1;"
         offset="1"
         id="stop35155" />
    </linearGradient>
    <linearGradient
       inkscape:collect="always"
       xlink:href="#linearGradient9397"
       id="linearGradient9395"
       x1="691.17743"
       y1="760.96765"
       x2="738.3653"
       y2="760.96765"
       gradientUnits="userSpaceOnUse" />
    <linearGradient
       id="linearGradient9397">
      <stop
         id="stop9399"
         offset="0"
         style="stop-color:#882f05;stop-opacity:1;" />
      <stop
         id="stop9401"
         offset="1"
         style="stop-color:#ff8269;stop-opacity:1;" />
    </linearGradient>
    <linearGradient
       inkscape:collect="always"
       xlink:href="#linearGradient35151"
       id="linearGradient9377"
       x1="708.91925"
       y1="730.2262"
       x2="713.76044"
       y2="730.2262"
       gradientUnits="userSpaceOnUse" />
    <linearGradient
       id="linearGradient9603">
      <stop
         style="stop-color:#ad612a;stop-opacity:1;"
         offset="0"
         id="stop9605" />
      <stop
         style="stop-color:#ffa569;stop-opacity:1;"
         offset="1"
         id="stop9607" />
    </linearGradient>
    <linearGradient
       inkscape:collect="always"
       xlink:href="#linearGradient35151"
       id="linearGradient9387"
       x1="714.54285"
       y1="730.59296"
       x2="719.53076"
       y2="730.59296"
       gradientUnits="userSpaceOnUse" />
    <linearGradient
       id="linearGradient9610">
      <stop
         style="stop-color:#ad612a;stop-opacity:1;"
         offset="0"
         id="stop9612" />
      <stop
         style="stop-color:#ffa569;stop-opacity:1;"
         offset="1"
         id="stop9614" />
    </linearGradient>
  </defs>
  <sodipodi:namedview
     id="base"
     pagecolor="#ffffff"
     bordercolor="#666666"
     borderopacity="1.0"
     inkscape:pageopacity="0.0"
     inkscape:pageshadow="2"
     inkscape:zoom="0.98994949"
     inkscape:cx="375"
     inkscape:cy="681.62441"
     inkscape:document-units="px"
     inkscape:current-layer="layer1"
     showgrid="false"
     inkscape:window-width="1093"
     inkscape:window-height="905"
     inkscape:window-x="1280"
     inkscape:window-y="22"
     inkscape:window-maximized="0" />
  <metadata
     id="metadata9635">
    <rdf:RDF>
      <cc:Work
         rdf:about="">
        <dc:format>image/svg+xml</dc:format>
        <dc:type
           rdf:resource="http://purl.org/dc/dcmitype/StillImage" />
        <dc:title></dc:title>
      </cc:Work>
    </rdf:RDF>
  </metadata>
  <g
     inkscape:label="Vrstva 1"
     inkscape:groupmode="layer"
     id="layer1">
    <g
       transform="matrix(14.356524,0,0,14.356524,-9891.2374,-10057.354)"
       style="display:inline"
       id="g9403">
      <rect
         inkscape:transform-center-x="-0.34740029"
         inkscape:transform-center-y="1.6355779"
         transform="matrix(0.98545932,-0.16991152,0.18489673,0.98275796,0,0)"
         y="819.11212"
         x="567.40881"
         height="18.728174"
         width="0.7424258"
         id="rect12644-7-1-2-9-4-7-0-7-4"
         style="fill:#552200;fill-opacity:1;fill-rule:nonzero;stroke:#000000;stroke-width:0.21422362;stroke-miterlimit:4;stroke-opacity:1;stroke-dasharray:none;display:inline" />
      <rect
         inkscape:transform-center-x="0.25184647"
         inkscape:transform-center-y="1.6529737"
         transform="matrix(0.98204736,0.18863452,-0.17365972,0.98480572,0,0)"
         y="563.0473"
         x="828.91455"
         height="18.728174"
         width="0.7424258"
         id="rect12644-7-1-2-9-4-7-0-7"
         style="fill:#552200;fill-opacity:1;fill-rule:nonzero;stroke:#000000;stroke-width:0.21422362;stroke-miterlimit:4;stroke-opacity:1;stroke-dasharray:none;display:inline" />
      <rect
         inkscape:transform-center-x="-0.87822233"
         inkscape:transform-center-y="1.4228844"
         transform="matrix(0.87057185,-0.49204131,0.50523982,0.86297898,0,0)"
         y="970.33899"
         x="249.6651"
         height="18.728176"
         width="0.74242574"
         id="rect12644-7-1-2-9-4-7-0"
         style="fill:#552200;fill-opacity:1;fill-rule:nonzero;stroke:#000000;stroke-width:0.21422362;stroke-miterlimit:4;stroke-opacity:1;stroke-dasharray:none;display:inline" />
      <rect
         inkscape:transform-center-x="-3.0115832"
         inkscape:transform-center-y="7.6226113"
         transform="matrix(0.93206087,-0.36230171,0.36690392,0.93025884,0,0)"
         y="933.76697"
         x="403.65976"
         height="19.776829"
         width="0.73252243"
         id="rect12644-7-1"
         style="fill:#552200;fill-opacity:1;fill-rule:nonzero;stroke:#000000;stroke-width:0.21866629;stroke-miterlimit:4;stroke-opacity:1;stroke-dasharray:none;display:inline" />
      <rect
         inkscape:transform-center-x="-0.021712646"
         inkscape:transform-center-y="1.6719163"
         transform="matrix(0.99967348,0.02555238,-0.01032812,0.99994666,0,0)"
         y="690.05084"
         x="720.80609"
         height="18.728174"
         width="0.7424258"
         id="rect12644-7-1-2-9-4"
         style="fill:#552200;fill-opacity:1;fill-rule:nonzero;stroke:#000000;stroke-width:0.21422362;stroke-miterlimit:4;stroke-opacity:1;stroke-dasharray:none;display:inline" />
      <rect
         inkscape:transform-center-x="0.36902622"
         inkscape:transform-center-y="1.1705297"
         transform="matrix(0.94214462,0.33520668,-0.33169779,0.9433857,0,0)"
         y="431.33664"
         x="914.54126"
         height="13.746507"
         width="0.7644977"
         id="rect12644-7-1-2-9"
         style="fill:#552200;fill-opacity:1;fill-rule:nonzero;stroke:#000000;stroke-width:0.18624188;stroke-miterlimit:4;stroke-opacity:1;stroke-dasharray:none;display:inline" />
      <rect
         inkscape:transform-center-x="0.78168749"
         inkscape:transform-center-y="1.4781075"
         transform="matrix(0.86532426,0.50121246,-0.48797868,0.87285555,0,0)"
         y="251.86374"
         x="977.34186"
         height="18.728176"
         width="0.7424258"
         id="rect12644-7-1-2-9-4-7"
         style="fill:#552200;fill-opacity:1;fill-rule:nonzero;stroke:#000000;stroke-width:0.21422362;stroke-miterlimit:4;stroke-opacity:1;stroke-dasharray:none;display:inline" />
      <rect
         inkscape:transform-center-x="-1.8443969"
         inkscape:transform-center-y="5.3900634"
         transform="matrix(0.94761708,-0.31940862,0.32293334,0.94642171,0,0)"
         y="901.10938"
         x="440.86575"
         height="13.746507"
         width="0.7644977"
         id="rect12644-7-1-2"
         style="fill:#552200;fill-opacity:1;fill-rule:nonzero;stroke:#000000;stroke-width:0.18624187;stroke-miterlimit:4;stroke-opacity:1;stroke-dasharray:none;display:inline" />
      <rect
         transform="matrix(-0.94478248,-0.32769812,-0.33781047,0.94121415,0,0)"
         y="449.53229"
         x="-911.94812"
         height="25.424921"
         width="0.70905882"
         id="rect12644-7-1-8"
         style="fill:#552200;fill-opacity:1;fill-rule:nonzero;stroke:#000000;stroke-width:0.24392931;stroke-miterlimit:4;stroke-opacity:1;stroke-dasharray:none;display:inline" />
      <path
         sodipodi:nodetypes="ccccccccccccc"
         id="path6459"
         d="m 709.85937,727.10284 -18.56795,34.26376 9.34639,3.19145 13.67764,1.82369 14.24752,-2.62156 9.57435,-4.33125 -19.59989,-32.25143 0.84524,-5.40078 -3.33344,1.38131 -1.9902,1.19511 -1.8035,-1.21128 -3.36189,-2.14046 0.96573,6.10144 z"
         style="fill:url(#linearGradient9365);fill-opacity:1;stroke:none" />
      <path
         id="path6457"
         d="m 693.57104,756.80739 8.32056,2.84951 12.19588,1.59572 12.65181,-2.05164 8.6625,-3.98931 2.96349,3.87532 -9.80231,5.12911 -14.24752,2.50757 -13.56367,-2.2796 -9.57433,-3.19145 2.39359,-4.44523 z"
         style="fill:url(#linearGradient9395);fill-opacity:1;fill-rule:nonzero;stroke:none" />
      <path
         id="path9369"
         d="m 708.91924,721.10614 2.98296,18.24011 1.85825,-0.63572 -1.41814,-15.55055 -3.42307,-2.05384 z"
         style="fill:url(#linearGradient9377);fill-opacity:1;fill-rule:nonzero;stroke:none" />
      <path
         id="path9379"
         d="m 715.961,723.25778 3.56978,-1.51593 -3.52088,17.7022 -1.46704,-0.48901"
         style="fill:url(#linearGradient9387);fill-opacity:1;fill-rule:nonzero;stroke:none" />
      <path
         id="path12610"
         d="m 708.78125,720.90625 0.0625,0.25 0.96875,5.96875 -19.125,34.1875 10.25,3.53125 0.0312,0 13.375,1.875 0.0625,0 0.0625,0 14,-2.34375 0.0625,0 0.0312,-0.0312 9.6875,-4.6875 0.3125,-0.15625 -0.1875,-0.3125 -19.78125,-32.4375 0.96875,-4.96875 0.0625,-0.21875 -0.21875,0.0937 -3.09375,1.34375 -0.28125,0.125 -0.0625,0.0312 -1.375,0.59375 -0.0312,0 -1.21875,-0.0937 -0.84375,-0.5 -0.0937,-0.0625 -0.0625,-0.0312 -0.15625,-0.0937 -3.1875,-1.9375 -0.21875,-0.125 z m 0.3125,0.4375 3.0625,1.90625 1.3125,15.46875 L 712,739.125 709.09375,721.34375 z m 10.21875,0.625 -3.40625,17.3125 -1.15625,-0.4375 1.4375,-15.5 0.28125,-0.125 0,-0.0312 2.84375,-1.21875 z m -0.90625,5.71875 19.21875,31.53125 -9.15625,4.4375 -10.84375,-32.03125 0.78125,-3.9375 z M 710,728.25 l 0.5625,3.34375 -9.96875,32.4375 L 691.5,761.125 710,728.25 z m 7.53125,3.84375 10.71875,31.65625 -13.8125,2.3125 -0.0937,0 -0.0312,0 0,-0.75 c 0.0612,1.7e-4 0.12629,1.2e-4 0.1875,0 0.1785,-3.5e-4 0.35274,2.2e-4 0.53125,0 l 0.125,0 0.1875,-0.125 -0.125,0 c -0.17761,-2.2e-4 -0.35365,3.5e-4 -0.53125,0 -0.12336,0 -0.25165,-8.5e-4 -0.375,0 l 0,-0.625 c 0.0567,0.025 0.12468,0.0509 0.1875,0.0625 0.17045,0.005 0.33006,-0.0195 0.5,-0.0312 0.11944,-0.005 0.0706,10e-4 0.1875,0 l 0.1875,-0.15625 c -0.11761,0.002 -0.0673,-0.005 -0.1875,0 -0.16849,0.0106 -0.33112,0.0618 -0.5,0.0625 -0.12025,-0.0155 -0.22009,-0.119 -0.34375,-0.125 -0.0105,5e-5 -0.0208,-4e-5 -0.0312,0 l 0,-0.75 c 2.16016,-0.0836 3.875,-2.31411 3.875,-5.03125 0,-2.74362 -1.74796,-4.95764 -3.9375,-5 l 0,-1.375 c 0.0828,2.9e-4 0.16717,2e-5 0.25,0 0.12428,-2.5e-4 0.25072,1.3e-4 0.375,0 l 0.1875,-0.15625 c -0.12373,-1.1e-4 -0.25128,2.4e-4 -0.375,0 -0.14631,0 -0.29119,-4.3e-4 -0.4375,0 l -0.0312,-0.90625 c 0.0549,1.7e-4 0.10136,1.5e-4 0.15625,0 0.13833,-5.1e-4 0.2679,6e-5 0.40625,0 l 0.1875,-0.125 c -0.13769,-6e-5 -0.26856,5e-4 -0.40625,0 -0.1108,0 -0.20167,-10e-4 -0.3125,0 -0.0101,5e-5 -0.0211,-4e-5 -0.0312,0 l 0,-1.15625 c 0.0828,2.9e-4 0.16717,3e-5 0.25,0 0.12428,-2.4e-4 0.25072,1.2e-4 0.375,0 l 0.1875,-0.125 c -0.12374,-1.2e-4 -0.25128,2.5e-4 -0.375,0 -0.14631,0 -0.29119,-4.3e-4 -0.4375,0 l 0,-0.875 c 0.0399,6e-5 0.0851,1.2e-4 0.125,0 0.13833,-5.1e-4 0.2679,6e-5 0.40625,0 l 0.1875,-0.125 c -0.13769,-6e-5 -0.26856,5e-4 -0.40625,0 -0.1108,0 -0.20167,-10e-4 -0.3125,0 l 0,-0.9375 c 0.10035,3e-4 0.18089,3e-5 0.28125,0 0.12428,-2.5e-4 0.25072,1.3e-4 0.375,0 l 0.21875,-0.125 c -0.12373,-1.2e-4 -0.25128,2.4e-4 -0.375,0 -0.14631,0 -0.29119,-4.3e-4 -0.4375,0 -0.0203,7e-5 -0.0422,-6e-5 -0.0625,0 l 0,-0.96875 c 0.0599,2.2e-4 0.12762,1.7e-4 0.1875,0 0.13833,-5.1e-4 0.2679,6e-5 0.40625,0 l 0.1875,-0.125 c -0.13769,-6e-5 -0.26856,5e-4 -0.40625,0 -0.1108,0 -0.23291,-10e-4 -0.34375,0 -0.0105,5e-5 -0.0208,-4e-5 -0.0312,0 l -0.0312,-1.0625 c 0.0932,3e-4 0.18807,3e-5 0.28125,0 0.12428,-2.5e-4 0.25072,1.3e-4 0.375,0 l 0.1875,-0.125 c -0.12373,-1.1e-4 -0.25128,2.4e-4 -0.375,0 -0.14631,0 -0.2912,-4.3e-4 -0.4375,0 -0.0105,3e-5 -0.0207,-3e-5 -0.0312,0 l 0,-0.90625 c 0.0549,1.7e-4 0.10136,1.5e-4 0.15625,0 0.13834,-5.1e-4 0.2679,6e-5 0.40625,0 l 0.21875,-0.15625 c -0.1377,-6e-5 -0.2998,5e-4 -0.4375,0 -0.11079,0 -0.20167,-10e-4 -0.3125,0 -0.0105,5e-5 -0.0208,-4e-5 -0.0312,0 l 0,-1.125 c 0.0828,2.9e-4 0.16717,3e-5 0.25,0 0.12428,-2.4e-4 0.25072,1.3e-4 0.375,0 L 715,743.0625 c -0.12373,-1.2e-4 -0.25128,2.5e-4 -0.375,0 -0.14631,0 -0.29119,-4.4e-4 -0.4375,0 l 0,-0.84375 c 0.0439,9e-5 0.0811,1.2e-4 0.125,0 0.13834,-5.1e-4 0.26791,6e-5 0.40625,0 l 0.1875,-0.125 c -0.1377,-6e-5 -0.26855,5e-4 -0.40625,0 -0.11079,0 -0.20167,-10e-4 -0.3125,0 l 0,-0.9375 c 0.10354,3e-4 0.20896,4e-5 0.3125,0 0.12428,-2.4e-4 0.21947,1.3e-4 0.34375,0 l 0.21875,-0.125 c -0.12373,-1.2e-4 -0.25128,2.4e-4 -0.375,0 -0.14631,0 -0.2912,-4.3e-4 -0.4375,0 -0.0203,7e-5 -0.0422,-6e-5 -0.0625,0 l 0,-0.96875 c 0.0599,2.2e-4 0.12762,1.7e-4 0.1875,0 0.13834,-5.2e-4 0.2679,5e-5 0.40625,0 l 0.1875,-0.15625 c -0.1377,-6e-5 -0.26855,5e-4 -0.40625,0 -0.11079,0 -0.23292,-10e-4 -0.34375,0 -0.0105,5e-5 -0.0208,-4e-5 -0.0312,0 l -0.0312,-0.75 0.9375,0.0625 0.0312,0 0.8125,0.3125 0.125,0.0312 0.0312,-0.125 1.4375,-7.34375 z m -6.875,0.0312 1.15625,7.15625 0.0312,0.125 0.125,-0.0312 1.125,-0.3125 0.84375,0.0625 0,0.78125 c -0.23014,4.1e-4 -0.45738,10e-4 -0.6875,0 l -0.1875,0.15625 c 0.29332,-0.002 0.58167,-8.7e-4 0.875,0 l 0,0.96875 c -0.20314,1.5e-4 -0.42187,10e-4 -0.625,0 l -0.1875,0.125 c 0.26498,-0.002 0.54751,-4.9e-4 0.8125,0 l 0,0.9375 c -0.24321,5.3e-4 -0.5068,10e-4 -0.75,0 l -0.1875,0.125 c 0.30445,-0.002 0.63304,-9.2e-4 0.9375,0 l 0.0312,0.84375 c -0.23116,3.5e-4 -0.45635,0.002 -0.6875,0 l -0.21875,0.15625 c 0.29556,-0.002 0.61068,-6.6e-4 0.90625,0 l 0,1.125 c -0.2406,5e-4 -0.47817,10e-4 -0.71875,0 L 713.03125,744.5 c 0.30445,-0.002 0.63304,-9.2e-4 0.9375,0 l 0,0.90625 c -0.22065,2.7e-4 -0.43561,10e-4 -0.65625,0 l -0.1875,0.125 c 0.28466,-0.002 0.55908,-6e-4 0.84375,0 l 0,1.0625 c -0.23014,4.1e-4 -0.45737,10e-4 -0.6875,0 l -0.1875,0.125 c 0.29333,-0.002 0.58167,-8.7e-4 0.875,0 l 0,0.96875 c -0.20314,1.5e-4 -0.42187,10e-4 -0.625,0 l -0.1875,0.125 c 0.26497,-0.002 0.54751,-4.9e-4 0.8125,0 L 714,748.75 c -0.25335,6.3e-4 -0.52791,0.002 -0.78125,0 l -0.1875,0.125 c 0.32476,-0.003 0.644,-10e-4 0.96875,0 l 0,0.875 c -0.23116,3.5e-4 -0.45635,0.002 -0.6875,0 l -0.21875,0.125 c 0.29556,-0.002 0.61069,-6.7e-4 0.90625,0 l 0,1.15625 c -0.24321,5.3e-4 -0.5068,10e-4 -0.75,0 l -0.1875,0.125 c 0.30446,-0.002 0.63304,-9.2e-4 0.9375,0 l 0,0.90625 c -0.22065,2.7e-4 -0.43561,10e-4 -0.65625,0 l -0.21875,0.15625 c 0.28536,-0.002 0.58962,-6e-4 0.875,0 l 0.0312,1.375 c -2.14544,0.1038 -3.875,2.2961 -3.875,5 0,2.71714 1.74609,4.94765 3.90625,5.03125 l 0.0312,0.75 c -0.2406,5e-4 -0.47817,10e-4 -0.71875,0 l -0.1875,0.125 c 0.30381,-0.002 0.60244,-9.2e-4 0.90625,0 l 0,0.6875 c -0.21941,4.3e-4 -0.43685,10e-4 -0.65625,0 l -0.1875,0.125 c 0.28274,-0.002 0.56101,-8.9e-4 0.84375,0 l 0,0.71875 -13.03125,-1.84375 -0.25,-0.0937 9.84375,-31.96875 z"
         style="font-size:medium;font-style:normal;font-variant:normal;font-weight:normal;font-stretch:normal;text-indent:0;text-align:start;text-decoration:none;line-height:normal;letter-spacing:normal;word-spacing:normal;text-transform:none;direction:ltr;block-progression:tb;writing-mode:lr-tb;text-anchor:start;color:#000000;fill:#000000;fill-opacity:1;stroke:none;stroke-width:0.66500002;marker:none;visibility:visible;display:inline;overflow:visible;enable-background:accumulate;font-family:Bitstream Vera Sans;-inkscape-font-specification:Bitstream Vera Sans" />
    </g>
  </g>
</svg>
