<?xml version="1.0" encoding="UTF-8" standalone="no"?>
<!-- Created with Inkscape (http://www.inkscape.org/) -->

<svg
   xmlns:dc="http://purl.org/dc/elements/1.1/"
   xmlns:cc="http://creativecommons.org/ns#"
   xmlns:rdf="http://www.w3.org/1999/02/22-rdf-syntax-ns#"
   xmlns:svg="http://www.w3.org/2000/svg"
   xmlns="http://www.w3.org/2000/svg"
   xmlns:xlink="http://www.w3.org/1999/xlink"
   xmlns:sodipodi="http://sodipodi.sourceforge.net/DTD/sodipodi-0.dtd"
   xmlns:inkscape="http://www.inkscape.org/namespaces/inkscape"
   width="229.54335"
   height="365.65247"
   id="svg2"
   version="1.1"
   inkscape:version="0.48.2 r9819"
   sodipodi:docname="New document 1">
  <defs
     id="defs4">
    <linearGradient
       inkscape:collect="always"
       id="linearGradient3992">
      <stop
         style="stop-color:#00d2ff;stop-opacity:1;"
         offset="0"
         id="stop3994" />
      <stop
         id="stop4000"
         offset="0.43171805"
         style="stop-color:#6fe6ff;stop-opacity:1" />
      <stop
         style="stop-color:#004352;stop-opacity:1"
         offset="1"
         id="stop3996" />
    </linearGradient>
    <linearGradient
       id="linearGradient3984"
       inkscape:collect="always">
      <stop
         id="stop3986"
         offset="0"
         style="stop-color:#cccccc;stop-opacity:1" />
      <stop
         style="stop-color:#ffffff;stop-opacity:1"
         offset="0.41296175"
         id="stop3988" />
      <stop
         id="stop3990"
         offset="1"
         style="stop-color:#cccccc;stop-opacity:1" />
    </linearGradient>
    <linearGradient
       inkscape:collect="always"
       id="linearGradient3964">
      <stop
         style="stop-color:#999999;stop-opacity:1;"
         offset="0"
         id="stop3966" />
      <stop
         id="stop3972"
         offset="0.41296175"
         style="stop-color:#ececec;stop-opacity:1" />
      <stop
         style="stop-color:#cccccc;stop-opacity:1"
         offset="1"
         id="stop3968" />
    </linearGradient>
    <linearGradient
       id="linearGradient3876"
       inkscape:collect="always">
      <stop
         id="stop3878"
         offset="0"
         style="stop-color:#fff6d5;stop-opacity:1" />
      <stop
         style="stop-color:#ffcc00;stop-opacity:1"
         offset="0.57343847"
         id="stop3880" />
      <stop
         id="stop3882"
         offset="1"
         style="stop-color:#806600;stop-opacity:1" />
    </linearGradient>
    <linearGradient
       inkscape:collect="always"
       id="linearGradient3858">
      <stop
         style="stop-color:#d4aa00;stop-opacity:1"
         offset="0"
         id="stop3860" />
      <stop
         id="stop3866"
         offset="0.57343847"
         style="stop-color:#ffcc00;stop-opacity:1" />
      <stop
         style="stop-color:#ffeeaa;stop-opacity:1"
         offset="1"
         id="stop3862" />
    </linearGradient>
    <radialGradient
       inkscape:collect="always"
       xlink:href="#linearGradient3858"
       id="radialGradient3864"
       cx="214.83415"
       cy="288.15701"
       fx="214.83415"
       fy="288.15701"
       r="88.064468"
       gradientUnits="userSpaceOnUse"
       gradientTransform="matrix(0.70608515,0,0,0.70608515,63.142946,58.884226)" />
    <radialGradient
       inkscape:collect="always"
       xlink:href="#linearGradient3876"
       id="radialGradient3874"
       cx="41.658672"
       cy="316.28546"
       fx="41.658672"
       fy="316.28546"
       r="55.61763"
       gradientUnits="userSpaceOnUse"
       gradientTransform="matrix(1.7085405,0.02313421,-0.02034819,1.5027834,-23.081022,-159.98682)" />
    <linearGradient
       inkscape:collect="always"
       xlink:href="#linearGradient3964"
       id="linearGradient3970"
       x1="341.59381"
       y1="324.45053"
       x2="392.21881"
       y2="324.45053"
       gradientUnits="userSpaceOnUse" />
    <linearGradient
       inkscape:collect="always"
       xlink:href="#linearGradient3984"
       id="linearGradient3982"
       x1="326"
       y1="323.11218"
       x2="409.5"
       y2="276.61218"
       gradientUnits="userSpaceOnUse" />
    <linearGradient
       inkscape:collect="always"
       xlink:href="#linearGradient3992"
       id="linearGradient3998"
       x1="306.4375"
       y1="444.06836"
       x2="427.03125"
       y2="444.06836"
       gradientUnits="userSpaceOnUse" />
    <linearGradient
       inkscape:collect="always"
       xlink:href="#linearGradient3992"
       id="linearGradient4066"
       gradientUnits="userSpaceOnUse"
       x1="306.4375"
       y1="444.06836"
       x2="427.03125"
       y2="444.06836" />
    <linearGradient
       inkscape:collect="always"
       xlink:href="#linearGradient3992"
       id="linearGradient4068"
       gradientUnits="userSpaceOnUse"
       x1="306.4375"
       y1="444.06836"
       x2="427.03125"
       y2="444.06836" />
    <linearGradient
       inkscape:collect="always"
       xlink:href="#linearGradient3964"
       id="linearGradient4070"
       gradientUnits="userSpaceOnUse"
       x1="341.59381"
       y1="324.45053"
       x2="392.21881"
       y2="324.45053" />
    <linearGradient
       inkscape:collect="always"
       xlink:href="#linearGradient3984"
       id="linearGradient4072"
       gradientUnits="userSpaceOnUse"
       x1="326"
       y1="323.11218"
       x2="409.5"
       y2="276.61218" />
    <radialGradient
       inkscape:collect="always"
       xlink:href="#linearGradient3858"
       id="radialGradient4078"
       gradientUnits="userSpaceOnUse"
       gradientTransform="matrix(0.70608515,0,0,0.70608515,63.142946,58.884226)"
       cx="214.83415"
       cy="288.15701"
       fx="214.83415"
       fy="288.15701"
       r="88.064468" />
    <radialGradient
       inkscape:collect="always"
       xlink:href="#linearGradient3876"
       id="radialGradient4080"
       gradientUnits="userSpaceOnUse"
       gradientTransform="matrix(1.7085405,0.02313421,-0.02034819,1.5027834,-23.081022,-159.98682)"
       cx="41.658672"
       cy="316.28546"
       fx="41.658672"
       fy="316.28546"
       r="55.61763" />
    <radialGradient
       inkscape:collect="always"
       xlink:href="#linearGradient3858"
       id="radialGradient4095"
       gradientUnits="userSpaceOnUse"
       gradientTransform="matrix(0.70608515,0,0,0.70608515,63.142946,58.884226)"
       cx="214.83415"
       cy="288.15701"
       fx="214.83415"
       fy="288.15701"
       r="88.064468" />
    <radialGradient
       inkscape:collect="always"
       xlink:href="#linearGradient3876"
       id="radialGradient4097"
       gradientUnits="userSpaceOnUse"
       gradientTransform="matrix(1.7085405,0.02313421,-0.02034819,1.5027834,-23.081022,-159.98682)"
       cx="41.658672"
       cy="316.28546"
       fx="41.658672"
       fy="316.28546"
       r="55.61763" />
    <linearGradient
       inkscape:collect="always"
       xlink:href="#linearGradient3992"
       id="linearGradient4099"
       gradientUnits="userSpaceOnUse"
       x1="306.4375"
       y1="444.06836"
       x2="427.03125"
       y2="444.06836" />
    <linearGradient
       inkscape:collect="always"
       xlink:href="#linearGradient3992"
       id="linearGradient4101"
       gradientUnits="userSpaceOnUse"
       x1="306.4375"
       y1="444.06836"
       x2="427.03125"
       y2="444.06836" />
    <linearGradient
       inkscape:collect="always"
       xlink:href="#linearGradient3964"
       id="linearGradient4103"
       gradientUnits="userSpaceOnUse"
       x1="341.59381"
       y1="324.45053"
       x2="392.21881"
       y2="324.45053" />
    <linearGradient
       inkscape:collect="always"
       xlink:href="#linearGradient3984"
       id="linearGradient4105"
       gradientUnits="userSpaceOnUse"
       x1="326"
       y1="323.11218"
       x2="409.5"
       y2="276.61218" />
  </defs>
  <sodipodi:namedview
     id="base"
     pagecolor="#ffffff"
     bordercolor="#666666"
     borderopacity="1.0"
     inkscape:pageopacity="0.0"
     inkscape:pageshadow="2"
     inkscape:zoom="0.70710678"
     inkscape:cx="147.09094"
     inkscape:cy="346.52451"
     inkscape:document-units="px"
     inkscape:current-layer="layer1"
     showgrid="false"
     showguides="true"
     inkscape:guide-bbox="true"
     fit-margin-top="0"
     fit-margin-left="0"
     fit-margin-right="0"
     fit-margin-bottom="0"
     inkscape:window-width="1280"
     inkscape:window-height="1000"
     inkscape:window-x="0"
     inkscape:window-y="24"
     inkscape:window-maximized="1" />
  <metadata
     id="metadata7">
    <rdf:RDF>
      <cc:Work
         rdf:about="">
        <dc:format>image/svg+xml</dc:format>
        <dc:type
           rdf:resource="http://purl.org/dc/dcmitype/StillImage" />
        <dc:title></dc:title>
      </cc:Work>
    </rdf:RDF>
  </metadata>
  <g
     inkscape:label="Layer 1"
     inkscape:groupmode="layer"
     id="layer1"
     transform="translate(-197.4879,-202.62878)">
    <g
       id="g4082">
      <g
         transform="translate(44.656854,2.2842712)"
         id="g4074">
        <path
           style="fill:url(#radialGradient4095);fill-opacity:1;stroke:none"
           d="m 214.83415,200.34451 -5.3839,21.18255 -10.65747,-19.06429 0.28685,21.82244 -15.24703,-15.6442 5.93553,21.0281 -18.77745,-11.16497 11.16497,18.75538 -21.0281,-5.91346 15.6442,15.24703 -21.82245,-0.28685 19.02017,10.65747 -21.13842,5.3839 21.16049,5.36184 -19.04224,10.65747 21.82245,-0.28685 -15.62214,15.24703 21.00604,-5.93553 -11.16497,18.77745 18.79951,-11.18703 -5.95759,21.07222 15.24703,-15.66626 -0.28685,21.84451 10.67954,-19.0643 5.36183,21.18255 5.3839,-21.20461 10.67954,19.06429 -0.30892,-21.82244 15.24703,15.6442 -5.93553,-21.0281 18.77745,11.16497 -11.16497,-18.75538 21.0281,5.93552 -15.6442,-15.24702 21.82245,0.28684 -19.04224,-10.67953 21.16049,-5.36184 -21.16049,-5.3839 19.04224,-10.65747 -21.84451,0.28685 15.66626,-15.24703 -21.05016,5.93553 11.18703,-18.77745 -18.77745,11.16497 5.93553,-21.0281 -15.24703,15.6442 0.28685,-21.82244 -10.65747,19.06429 z"
           id="path3068"
           inkscape:connector-curvature="0"
           sodipodi:nodetypes="ccccccccccccccccccccccccccccccccccccccccccccccccc" />
        <path
           sodipodi:type="arc"
           style="fill:url(#radialGradient4097);fill-opacity:1;fill-rule:evenodd;stroke:none"
           id="path3064"
           sodipodi:cx="60.24485"
           sodipodi:cy="337.11481"
           sodipodi:rx="55.11763"
           sodipodi:ry="55.11763"
           d="m 115.36248,337.11481 c 0,30.44062 -24.677003,55.11763 -55.11763,55.11763 -30.440626,0 -55.1176298,-24.67701 -55.1176298,-55.11763 0,-30.44063 24.6770038,-55.11763 55.1176298,-55.11763 30.440627,0 55.11763,24.677 55.11763,55.11763 z"
           transform="matrix(0.70608515,0,0,0.70608515,172.29616,24.31585)" />
      </g>
      <g
         id="g4041">
        <path
           sodipodi:nodetypes="sccsccs"
           inkscape:connector-curvature="0"
           id="path4039"
           d="m 364.32011,438.74565 c -32.47488,0 -56.38261,11.56162 -56.38261,20.25913 l 0,79.99522 c 0,8.69751 26.69117,27.77082 59.16605,27.77082 32.47488,0 58.4277,-19.07331 58.4277,-27.77082 l 0,-79.99522 c 0,-8.69751 -28.73626,-20.25913 -61.21114,-20.25913 z"
           style="opacity:0.31687239;fill:url(#linearGradient4099);fill-opacity:1;fill-rule:evenodd;stroke:#00857d;stroke-width:3;stroke-linecap:butt;stroke-linejoin:miter;stroke-opacity:1" />
        <path
           style="opacity:0.31687239;fill:url(#linearGradient4101);fill-opacity:1;fill-rule:evenodd;stroke:#00857d;stroke-width:3;stroke-linecap:butt;stroke-linejoin:miter;stroke-opacity:1"
           d="m 368.56275,333.38674 c -32.47488,0 -60.62525,35.60325 -60.62525,44.30076 l 0,161.3125 c 0,8.69751 26.69117,27.77082 59.16605,27.77082 32.47488,0 58.4277,-19.07331 58.4277,-27.77082 l 0,-161.3125 c 0,-8.69751 -24.49362,-44.30076 -56.9685,-44.30076 z"
           id="path3895"
           inkscape:connector-curvature="0"
           sodipodi:nodetypes="sccsccs" />
        <path
           style="fill:url(#linearGradient4103);fill-opacity:1;fill-rule:evenodd;stroke:#999999;stroke-width:1px;stroke-linecap:butt;stroke-linejoin:miter;stroke-opacity:1"
           d="m 366.90625,299.49741 c -13.74752,0 -24.91072,3.87793 -25.28125,8.71875 l -0.0312,32.3125 c 0.18591,4.89869 11.44705,8.875 25.3125,8.875 13.98145,0 25.3125,-4.04455 25.3125,-9 l 0,-31.9375 c 0,-4.95545 -11.33105,-8.96875 -25.3125,-8.96875 z"
           id="path3888"
           inkscape:connector-curvature="0"
           sodipodi:nodetypes="sccsccs" />
        <path
           style="font-size:medium;font-style:normal;font-variant:normal;font-weight:normal;font-stretch:normal;text-indent:0;text-align:start;text-decoration:none;line-height:normal;letter-spacing:normal;word-spacing:normal;text-transform:none;direction:ltr;block-progression:tb;writing-mode:lr-tb;text-anchor:start;baseline-shift:baseline;color:#000000;fill:#008080;fill-opacity:1;stroke:none;stroke-width:1px;marker:none;visibility:visible;display:inline;overflow:visible;enable-background:accumulate;font-family:Sans;-inkscape-font-specification:Sans"
           d="m 425.03125,381.3125 c 0,0.13164 -0.071,0.35064 -0.34375,0.65625 -0.27273,0.30561 -0.70314,0.6528 -1.28125,1.03125 -1.15622,0.75691 -2.8677,1.62515 -4.96875,2.5 -4.20211,1.74971 -9.99444,3.61957 -16.15625,5.34375 -12.32362,3.44835 -26.27294,6.28125 -32.46875,6.28125 -6.36247,0 -17.90397,0.34155 -29.6875,-1.40625 C 328.34147,393.97095 316.34954,390.11539 309,381.875 l -0.75,0.65625 c 7.60562,8.52752 19.85453,12.39185 31.75,14.15625 11.89547,1.7644 23.48575,1.4375 29.8125,1.4375 6.49342,0 20.37494,-2.84975 32.75,-6.3125 6.18753,-1.73137 11.98318,-3.6296 16.25,-5.40625 2.13341,-0.88833 3.87721,-1.74565 5.125,-2.5625 0.6239,-0.40843 1.13587,-0.81072 1.5,-1.21875 0.36413,-0.40803 0.59375,-0.82101 0.59375,-1.3125 l -1,0 z m 0,10 c 0,0.13164 -0.071,0.35064 -0.34375,0.65625 -0.27273,0.30561 -0.70314,0.6528 -1.28125,1.03125 -1.15622,0.75691 -2.8677,1.62515 -4.96875,2.5 -4.20211,1.74971 -9.99444,3.61957 -16.15625,5.34375 -12.32362,3.44835 -26.27294,6.28125 -32.46875,6.28125 -6.36247,0 -17.90397,0.34155 -29.6875,-1.40625 C 328.34147,403.97095 316.34954,400.11539 309,391.875 l -0.75,0.65625 c 7.60562,8.52752 19.85453,12.39185 31.75,14.15625 11.89547,1.7644 23.48575,1.4375 29.8125,1.4375 6.49342,0 20.37494,-2.84975 32.75,-6.3125 6.18753,-1.73137 11.98318,-3.6296 16.25,-5.40625 2.13341,-0.88833 3.87721,-1.74565 5.125,-2.5625 0.6239,-0.40843 1.13587,-0.81072 1.5,-1.21875 0.36413,-0.40803 0.59375,-0.82101 0.59375,-1.3125 l -1,0 z m 0,10 c 0,0.13164 -0.071,0.35064 -0.34375,0.65625 -0.27273,0.30561 -0.70314,0.6528 -1.28125,1.03125 -1.15622,0.75691 -2.8677,1.62515 -4.96875,2.5 -4.20211,1.74971 -9.99444,3.61957 -16.15625,5.34375 -12.32362,3.44835 -26.27294,6.28125 -32.46875,6.28125 -6.36247,0 -17.90397,0.34155 -29.6875,-1.40625 C 328.34147,413.97095 316.34954,410.11539 309,401.875 l -0.75,0.65625 c 7.60562,8.52752 19.85453,12.39185 31.75,14.15625 11.89547,1.7644 23.48575,1.4375 29.8125,1.4375 6.49342,0 20.37494,-2.84975 32.75,-6.3125 6.18753,-1.73137 11.98318,-3.6296 16.25,-5.40625 2.13341,-0.88833 3.87721,-1.74565 5.125,-2.5625 0.6239,-0.40843 1.13587,-0.81072 1.5,-1.21875 0.36413,-0.40803 0.59375,-0.82101 0.59375,-1.3125 l -1,0 z m 0,10 c 0,0.13164 -0.071,0.35064 -0.34375,0.65625 -0.27273,0.30561 -0.70314,0.6528 -1.28125,1.03125 -1.15622,0.75691 -2.8677,1.62515 -4.96875,2.5 -4.20211,1.74971 -9.99444,3.61957 -16.15625,5.34375 -12.32362,3.44835 -26.27294,6.28125 -32.46875,6.28125 -6.36247,0 -17.90397,0.34155 -29.6875,-1.40625 C 328.34147,423.97095 316.34954,420.11539 309,411.875 l -0.75,0.65625 c 7.60562,8.52752 19.85453,12.39185 31.75,14.15625 11.89547,1.7644 23.48575,1.4375 29.8125,1.4375 6.49342,0 20.37494,-2.84975 32.75,-6.3125 6.18753,-1.73137 11.98318,-3.6296 16.25,-5.40625 2.13341,-0.88833 3.87721,-1.74565 5.125,-2.5625 0.6239,-0.40843 1.13587,-0.81072 1.5,-1.21875 0.36413,-0.40803 0.59375,-0.82101 0.59375,-1.3125 l -1,0 z m 0,10 c 0,0.13164 -0.071,0.35064 -0.34375,0.65625 -0.27273,0.30561 -0.70314,0.6528 -1.28125,1.03125 -1.15622,0.75691 -2.8677,1.62515 -4.96875,2.5 -4.20211,1.74971 -9.99444,3.61957 -16.15625,5.34375 -12.32362,3.44835 -26.27294,6.28125 -32.46875,6.28125 -6.36247,0 -17.90397,0.34155 -29.6875,-1.40625 C 328.34147,433.97095 316.34954,430.11539 309,421.875 l -0.75,0.65625 c 7.60562,8.52752 19.85453,12.39185 31.75,14.15625 11.89547,1.7644 23.48575,1.4375 29.8125,1.4375 6.49342,0 20.37494,-2.84975 32.75,-6.3125 6.18753,-1.73137 11.98318,-3.6296 16.25,-5.40625 2.13341,-0.88833 3.87721,-1.74565 5.125,-2.5625 0.6239,-0.40843 1.13587,-0.81072 1.5,-1.21875 0.36413,-0.40803 0.59375,-0.82101 0.59375,-1.3125 l -1,0 z m 0,10 c 0,0.13164 -0.071,0.35064 -0.34375,0.65625 -0.27273,0.30561 -0.70314,0.6528 -1.28125,1.03125 -1.15622,0.75691 -2.8677,1.62515 -4.96875,2.5 -4.20211,1.74971 -9.99444,3.61957 -16.15625,5.34375 -12.32362,3.44835 -26.27294,6.28125 -32.46875,6.28125 -6.36247,0 -17.90397,0.34155 -29.6875,-1.40625 C 328.34147,443.97095 316.34954,440.11539 309,431.875 l -0.75,0.65625 c 7.60562,8.52752 19.85453,12.39185 31.75,14.15625 11.89547,1.7644 23.48575,1.4375 29.8125,1.4375 6.49342,0 20.37494,-2.84975 32.75,-6.3125 6.18753,-1.73137 11.98318,-3.6296 16.25,-5.40625 2.13341,-0.88833 3.87721,-1.74565 5.125,-2.5625 0.6239,-0.40843 1.13587,-0.81072 1.5,-1.21875 0.36413,-0.40803 0.59375,-0.82101 0.59375,-1.3125 l -1,0 z m 0,10 c 0,0.13164 -0.071,0.35064 -0.34375,0.65625 -0.27273,0.30561 -0.70314,0.6528 -1.28125,1.03125 -1.15622,0.75691 -2.8677,1.62515 -4.96875,2.5 -4.20211,1.74971 -9.99444,3.61957 -16.15625,5.34375 -12.32362,3.44835 -26.27294,6.28125 -32.46875,6.28125 -6.36247,0 -17.90397,0.34155 -29.6875,-1.40625 C 328.34147,453.97095 316.34954,450.11539 309,441.875 l -0.75,0.65625 c 7.60562,8.52752 19.85453,12.39185 31.75,14.15625 11.89547,1.7644 23.48575,1.4375 29.8125,1.4375 6.49342,0 20.37494,-2.84975 32.75,-6.3125 6.18753,-1.73137 11.98318,-3.6296 16.25,-5.40625 2.13341,-0.88833 3.87721,-1.74565 5.125,-2.5625 0.6239,-0.40843 1.13587,-0.81072 1.5,-1.21875 0.36413,-0.40803 0.59375,-0.82101 0.59375,-1.3125 l -1,0 z m 0,10 c 0,0.13164 -0.071,0.35064 -0.34375,0.65625 -0.27273,0.30561 -0.70314,0.6528 -1.28125,1.03125 -1.15622,0.75691 -2.8677,1.62515 -4.96875,2.5 -4.20211,1.74971 -9.99444,3.61957 -16.15625,5.34375 -12.32362,3.44835 -26.27294,6.28125 -32.46875,6.28125 -6.36247,0 -17.90397,0.34155 -29.6875,-1.40625 C 328.34147,463.97095 316.34954,460.11539 309,451.875 l -0.75,0.65625 c 7.60562,8.52752 19.85453,12.39185 31.75,14.15625 11.89547,1.7644 23.48575,1.4375 29.8125,1.4375 6.49342,0 20.37494,-2.84975 32.75,-6.3125 6.18753,-1.73137 11.98318,-3.6296 16.25,-5.40625 2.13341,-0.88833 3.87721,-1.74565 5.125,-2.5625 0.6239,-0.40843 1.13587,-0.81072 1.5,-1.21875 0.36413,-0.40803 0.59375,-0.82101 0.59375,-1.3125 l -1,0 z"
           id="path3940"
           inkscape:connector-curvature="0" />
        <path
           style="font-size:medium;font-style:normal;font-variant:normal;font-weight:normal;font-stretch:normal;text-indent:0;text-align:start;text-decoration:none;line-height:normal;letter-spacing:normal;word-spacing:normal;text-transform:none;direction:ltr;block-progression:tb;writing-mode:lr-tb;text-anchor:start;baseline-shift:baseline;color:#000000;fill:#57ffff;fill-opacity:1;stroke:none;stroke-width:1px;marker:none;visibility:visible;display:inline;overflow:visible;enable-background:accumulate;font-family:Sans;-inkscape-font-specification:Sans"
           d="m 425.03125,380.8125 c 0,0.13164 -0.071,0.38189 -0.34375,0.6875 -0.27273,0.30561 -0.70314,0.6528 -1.28125,1.03125 -1.15622,0.75691 -2.8677,1.5939 -4.96875,2.46875 -4.20211,1.74971 -9.99444,3.65082 -16.15625,5.375 -12.32362,3.44835 -26.27294,6.25 -32.46875,6.25 -6.36247,0 -17.90397,0.34155 -29.6875,-1.40625 -11.78353,-1.7478 -23.77546,-5.57211 -31.125,-13.8125 l -0.75,0.65625 c 7.60562,8.52752 19.85453,12.39185 31.75,14.15625 11.89547,1.7644 23.48575,1.40625 29.8125,1.40625 6.49342,0 20.37494,-2.8185 32.75,-6.28125 6.18753,-1.73137 11.98318,-3.6296 16.25,-5.40625 2.13341,-0.88833 3.87721,-1.74565 5.125,-2.5625 0.6239,-0.40843 1.13587,-0.81072 1.5,-1.21875 0.36413,-0.40803 0.59375,-0.85226 0.59375,-1.34375 l -1,0 z m 0,10 c 0,0.13164 -0.071,0.38189 -0.34375,0.6875 -0.27273,0.30561 -0.70314,0.6528 -1.28125,1.03125 -1.15622,0.75691 -2.8677,1.5939 -4.96875,2.46875 -4.20211,1.74971 -9.99444,3.65082 -16.15625,5.375 -12.32362,3.44835 -26.27294,6.25 -32.46875,6.25 -6.36247,0 -17.90397,0.34155 -29.6875,-1.40625 -11.78353,-1.7478 -23.77546,-5.57211 -31.125,-13.8125 l -0.75,0.65625 c 7.60562,8.52752 19.85453,12.39185 31.75,14.15625 11.89547,1.7644 23.48575,1.40625 29.8125,1.40625 6.49342,0 20.37494,-2.8185 32.75,-6.28125 6.18753,-1.73137 11.98318,-3.6296 16.25,-5.40625 2.13341,-0.88833 3.87721,-1.74565 5.125,-2.5625 0.6239,-0.40843 1.13587,-0.81072 1.5,-1.21875 0.36413,-0.40803 0.59375,-0.85226 0.59375,-1.34375 l -1,0 z m 0,10 c 0,0.13164 -0.071,0.38189 -0.34375,0.6875 -0.27273,0.30561 -0.70314,0.6528 -1.28125,1.03125 -1.15622,0.75691 -2.8677,1.5939 -4.96875,2.46875 -4.20211,1.74971 -9.99444,3.65082 -16.15625,5.375 -12.32362,3.44835 -26.27294,6.25 -32.46875,6.25 -6.36247,0 -17.90397,0.34155 -29.6875,-1.40625 -11.78353,-1.7478 -23.77546,-5.57211 -31.125,-13.8125 l -0.75,0.65625 c 7.60562,8.52752 19.85453,12.39185 31.75,14.15625 11.89547,1.7644 23.48575,1.40625 29.8125,1.40625 6.49342,0 20.37494,-2.8185 32.75,-6.28125 6.18753,-1.73137 11.98318,-3.6296 16.25,-5.40625 2.13341,-0.88833 3.87721,-1.74565 5.125,-2.5625 0.6239,-0.40843 1.13587,-0.81072 1.5,-1.21875 0.36413,-0.40803 0.59375,-0.85226 0.59375,-1.34375 l -1,0 z m 0,10 c 0,0.13164 -0.071,0.38189 -0.34375,0.6875 -0.27273,0.30561 -0.70314,0.6528 -1.28125,1.03125 -1.15622,0.75691 -2.8677,1.5939 -4.96875,2.46875 -4.20211,1.74971 -9.99444,3.65082 -16.15625,5.375 -12.32362,3.44835 -26.27294,6.25 -32.46875,6.25 -6.36247,0 -17.90397,0.34155 -29.6875,-1.40625 -11.78353,-1.7478 -23.77546,-5.57211 -31.125,-13.8125 l -0.75,0.65625 c 7.60562,8.52752 19.85453,12.39185 31.75,14.15625 11.89547,1.7644 23.48575,1.40625 29.8125,1.40625 6.49342,0 20.37494,-2.8185 32.75,-6.28125 6.18753,-1.73137 11.98318,-3.6296 16.25,-5.40625 2.13341,-0.88833 3.87721,-1.74565 5.125,-2.5625 0.6239,-0.40843 1.13587,-0.81072 1.5,-1.21875 0.36413,-0.40803 0.59375,-0.85226 0.59375,-1.34375 l -1,0 z m 0,10 c 0,0.13164 -0.071,0.38189 -0.34375,0.6875 -0.27273,0.30561 -0.70314,0.6528 -1.28125,1.03125 -1.15622,0.75691 -2.8677,1.5939 -4.96875,2.46875 -4.20211,1.74971 -9.99444,3.65082 -16.15625,5.375 -12.32362,3.44835 -26.27294,6.25 -32.46875,6.25 -6.36247,0 -17.90397,0.34155 -29.6875,-1.40625 -11.78353,-1.7478 -23.77546,-5.57211 -31.125,-13.8125 l -0.75,0.65625 c 7.60562,8.52752 19.85453,12.39185 31.75,14.15625 11.89547,1.7644 23.48575,1.40625 29.8125,1.40625 6.49342,0 20.37494,-2.8185 32.75,-6.28125 6.18753,-1.73137 11.98318,-3.6296 16.25,-5.40625 2.13341,-0.88833 3.87721,-1.74565 5.125,-2.5625 0.6239,-0.40843 1.13587,-0.81072 1.5,-1.21875 0.36413,-0.40803 0.59375,-0.85226 0.59375,-1.34375 l -1,0 z m 0,10 c 0,0.13164 -0.071,0.38189 -0.34375,0.6875 -0.27273,0.30561 -0.70314,0.6528 -1.28125,1.03125 -1.15622,0.75691 -2.8677,1.5939 -4.96875,2.46875 -4.20211,1.74971 -9.99444,3.65082 -16.15625,5.375 -12.32362,3.44835 -26.27294,6.25 -32.46875,6.25 -6.36247,0 -17.90397,0.34155 -29.6875,-1.40625 -11.78353,-1.7478 -23.77546,-5.57211 -31.125,-13.8125 l -0.75,0.65625 c 7.60562,8.52752 19.85453,12.39185 31.75,14.15625 11.89547,1.7644 23.48575,1.40625 29.8125,1.40625 6.49342,0 20.37494,-2.8185 32.75,-6.28125 6.18753,-1.73137 11.98318,-3.6296 16.25,-5.40625 2.13341,-0.88833 3.87721,-1.74565 5.125,-2.5625 0.6239,-0.40843 1.13587,-0.81072 1.5,-1.21875 0.36413,-0.40803 0.59375,-0.85226 0.59375,-1.34375 l -1,0 z m 0,10 c 0,0.13164 -0.071,0.38189 -0.34375,0.6875 -0.27273,0.30561 -0.70314,0.6528 -1.28125,1.03125 -1.15622,0.75691 -2.8677,1.5939 -4.96875,2.46875 -4.20211,1.74971 -9.99444,3.65082 -16.15625,5.375 -12.32362,3.44835 -26.27294,6.25 -32.46875,6.25 -6.36247,0 -17.90397,0.34155 -29.6875,-1.40625 -11.78353,-1.7478 -23.77546,-5.57211 -31.125,-13.8125 l -0.75,0.65625 c 7.60562,8.52752 19.85453,12.39185 31.75,14.15625 11.89547,1.7644 23.48575,1.40625 29.8125,1.40625 6.49342,0 20.37494,-2.8185 32.75,-6.28125 6.18753,-1.73137 11.98318,-3.6296 16.25,-5.40625 2.13341,-0.88833 3.87721,-1.74565 5.125,-2.5625 0.6239,-0.40843 1.13587,-0.81072 1.5,-1.21875 0.36413,-0.40803 0.59375,-0.85226 0.59375,-1.34375 l -1,0 z m 0,10 c 0,0.13164 -0.071,0.38189 -0.34375,0.6875 -0.27273,0.30561 -0.70314,0.6528 -1.28125,1.03125 -1.15622,0.75691 -2.8677,1.5939 -4.96875,2.46875 -4.20211,1.74971 -9.99444,3.65082 -16.15625,5.375 -12.32362,3.44835 -26.27294,6.25 -32.46875,6.25 -6.36247,0 -17.90397,0.34155 -29.6875,-1.40625 -11.78353,-1.7478 -23.77546,-5.57211 -31.125,-13.8125 l -0.75,0.65625 c 7.60562,8.52752 19.85453,12.39185 31.75,14.15625 11.89547,1.7644 23.48575,1.40625 29.8125,1.40625 6.49342,0 20.37494,-2.8185 32.75,-6.28125 6.18753,-1.73137 11.98318,-3.6296 16.25,-5.40625 2.13341,-0.88833 3.87721,-1.74565 5.125,-2.5625 0.6239,-0.40843 1.13587,-0.81072 1.5,-1.21875 0.36413,-0.40803 0.59375,-0.85226 0.59375,-1.34375 l -1,0 z"
           id="path3946"
           inkscape:connector-curvature="0" />
        <path
           sodipodi:nodetypes="scccss"
           inkscape:connector-curvature="0"
           id="path3974"
           d="m 366.90625,299.49741 c -13.74752,0 -24.91072,3.87793 -25.28125,8.71875 -0.22769,2.73659 5.44918,8.1875 25.2813,8.1875 21.8086,0.0518 25.3125,-3.46253 25.3125,-7.9375 0,-4.95545 -11.33105,-8.96875 -25.3125,-8.96875 z"
           style="fill:url(#linearGradient4105);fill-opacity:1;fill-rule:evenodd;stroke:#b3b3b3" />
        <path
           id="path4027"
           style="font-size:12px;font-style:normal;font-variant:normal;font-weight:normal;font-stretch:normal;text-align:start;line-height:125%;letter-spacing:0px;word-spacing:0px;writing-mode:lr-tb;text-anchor:start;fill:#000000;fill-opacity:1;stroke:none;font-family:Times New Roman;-inkscape-font-specification:Times New Roman"
           d="m 389.88989,378.32568 c -0.004,0.79688 0.18945,1.42188 0.58008,1.875 0.39062,0.45313 0.84961,0.67969 1.37695,0.67969 0.35156,0 0.65625,-0.0957 0.91407,-0.28711 0.26171,-0.19531 0.48046,-0.52734 0.65625,-0.99609 l 0.18164,0.11719 c -0.082,0.53515 -0.32032,1.02343 -0.71485,1.46484 -0.39453,0.4375 -0.88867,0.65625 -1.48242,0.65625 -0.64453,0 -1.19727,-0.25 -1.6582,-0.75 -0.45703,-0.50391 -0.68555,-1.17969 -0.68555,-2.02734 0,-0.91797 0.23438,-1.63281 0.70313,-2.14454 0.47265,-0.51562 1.06445,-0.77343 1.77539,-0.77343 0.60156,0 1.0957,0.19922 1.48242,0.59765 0.38671,0.39454 0.58007,0.92384 0.58008,1.58789 l -3.70899,0 m 0,-0.33984 2.48438,0 c -0.0195,-0.34375 -0.0606,-0.58593 -0.12305,-0.72656 -0.0977,-0.21875 -0.24414,-0.39062 -0.43945,-0.51563 -0.19141,-0.12499 -0.39258,-0.18749 -0.60352,-0.1875 -0.32422,10e-6 -0.61523,0.12696 -0.87304,0.38086 -0.25391,0.25001 -0.40235,0.59962 -0.44532,1.04883 m -2.38476,-4.64648 0,7.11914 c -1e-5,0.33593 0.0234,0.55859 0.0703,0.66796 0.0508,0.10938 0.12695,0.19336 0.22852,0.25196 0.10155,0.0547 0.29101,0.082 0.56835,0.082 l 0,0.21094 -2.63085,0 0,-0.21094 c 0.24609,0 0.41406,-0.0254 0.5039,-0.0762 0.0898,-0.0508 0.16016,-0.13477 0.21094,-0.25196 0.0508,-0.11718 0.0762,-0.34179 0.0762,-0.67382 l 0,-4.875 c 0,-0.60547 -0.0137,-0.97656 -0.041,-1.11329 -0.0274,-0.14061 -0.0723,-0.23632 -0.13477,-0.2871 -0.0586,-0.0508 -0.13477,-0.0762 -0.22852,-0.0762 -0.10156,10e-6 -0.23047,0.0313 -0.38671,0.0937 l -0.0996,-0.20507 1.59961,-0.65625 0.26367,0 m -3.61528,1.2013 0,1.76367 1.25391,0 0,0.41016 -1.25391,0 0,3.48046 c 0,0.34766 0.0488,0.58204 0.14649,0.70313 0.10156,0.12109 0.23046,0.18164 0.38672,0.18164 0.1289,0 0.2539,-0.0391 0.375,-0.11719 0.12109,-0.082 0.21484,-0.20117 0.28125,-0.35742 l 0.22851,0 c -0.13672,0.38281 -0.33008,0.67188 -0.58008,0.86719 -0.25,0.1914 -0.50781,0.28711 -0.77343,0.28711 -0.17969,0 -0.35547,-0.0488 -0.52735,-0.14649 -0.17187,-0.10156 -0.29883,-0.24414 -0.38086,-0.42773 -0.082,-0.1875 -0.12305,-0.47461 -0.12304,-0.86133 l 0,-3.60937 -0.84961,0 0,-0.19336 c 0.21484,-0.0859 0.43359,-0.23047 0.65625,-0.4336 0.22656,-0.20702 0.42773,-0.45116 0.60351,-0.73242 0.0898,-0.14843 0.21484,-0.41991 0.375,-0.81445 l 0.18164,0 m -3.32812,0 0,1.76367 1.2539,0 0,0.41016 -1.2539,0 0,3.48046 c 0,0.34766 0.0488,0.58204 0.14648,0.70313 0.10156,0.12109 0.23047,0.18164 0.38672,0.18164 0.1289,0 0.2539,-0.0391 0.375,-0.11719 0.12109,-0.082 0.21484,-0.20117 0.28125,-0.35742 l 0.22852,0 c -0.13673,0.38281 -0.33008,0.67188 -0.58008,0.86719 -0.25,0.1914 -0.50782,0.28711 -0.77344,0.28711 -0.17969,0 -0.35547,-0.0488 -0.52734,-0.14649 -0.17188,-0.10156 -0.29883,-0.24414 -0.38086,-0.42773 -0.082,-0.1875 -0.12305,-0.47461 -0.12305,-0.86133 l 0,-3.60937 -0.84961,0 0,-0.19336 c 0.21484,-0.0859 0.43359,-0.23047 0.65625,-0.4336 0.22656,-0.20702 0.42773,-0.45116 0.60352,-0.73242 0.0898,-0.14843 0.21484,-0.41991 0.375,-0.81445 l 0.18164,0 m -4.9336,1.60547 c 0.8125,0 1.46484,0.3086 1.95704,0.92578 0.41796,0.52735 0.62694,1.13281 0.62695,1.8164 -10e-6,0.48047 -0.11524,0.9668 -0.3457,1.45899 -0.23048,0.49219 -0.54884,0.86328 -0.95508,1.11328 -0.40235,0.25 -0.85157,0.375 -1.34766,0.375 -0.8086,0 -1.45117,-0.32227 -1.92773,-0.9668 -0.40235,-0.54297 -0.60352,-1.15234 -0.60352,-1.82812 0,-0.49219 0.12109,-0.98047 0.36328,-1.46485 0.24609,-0.48827 0.56836,-0.84765 0.9668,-1.07812 0.39843,-0.23437 0.82031,-0.35156 1.26562,-0.35156 m -0.18164,0.38086 c -0.20703,0 -0.41601,0.0625 -0.62695,0.1875 -0.20703,0.12109 -0.375,0.33594 -0.50391,0.64453 -0.1289,0.30859 -0.19336,0.70508 -0.19336,1.18945 0,0.78125 0.1543,1.45508 0.4629,2.02148 0.31249,0.56641 0.72265,0.84961 1.23046,0.84961 0.37891,0 0.69141,-0.15625 0.9375,-0.46875 0.24609,-0.3125 0.36914,-0.8496 0.36914,-1.61132 0,-0.95313 -0.20508,-1.70313 -0.61523,-2.25 -0.27735,-0.375 -0.63086,-0.5625 -1.06055,-0.5625 m -5.29101,1.08984 c 0.55077,0.11719 0.96288,0.30469 1.23633,0.5625 0.37889,0.35938 0.56835,0.79883 0.56836,1.31836 -1e-5,0.39453 -0.12501,0.77344 -0.375,1.13672 -0.25001,0.35937 -0.59376,0.62304 -1.03125,0.79101 -0.4336,0.16407 -1.09767,0.2461 -1.99219,0.2461 l -3.75,0 0,-0.2168 0.29883,0 c 0.33203,0 0.57031,-0.10547 0.71484,-0.31641 0.0898,-0.13671 0.13476,-0.42773 0.13477,-0.87304 l 0,-5.13282 c -1e-5,-0.49218 -0.0566,-0.80272 -0.16993,-0.93164 -0.15234,-0.17186 -0.3789,-0.2578 -0.67968,-0.25781 l -0.29883,0 0,-0.2168 3.43359,0 c 0.64062,1e-5 1.15429,0.0469 1.54102,0.14063 0.58593,0.14063 1.03319,0.39063 1.34179,0.75 0.30859,0.35547 0.46289,0.76563 0.46289,1.23047 0,0.39844 -0.1211,0.75586 -0.36328,1.07226 -0.24219,0.31251 -0.59961,0.54493 -1.07226,0.69727 m -3.07031,-0.31641 c 0.14452,0.0273 0.30859,0.0488 0.49218,0.0645 0.1875,0.0117 0.39258,0.0176 0.61524,0.0176 0.57031,1e-5 0.99804,-0.0605 1.2832,-0.18164 0.28906,-0.12499 0.50976,-0.31444 0.66211,-0.56836 0.15234,-0.2539 0.22851,-0.53124 0.22852,-0.83203 -1e-5,-0.46483 -0.18946,-0.86132 -0.56836,-1.18945 -0.37892,-0.32812 -0.93165,-0.49218 -1.65821,-0.49219 -0.39063,1e-5 -0.74219,0.043 -1.05468,0.12891 l 0,3.05273 m 0,3.79688 c 0.45312,0.10547 0.90038,0.1582 1.34179,0.1582 0.70703,0 1.24609,-0.1582 1.61719,-0.47461 0.37109,-0.32031 0.55663,-0.71484 0.55664,-1.18359 -10e-6,-0.30859 -0.084,-0.60547 -0.25195,-0.89063 -0.16798,-0.28515 -0.44141,-0.50976 -0.82032,-0.67383 -0.37891,-0.16405 -0.84766,-0.24609 -1.40625,-0.24609 -0.24219,0 -0.44922,0.004 -0.62109,0.0117 -0.17188,0.008 -0.31055,0.0215 -0.41601,0.041 l 0,3.25781 m -5.6543,-7.37113 0.0879,1.86329 -0.22266,0 c -0.043,-0.32812 -0.10157,-0.5625 -0.17578,-0.70313 -0.1211,-0.22656 -0.28321,-0.39257 -0.48633,-0.49805 -0.19922,-0.10936 -0.46289,-0.16405 -0.79101,-0.16406 l -1.11914,0 0,6.07031 c -10e-6,0.48829 0.0527,0.79297 0.1582,0.91407 0.14843,0.16406 0.37695,0.24609 0.68555,0.24609 l 0.27539,0 0,0.2168 -3.36914,0 0,-0.2168 0.28125,0 c 0.33593,0 0.57421,-0.10156 0.71484,-0.30469 0.0859,-0.125 0.1289,-0.41015 0.12891,-0.85547 l 0,-6.07031 -0.95508,0 c -0.3711,10e-6 -0.63477,0.0273 -0.79102,0.082 -0.20312,0.0742 -0.37695,0.21681 -0.52148,0.42774 -0.14453,0.21094 -0.23047,0.4961 -0.25781,0.85547 l -0.22266,0 0.0937,-1.86329 6.48633,0 m -11.77145,0.43363 0,3.14062 1.7461,0 c 0.45312,10e-6 0.75585,-0.0684 0.9082,-0.20508 0.20312,-0.17968 0.3164,-0.49608 0.33984,-0.94921 l 0.2168,0 0,2.76562 -0.2168,0 c -0.0547,-0.38671 -0.10938,-0.63476 -0.16406,-0.74414 -0.0703,-0.13671 -0.18555,-0.24414 -0.3457,-0.32227 -0.16016,-0.0781 -0.40626,-0.11718 -0.73828,-0.11718 l -1.7461,0 0,2.61914 c 0,0.35156 0.0156,0.5664 0.0469,0.64453 0.0312,0.0742 0.0859,0.13477 0.16406,0.18164 0.0781,0.043 0.22656,0.0645 0.44531,0.0645 l 1.34766,0 c 0.44921,0 0.77539,-0.0312 0.97852,-0.0937 0.20312,-0.0625 0.39843,-0.18554 0.58593,-0.36914 0.24218,-0.24218 0.49023,-0.60742 0.74414,-1.0957 l 0.23438,0 -0.68555,1.99219 -6.12304,0 0,-0.2168 0.28125,0 c 0.18749,0 0.36523,-0.0449 0.5332,-0.13477 0.125,-0.0625 0.20898,-0.15625 0.25195,-0.28125 0.0469,-0.125 0.0703,-0.38085 0.0703,-0.76757 l 0,-5.16211 c 0,-0.5039 -0.0508,-0.81445 -0.15234,-0.93164 -0.14063,-0.15625 -0.375,-0.23437 -0.70312,-0.23438 l -0.28125,0 0,-0.2168 6.12304,0 0.0879,1.74024 -0.22851,0 c -0.082,-0.41796 -0.17384,-0.70507 -0.27539,-0.86133 -0.0977,-0.15624 -0.24415,-0.27538 -0.43946,-0.35742 -0.15625,-0.0586 -0.43164,-0.0879 -0.82617,-0.0879 l -2.17969,0 m -6.72658,3.79092 0,2.31446 c 0,0.5 0.0547,0.81054 0.16406,0.93164 0.14844,0.17187 0.37305,0.25781 0.67383,0.25781 l 0.30469,0 0,0.2168 -3.4043,0 0,-0.2168 0.29883,0 c 0.33594,0 0.57617,-0.10937 0.7207,-0.32813 0.0781,-0.12109 0.11719,-0.4082 0.11719,-0.86132 l 0,-5.13282 c 0,-0.49999 -0.0527,-0.81054 -0.1582,-0.93164 -0.15235,-0.17186 -0.37891,-0.2578 -0.67969,-0.25781 l -0.29883,0 0,-0.2168 2.91211,0 c 0.71094,1e-5 1.27148,0.0742 1.68164,0.22266 0.41015,0.14454 0.75586,0.39063 1.03711,0.73828 0.28125,0.34766 0.42187,0.75977 0.42188,1.23633 -1e-5,0.64844 -0.21485,1.17579 -0.64453,1.58203 -0.42579,0.40625 -1.02931,0.60938 -1.81055,0.60938 -0.19141,0 -0.39844,-0.0137 -0.62109,-0.041 -0.22266,-0.0273 -0.46095,-0.0684 -0.71485,-0.12305 m 0,-0.33398 c 0.20703,0.0391 0.39062,0.0684 0.55078,0.0879 0.16016,0.0195 0.29687,0.0293 0.41016,0.0293 0.40624,0 0.75585,-0.15625 1.04883,-0.46875 0.29687,-0.3164 0.4453,-0.72461 0.44531,-1.22461 -1e-5,-0.34375 -0.0703,-0.66211 -0.21094,-0.95508 -0.14063,-0.29687 -0.33985,-0.51757 -0.59765,-0.66211 -0.25782,-0.14843 -0.55079,-0.22265 -0.87891,-0.22266 -0.19922,10e-6 -0.45508,0.0371 -0.76758,0.11133 l 0,3.30469"
           inkscape:connector-curvature="0" />
      </g>
    </g>
  </g>
</svg>
