<svg width="541" height="587" xmlns="http://www.w3.org/2000/svg" xmlns:xlink="http://www.w3.org/1999/xlink">
 <metadata id="metadata7">image/svg+xml</metadata>
 <defs>
  <symbol id="svg_155" height="259" width="87" xmlns:xlink="http://www.w3.org/1999/xlink">
   <defs>
    <linearGradient id="svg_124">
     <stop stop-color="#00d2ff" id="svg_154" offset="0"/>
     <stop stop-color="#6fe6ff" offset="0.431718" id="svg_153"/>
     <stop stop-color="#004352" id="svg_152" offset="1"/>
    </linearGradient>
    <linearGradient id="svg_122">
     <stop stop-color="#cccccc" offset="0" id="svg_151"/>
     <stop stop-color="#ffffff" id="svg_150" offset="0.412962"/>
     <stop stop-color="#cccccc" offset="1" id="svg_149"/>
    </linearGradient>
    <linearGradient id="svg_123">
     <stop stop-color="#999999" id="svg_148" offset="0"/>
     <stop stop-color="#ececec" offset="0.412962" id="svg_147"/>
     <stop stop-color="#cccccc" id="svg_146" offset="1"/>
    </linearGradient>
    <linearGradient id="svg_126">
     <stop stop-color="#fff6d5" offset="0" id="svg_145"/>
     <stop stop-color="#ffcc00" id="svg_144" offset="0.573438"/>
     <stop stop-color="#806600" offset="1" id="svg_143"/>
    </linearGradient>
    <linearGradient id="svg_128">
     <stop stop-color="#d4aa00" id="svg_142" offset="0"/>
     <stop stop-color="#ffcc00" offset="0.573438" id="svg_141"/>
     <stop stop-color="#ffeeaa" id="svg_140" offset="1"/>
    </linearGradient>
    <radialGradient gradientTransform="matrix(0.70608515,0,0,0.70608515,63.142946,58.884226)" gradientUnits="userSpaceOnUse" r="88.064468" fy="288.15701" fx="214.83415" cy="288.15701" cx="214.83415" id="svg_139" xlink:href="#svg_128"/>
    <radialGradient gradientTransform="matrix(1.7085405,0.02313421,-0.02034819,1.5027834,-23.081022,-159.98682)" gradientUnits="userSpaceOnUse" r="55.61763" fy="316.28546" fx="41.658672" cy="316.28546" cx="41.658672" id="svg_138" xlink:href="#svg_126"/>
    <linearGradient gradientUnits="userSpaceOnUse" y2="324.45053" x2="392.21881" y1="324.45053" x1="341.59381" id="svg_137" xlink:href="#svg_123"/>
    <linearGradient gradientUnits="userSpaceOnUse" y2="276.61218" x2="409.5" y1="323.11218" x1="326" id="svg_136" xlink:href="#svg_122"/>
    <linearGradient gradientUnits="userSpaceOnUse" y2="444.06836" x2="427.03125" y1="444.06836" x1="306.4375" id="svg_135" xlink:href="#svg_124"/>
    <linearGradient y2="444.06836" x2="427.03125" y1="444.06836" x1="306.4375" gradientUnits="userSpaceOnUse" id="svg_134" xlink:href="#svg_124"/>
    <linearGradient y2="444.06836" x2="427.03125" y1="444.06836" x1="306.4375" gradientUnits="userSpaceOnUse" id="svg_133" xlink:href="#svg_124"/>
    <linearGradient y2="324.45053" x2="392.21881" y1="324.45053" x1="341.59381" gradientUnits="userSpaceOnUse" id="svg_132" xlink:href="#svg_123"/>
    <linearGradient y2="276.61218" x2="409.5" y1="323.11218" x1="326" gradientUnits="userSpaceOnUse" id="svg_131" xlink:href="#svg_122"/>
    <radialGradient r="88.064468" fy="288.15701" fx="214.83415" cy="288.15701" cx="214.83415" gradientTransform="matrix(0.70608515,0,0,0.70608515,63.142946,58.884226)" gradientUnits="userSpaceOnUse" id="svg_130" xlink:href="#svg_128"/>
    <radialGradient r="55.61763" fy="316.28546" fx="41.658672" cy="316.28546" cx="41.658672" gradientTransform="matrix(1.7085405,0.02313421,-0.02034819,1.5027834,-23.081022,-159.98682)" gradientUnits="userSpaceOnUse" id="svg_129" xlink:href="#svg_126"/>
    <radialGradient r="88.064468" fy="288.15701" fx="214.83415" cy="288.15701" cx="214.83415" gradientTransform="matrix(0.70608515,0,0,0.70608515,63.142946,58.884226)" gradientUnits="userSpaceOnUse" id="svg_127" xlink:href="#svg_128"/>
    <radialGradient r="55.61763" fy="316.28546" fx="41.658672" cy="316.28546" cx="41.658672" gradientTransform="matrix(1.7085405,0.02313421,-0.02034819,1.5027834,-23.081022,-159.98682)" gradientUnits="userSpaceOnUse" id="svg_125" xlink:href="#svg_126"/>
    <linearGradient y2="0.041576" x2="1.012756" y1="0.041576" x1="-0.012756" id="svg_120" xlink:href="#svg_124"/>
    <linearGradient y2="0.474247" x2="1.012756" y1="0.474247" x1="-0.012756" id="svg_118" xlink:href="#svg_124"/>
    <linearGradient y2="0.5" x2="1" y1="0.5" x1="0" id="svg_113" xlink:href="#svg_123"/>
    <linearGradient y2="-1.353609" x2="1.341523" y1="1.396761" x1="-0.308663" id="svg_111" xlink:href="#svg_122"/>
   </defs>
   <metadata id="svg_121">image/svg+xml</metadata>
   <g>
    <title>Layer 1</title>
    <g id="svg_108">
     <g id="svg_114">
      <path opacity="0.316872" fill="url(#svg_120)" fill-rule="evenodd" stroke-width="3" d="m41.581001,131.248413c-23.949699,0 -41.581001,11.560974 -41.581001,20.259003l0,79.99498c0,8.698013 19.684502,27.771011 43.635002,27.771011c23.950005,0 43.088997,-19.072998 43.088997,-27.771011l0,-79.99498c0,-8.698029 -21.192001,-20.259003 -45.142998,-20.259003z" id="svg_119" stroke="#00857d"/>
      <path opacity="0.316872" fill="url(#svg_118)" fill-rule="evenodd" stroke-width="3" id="svg_117" d="m44.711006,25.889404c-23.9505,0 -44.711006,35.602997 -44.711006,44.300995l0,161.311996c0,8.698013 19.684502,27.771011 43.635002,27.771011c23.950005,0 43.088997,-19.072998 43.088997,-27.771011l0,-161.311996c0,-8.697998 -18.063004,-44.300995 -42.012993,-44.300995z" stroke="#00857d"/>
      <path fill="#008080" stroke-width="1px" id="svg_116" d="m86.356003,73.815407c0,0.130997 -0.052994,0.349991 -0.253006,0.655991c-0.201996,0.306 -0.519989,0.653 -0.945999,1.031006c-0.85199,0.757004 -2.113998,1.625 -3.664001,2.5c-3.098999,1.75 -7.370987,3.619995 -11.916,5.343994c-9.087997,3.447998 -19.375992,6.281006 -23.943993,6.281006c-4.693001,0 -13.205002,0.341995 -21.895302,-1.406006c-8.689896,-1.748001 -17.533896,-5.602997 -22.954497,-13.843994l-0.553101,0.655991c5.609398,8.528 14.642997,12.392014 23.415496,14.157013c8.773407,1.763992 17.320404,1.436996 21.987404,1.436996c4.788002,0 15.025993,-2.850006 24.152,-6.311996c4.563004,-1.73201 8.837997,-3.630005 11.985001,-5.407013c1.572998,-0.887985 2.858994,-1.744995 3.778992,-2.561996c0.461014,-0.40799 0.837006,-0.810989 1.10701,-1.218994c0.26799,-0.408005 0.436996,-0.820999 0.436996,-1.311996l-0.737,0zm0,10c0,0.130997 -0.052994,0.349991 -0.253006,0.655991c-0.201996,0.306 -0.519989,0.653 -0.945999,1.031006c-0.85199,0.757004 -2.113998,1.625 -3.664001,2.5c-3.098999,1.75 -7.370987,3.619995 -11.916,5.343994c-9.087997,3.447998 -19.375992,6.281006 -23.943993,6.281006c-4.693001,0 -13.205002,0.341995 -21.895302,-1.406006c-8.689896,-1.748001 -17.533896,-5.602997 -22.954497,-13.843994l-0.553101,0.655991c5.609398,8.528 14.642997,12.392014 23.415496,14.157013c8.773407,1.763992 17.320404,1.436996 21.987404,1.436996c4.788002,0 15.025993,-2.850006 24.152,-6.311996c4.563004,-1.73201 8.837997,-3.630005 11.985001,-5.407013c1.572998,-0.887985 2.858994,-1.744995 3.778992,-2.561996c0.461014,-0.40799 0.837006,-0.810989 1.10701,-1.218994c0.26799,-0.408005 0.436996,-0.820999 0.436996,-1.311996l-0.737,0zm0,10c0,0.130997 -0.052994,0.349991 -0.253006,0.655991c-0.201996,0.306 -0.519989,0.653 -0.945999,1.031006c-0.85199,0.757004 -2.113998,1.625 -3.664001,2.5c-3.098999,1.75 -7.370987,3.619995 -11.916,5.343994c-9.087997,3.447998 -19.375992,6.281006 -23.943993,6.281006c-4.693001,0 -13.205002,0.341995 -21.895302,-1.406006c-8.689896,-1.748001 -17.533896,-5.602997 -22.954497,-13.843994l-0.553101,0.655991c5.609398,8.528 14.642997,12.392014 23.415496,14.157013c8.773407,1.763992 17.320404,1.436996 21.987404,1.436996c4.788002,0 15.025993,-2.850006 24.152,-6.311996c4.563004,-1.73201 8.837997,-3.630005 11.985001,-5.407013c1.572998,-0.887985 2.858994,-1.744995 3.778992,-2.561996c0.461014,-0.40799 0.837006,-0.810989 1.10701,-1.218994c0.26799,-0.408005 0.436996,-0.820999 0.436996,-1.311996l-0.737,0zm0,10c0,0.130997 -0.052994,0.349991 -0.253006,0.655991c-0.201996,0.306 -0.519989,0.653 -0.945999,1.031006c-0.85199,0.757004 -2.113998,1.625 -3.664001,2.5c-3.098999,1.75 -7.370987,3.619995 -11.916,5.343994c-9.087997,3.447998 -19.375992,6.281006 -23.943993,6.281006c-4.693001,0 -13.205002,0.341995 -21.895302,-1.406006c-8.689896,-1.748001 -17.533896,-5.602997 -22.954497,-13.843994l-0.553101,0.655991c5.609398,8.528 14.642997,12.392014 23.415496,14.157013c8.773407,1.763992 17.320404,1.436996 21.987404,1.436996c4.788002,0 15.025993,-2.850006 24.152,-6.311996c4.563004,-1.73201 8.837997,-3.630005 11.985001,-5.407013c1.572998,-0.887985 2.858994,-1.744995 3.778992,-2.561996c0.461014,-0.40799 0.837006,-0.810989 1.10701,-1.218994c0.26799,-0.408005 0.436996,-0.820999 0.436996,-1.311996l-0.737,0zm0,10c0,0.130997 -0.052994,0.349991 -0.253006,0.655991c-0.201996,0.306 -0.519989,0.653 -0.945999,1.031006c-0.85199,0.757004 -2.113998,1.625 -3.664001,2.5c-3.098999,1.75 -7.370987,3.619995 -11.916,5.343994c-9.087997,3.447998 -19.375992,6.281013 -23.943993,6.281013c-4.693001,0 -13.205002,0.341995 -21.895302,-1.406006c-8.689896,-1.748009 -17.533896,-5.603004 -22.954497,-13.844002l-0.553101,0.655991c5.609398,8.528 14.642997,12.392014 23.415496,14.157021c8.773407,1.763992 17.320404,1.436996 21.987404,1.436996c4.788002,0 15.025993,-2.850014 24.152,-6.312004c4.563004,-1.73201 8.837997,-3.630005 11.985001,-5.407013c1.572998,-0.887985 2.858994,-1.744995 3.778992,-2.561996c0.461014,-0.40799 0.837006,-0.810989 1.10701,-1.218994c0.26799,-0.408005 0.436996,-0.820999 0.436996,-1.311996l-0.737,0zm0,10c0,0.130997 -0.052994,0.349991 -0.253006,0.655991c-0.201996,0.306 -0.519989,0.653 -0.945999,1.031006c-0.85199,0.757004 -2.113998,1.625 -3.664001,2.500008c-3.098999,1.749985 -7.370987,3.61998 -11.916,5.343994c-9.087997,3.447998 -19.375992,6.281006 -23.943993,6.281006c-4.693001,0 -13.205002,0.341995 -21.895302,-1.406006c-8.689896,-1.748016 -17.533896,-5.602997 -22.954497,-13.844002l-0.553101,0.655991c5.609398,8.528008 14.642997,12.392021 23.415496,14.157021c8.773407,1.763992 17.320404,1.436996 21.987404,1.436996c4.788002,0 15.025993,-2.850006 24.152,-6.312012c4.563004,-1.731995 8.837997,-3.630005 11.985001,-5.407013c1.572998,-0.88797 2.858994,-1.744987 3.778992,-2.561989c0.461014,-0.40799 0.837006,-0.810989 1.10701,-1.218994c0.26799,-0.408005 0.436996,-0.820999 0.436996,-1.311996l-0.737,0zm0,10.000008c0,0.130997 -0.052994,0.349991 -0.253006,0.655975c-0.201996,0.306015 -0.519989,0.653015 -0.945999,1.031006c-0.85199,0.757004 -2.113998,1.625015 -3.664001,2.500015c-3.098999,1.749985 -7.370987,3.61998 -11.916,5.343994c-9.087997,3.447998 -19.375992,6.281006 -23.943993,6.281006c-4.693001,0 -13.205002,0.341995 -21.895302,-1.406006c-8.689896,-1.748016 -17.533896,-5.602997 -22.954497,-13.843994l-0.553101,0.655975c5.609398,8.528015 14.642997,12.392029 23.415496,14.157028c8.773407,1.763992 17.320404,1.436996 21.987404,1.436996c4.788002,0 15.025993,-2.850006 24.152,-6.312012c4.563004,-1.731995 8.837997,-3.630005 11.985001,-5.407013c1.572998,-0.88797 2.858994,-1.74498 3.778992,-2.561981c0.461014,-0.40799 0.837006,-0.811005 1.10701,-1.218994c0.26799,-0.40802 0.436996,-0.821014 0.436996,-1.311996l-0.737,0zm0,10c0,0.130997 -0.052994,0.349991 -0.253006,0.655975c-0.201996,0.306015 -0.519989,0.653015 -0.945999,1.031006c-0.85199,0.757004 -2.113998,1.625015 -3.664001,2.500015c-3.098999,1.749985 -7.370987,3.61998 -11.916,5.343994c-9.087997,3.447998 -19.375992,6.281006 -23.943993,6.281006c-4.693001,0 -13.205002,0.341995 -21.895302,-1.406006c-8.689896,-1.748016 -17.533896,-5.602997 -22.954497,-13.843994l-0.553101,0.655975c5.609398,8.528015 14.642997,12.392029 23.415496,14.157028c8.773407,1.763992 17.320404,1.436996 21.987404,1.436996c4.788002,0 15.025993,-2.850006 24.152,-6.312012c4.563004,-1.731995 8.837997,-3.630005 11.985001,-5.407013c1.572998,-0.88797 2.858994,-1.74498 3.778992,-2.561981c0.461014,-0.40799 0.837006,-0.811005 1.10701,-1.218994c0.26799,-0.40802 0.436996,-0.821014 0.436996,-1.311996l-0.737,0z"/>
      <path fill="#57ffff" stroke-width="1px" id="svg_115" d="m86.356003,73.315407c0,0.130997 -0.052994,0.381989 -0.253006,0.686996c-0.201996,0.306 -0.519989,0.653 -0.945999,1.030991c-0.85199,0.757004 -2.113998,1.594009 -3.664001,2.469009c-3.098999,1.75 -7.370987,3.651001 -11.916,5.375c-9.087997,3.449005 -19.375992,6.25 -23.943993,6.25c-4.693001,0 -13.205002,0.341995 -21.895302,-1.406006c-8.689896,-1.748001 -17.533896,-5.571991 -22.954497,-13.813004l-0.553101,0.657013c5.609398,8.526993 14.642997,12.391998 23.415496,14.155991c8.773407,1.764008 17.320404,1.406006 21.987404,1.406006c4.788002,0 15.025993,-2.818008 24.152,-6.281006c4.563004,-1.731003 8.837997,-3.62999 11.985001,-5.405991c1.572998,-0.889008 2.858994,-1.746002 3.778992,-2.563004c0.461014,-0.408005 0.837006,-0.811005 1.10701,-1.219009c0.26799,-0.40799 0.436996,-0.85199 0.436996,-1.342987l-0.737,0zm0,10c0,0.130997 -0.052994,0.381989 -0.253006,0.686996c-0.201996,0.306 -0.519989,0.653 -0.945999,1.030991c-0.85199,0.757004 -2.113998,1.594009 -3.664001,2.469009c-3.098999,1.75 -7.370987,3.651001 -11.916,5.375c-9.087997,3.449005 -19.375992,6.25 -23.943993,6.25c-4.693001,0 -13.205002,0.341995 -21.895302,-1.406006c-8.689896,-1.748001 -17.533896,-5.571991 -22.954497,-13.813004l-0.553101,0.657013c5.609398,8.526993 14.642997,12.391998 23.415496,14.155991c8.773407,1.764008 17.320404,1.406006 21.987404,1.406006c4.788002,0 15.025993,-2.818008 24.152,-6.281006c4.563004,-1.731003 8.837997,-3.62999 11.985001,-5.405991c1.572998,-0.889008 2.858994,-1.746002 3.778992,-2.563004c0.461014,-0.408005 0.837006,-0.811005 1.10701,-1.219009c0.26799,-0.40799 0.436996,-0.85199 0.436996,-1.342987l-0.737,0zm0,10c0,0.130997 -0.052994,0.381989 -0.253006,0.686996c-0.201996,0.306 -0.519989,0.653 -0.945999,1.030991c-0.85199,0.757004 -2.113998,1.594009 -3.664001,2.469009c-3.098999,1.75 -7.370987,3.651001 -11.916,5.375c-9.087997,3.449005 -19.375992,6.25 -23.943993,6.25c-4.693001,0 -13.205002,0.341995 -21.895302,-1.406006c-8.689896,-1.748001 -17.533896,-5.571991 -22.954497,-13.813004l-0.553101,0.657013c5.609398,8.526993 14.642997,12.391998 23.415496,14.155991c8.773407,1.764008 17.320404,1.406006 21.987404,1.406006c4.788002,0 15.025993,-2.818008 24.152,-6.281006c4.563004,-1.731003 8.837997,-3.62999 11.985001,-5.405991c1.572998,-0.889008 2.858994,-1.746002 3.778992,-2.563004c0.461014,-0.408005 0.837006,-0.811005 1.10701,-1.219009c0.26799,-0.40799 0.436996,-0.85199 0.436996,-1.342987l-0.737,0zm0,10c0,0.130997 -0.052994,0.381989 -0.253006,0.686996c-0.201996,0.306 -0.519989,0.653 -0.945999,1.030991c-0.85199,0.757004 -2.113998,1.594009 -3.664001,2.469009c-3.098999,1.75 -7.370987,3.651001 -11.916,5.375c-9.087997,3.449005 -19.375992,6.25 -23.943993,6.25c-4.693001,0 -13.205002,0.341995 -21.895302,-1.406006c-8.689896,-1.748001 -17.533896,-5.571991 -22.954497,-13.813004l-0.553101,0.657013c5.609398,8.526993 14.642997,12.391998 23.415496,14.155991c8.773407,1.764008 17.320404,1.406006 21.987404,1.406006c4.788002,0 15.025993,-2.818008 24.152,-6.281006c4.563004,-1.731003 8.837997,-3.62999 11.985001,-5.405991c1.572998,-0.889008 2.858994,-1.746002 3.778992,-2.563004c0.461014,-0.408005 0.837006,-0.811005 1.10701,-1.219009c0.26799,-0.40799 0.436996,-0.85199 0.436996,-1.342987l-0.737,0zm0,10c0,0.130997 -0.052994,0.381989 -0.253006,0.686996c-0.201996,0.306 -0.519989,0.653 -0.945999,1.030991c-0.85199,0.757004 -2.113998,1.594009 -3.664001,2.469009c-3.098999,1.75 -7.370987,3.651001 -11.916,5.375c-9.087997,3.449005 -19.375992,6.250008 -23.943993,6.250008c-4.693001,0 -13.205002,0.34198 -21.895302,-1.406013c-8.689896,-1.748001 -17.533896,-5.571991 -22.954497,-13.813004l-0.553101,0.657013c5.609398,8.526993 14.642997,12.391998 23.415496,14.155983c8.773407,1.764023 17.320404,1.406021 21.987404,1.406021c4.788002,0 15.025993,-2.818016 24.152,-6.281013c4.563004,-1.731003 8.837997,-3.62999 11.985001,-5.405991c1.572998,-0.889008 2.858994,-1.746002 3.778992,-2.563004c0.461014,-0.408005 0.837006,-0.811005 1.10701,-1.219009c0.26799,-0.40799 0.436996,-0.85199 0.436996,-1.342987l-0.737,0zm0,10c0,0.130997 -0.052994,0.381989 -0.253006,0.686996c-0.201996,0.306 -0.519989,0.653 -0.945999,1.030991c-0.85199,0.757004 -2.113998,1.594009 -3.664001,2.469009c-3.098999,1.750008 -7.370987,3.651009 -11.916,5.375008c-9.087997,3.449005 -19.375992,6.25 -23.943993,6.25c-4.693001,0 -13.205002,0.34198 -21.895302,-1.406021c-8.689896,-1.747986 -17.533896,-5.571976 -22.954497,-13.812996l-0.553101,0.657013c5.609398,8.527 14.642997,12.392006 23.415496,14.155983c8.773407,1.764023 17.320404,1.406021 21.987404,1.406021c4.788002,0 15.025993,-2.818024 24.152,-6.281006c4.563004,-1.731018 8.837997,-3.62999 11.985001,-5.406006c1.572998,-0.889 2.858994,-1.745995 3.778992,-2.562996c0.461014,-0.408005 0.837006,-0.811005 1.10701,-1.219009c0.26799,-0.40799 0.436996,-0.85199 0.436996,-1.342987l-0.737,0zm0,9.999992c0,0.131012 -0.052994,0.382004 -0.253006,0.687012c-0.201996,0.306 -0.519989,0.653 -0.945999,1.030975c-0.85199,0.757019 -2.113998,1.594025 -3.664001,2.469009c-3.098999,1.750015 -7.370987,3.651016 -11.916,5.375015c-9.087997,3.449005 -19.375992,6.25 -23.943993,6.25c-4.693001,0 -13.205002,0.34198 -21.895302,-1.406021c-8.689896,-1.747986 -17.533896,-5.571976 -22.954497,-13.813004l-0.553101,0.657028c5.609398,8.526993 14.642997,12.391998 23.415496,14.155975c8.773407,1.764023 17.320404,1.406021 21.987404,1.406021c4.788002,0 15.025993,-2.818024 24.152,-6.281006c4.563004,-1.731018 8.837997,-3.62999 11.985001,-5.406006c1.572998,-0.889008 2.858994,-1.745987 3.778992,-2.562988c0.461014,-0.40802 0.837006,-0.811005 1.10701,-1.219025c0.26799,-0.40799 0.436996,-0.85199 0.436996,-1.342987l-0.737,0zm0,10c0,0.131012 -0.052994,0.382004 -0.253006,0.687012c-0.201996,0.306 -0.519989,0.653 -0.945999,1.030975c-0.85199,0.757019 -2.113998,1.594025 -3.664001,2.469009c-3.098999,1.750015 -7.370987,3.651016 -11.916,5.375015c-9.087997,3.449005 -19.375992,6.25 -23.943993,6.25c-4.693001,0 -13.205002,0.34198 -21.895302,-1.406021c-8.689896,-1.747986 -17.533896,-5.571976 -22.954497,-13.813004l-0.553101,0.657028c5.609398,8.526993 14.642997,12.391998 23.415496,14.155975c8.773407,1.764023 17.320404,1.406021 21.987404,1.406021c4.788002,0 15.025993,-2.818024 24.152,-6.281006c4.563004,-1.731018 8.837997,-3.62999 11.985001,-5.406006c1.572998,-0.889008 2.858994,-1.745987 3.778992,-2.562988c0.461014,-0.40802 0.837006,-0.811005 1.10701,-1.219025c0.26799,-0.40799 0.436996,-0.85199 0.436996,-1.342987l-0.737,0z"/>
     </g>
     <g id="svg_109">
      <path fill="url(#svg_113)" fill-rule="evenodd" stroke-width="1px" id="svg_112" d="m43.619003,0c-10.230003,0 -18.537697,2.557301 -18.813797,5.7486l-0.023102,21.306004c0.138397,3.230194 8.518898,5.851799 18.836899,5.851799c10.405998,0 18.839005,-2.667099 18.839005,-5.934303l0,-21.058696c0,-3.267101 -8.433006,-5.913403 -18.839005,-5.913403l0,0z" stroke="#999999"/>
      <path fill="url(#svg_111)" fill-rule="evenodd" d="m43.619003,0c-10.230003,0 -18.537697,2.557301 -18.813797,5.7486c-0.169701,1.804703 4.055099,5.3988 18.813797,5.3988c16.231003,0.034302 18.839005,-2.283298 18.839005,-5.233997c0,-3.267101 -8.433006,-5.913403 -18.839005,-5.913403l0,0z" id="svg_110" stroke="#b3b3b3"/>
     </g>
    </g>
   </g>
  </symbol>
 </defs>
 <g>
  <title>Layer 1</title>
  <path id="path7949" d="m538.625549,471.691589l-4.734619,2.200684l-5.036743,-2.107544l1.578186,-205.152283l8.985046,0.317078" fill="#ffffff"/>
  <path d="m32.903519,30.336212c0,0 7.515114,117.549301 27.296211,142.379745c19.78109,24.830444 43.735901,68.678864 43.735901,68.678864l-71.032112,-211.058609z" id="path3892" stroke-width="0.997258px" stroke="#000000" fill="none"/>
  <path d="m103.967255,245.467087c0,0 -90.913727,-207.081268 -81.822357,-216.172653c9.091373,-9.09137 343.451874,9.091385 351.533081,22.223358c8.081207,13.131989 43.436554,192.939133 43.436554,192.939133l-313.147278,1.010162z" id="path3877" stroke-width="1px" stroke="#000000" fill="none"/>
  <path id="path3879" d="m103.967255,245.467087c0,0 -90.913727,-207.081268 -81.822357,-216.172653c9.091373,-9.09137 343.451874,9.091385 351.533081,22.223358c8.081207,13.131989 43.436554,192.939133 43.436554,192.939133l-313.147278,1.010162z" stroke-width="1px" stroke="#000000" fill="#ffffff"/>
  <path d="m111.019249,229.351273c0,0 -83.601044,-185.162643 -75.240952,-193.291733c8.360107,-8.129089 315.826195,8.129105 323.257378,19.871124c7.431213,11.742004 39.942719,172.51738 39.942719,172.51738l-287.959129,0.903229l-0.000015,0z" id="path3881" stroke-width="0.906771px" stroke="#000000" fill="#dcdcdc"/>
  <path d="m176.698242,28.284271l-23.233505,-28.284271l75.761429,7.071075l14.142136,28.284272l-66.670059,-7.071075z" id="path3894" stroke-width="1px" stroke="#000000" fill="none"/>
  <path d="m154.474884,2.020309c0,0 -5.050766,11.11168 -1.010147,13.13199c4.040604,2.020308 17.172592,16.162446 17.172592,16.162446l7.07106,0" id="path3896" stroke-width="1px" stroke="#000000" fill="#cccccc"/>
  <path id="path3898" d="m210.033295,15.657375c0,3.626297 -4.070358,6.565994 -9.091385,6.565994c-5.021027,0 -9.09137,-2.939697 -9.09137,-6.565994c0,-3.626297 4.070343,-6.565993 9.09137,-6.565993c5.021027,0 9.091385,2.939696 9.091385,6.565993z" fill="#cccccc"/>
  <g id="g3902">
   <path d="m135.281982,80.307152c0,17.015709 -13.567818,30.809662 -30.304573,30.809662c-16.736755,0 -30.304573,-13.793953 -30.304573,-30.809662c0,-17.015697 13.567818,-30.809654 30.304573,-30.809654c16.736755,0 30.304573,13.793949 30.304573,30.809654z" id="path3883" fill="#cccccc"/>
   <path id="path3885" d="m114.243408,55.603958c10.641899,2.882553 18.5,12.958817 18.5,24.9375c0,14.226242 -11.08165,25.75 -24.75,25.75c-4.094543,0 -7.941994,-1.042786 -11.34375,-2.875c2.014023,0.550949 4.132332,0.84375 6.3125,0.84375c13.66835,0 24.75,-11.523758 24.75,-25.75c0,-9.987213 -5.485268,-18.632294 -13.46875,-22.90625z" fill="#f9f9f9"/>
   <path d="m97.149658,55.603958c-10.641899,2.882553 -18.499992,12.958817 -18.499992,24.9375c0,14.226242 11.081642,25.75 24.749992,25.75c4.094543,0 7.941994,-1.042786 11.34375,-2.875c-2.014023,0.550949 -4.132332,0.84375 -6.3125,0.84375c-13.66835,0 -24.75,-11.523758 -24.75,-25.75c0,-9.987213 5.485268,-18.632294 13.46875,-22.90625z" id="path3890" fill="#f9f9f9"/>
   <path d="m120.1297,79.802063c0,11.715729 -7.914558,21.213203 -17.677666,21.213203c-9.763107,0 -17.677666,-9.497475 -17.677666,-21.213203c0,-11.715729 7.914558,-21.213203 17.677666,-21.213203c9.763107,0 17.677666,9.497475 17.677666,21.213203z" id="path3900" fill="#e8e8e8"/>
  </g>
  <g transform="matrix(0.858579 0 0 0.860897 130.719 29.9605)" id="g3918">
   <path d="m135.934601,59.939735c0,17.015709 -13.56781,30.809654 -30.304565,30.809654c-16.736755,0 -30.304573,-13.793945 -30.304573,-30.809654c0,-17.015705 13.567818,-30.809656 30.304573,-30.809656c16.736755,0 30.304565,13.793951 30.304565,30.809656z" id="path3920" fill="#cccccc"/>
   <path id="path3922" d="m114.896027,35.236538c10.641907,2.882553 18.5,12.958817 18.5,24.9375c0,14.226246 -11.08165,25.750004 -24.75,25.750004c-4.094543,0 -7.941986,-1.042786 -11.34375,-2.875c2.01403,0.550949 4.132339,0.84375 6.3125,0.84375c13.66835,0 24.75,-11.523758 24.75,-25.750004c0,-9.987213 -5.48526,-18.632294 -13.46875,-22.90625z" fill="#f9f9f9"/>
   <path d="m97.802277,35.236538c-10.641891,2.882553 -18.5,12.958817 -18.5,24.9375c0,14.226246 11.081657,25.750004 24.750008,25.750004c4.094536,0 7.941994,-1.042786 11.34375,-2.875c-2.014023,0.550949 -4.132332,0.84375 -6.3125,0.84375c-13.668358,0 -24.750008,-11.523758 -24.750008,-25.750004c0,-9.987213 5.485275,-18.632294 13.46875,-22.90625z" id="path3924" fill="#f9f9f9"/>
   <path d="m120.782318,59.434639c0,11.715736 -7.914551,21.213211 -17.677658,21.213211c-9.763115,0 -17.677673,-9.497475 -17.677673,-21.213211c0,-11.715729 7.914558,-21.213203 17.677673,-21.213203c9.763107,0 17.677658,9.497475 17.677658,21.213203z" id="path3926" fill="#e8e8e8"/>
  </g>
  <g transform="matrix(0.717157 0 0 0.768162 236.959 51.2401)" id="g3938">
   <path d="m136.84465,42.263416c0,17.015705 -13.567825,30.809658 -30.304581,30.809658c-16.736748,0 -30.304573,-13.793953 -30.304573,-30.809658c0,-17.015701 13.567825,-30.809653 30.304573,-30.809653c16.736755,0 30.304581,13.793952 30.304581,30.809653z" id="path3940" fill="#cccccc"/>
   <path id="path3942" d="m115.806076,17.560223c10.641891,2.882553 18.5,12.95882 18.5,24.9375c0,14.226242 -11.081657,25.750004 -24.75,25.750004c-4.094551,0 -7.942001,-1.042786 -11.34375,-2.875c2.014023,0.550949 4.132332,0.84375 6.3125,0.84375c13.66835,0 24.75,-11.523762 24.75,-25.750004c0,-9.987213 -5.485275,-18.632294 -13.46875,-22.90625z" fill="#f9f9f9"/>
   <path d="m98.712326,17.560223c-10.641899,2.882553 -18.5,12.95882 -18.5,24.9375c0,14.226242 11.08165,25.750004 24.75,25.750004c4.094543,0 7.941994,-1.042786 11.34375,-2.875c-2.014023,0.550949 -4.132339,0.84375 -6.3125,0.84375c-13.66835,0 -24.75,-11.523762 -24.75,-25.750004c0,-9.987213 5.48526,-18.632294 13.46875,-22.90625z" id="path3944" fill="#f9f9f9"/>
   <path d="m121.692368,41.758327c0,11.715729 -7.914566,21.2132 -17.677666,21.2132c-9.763115,0 -17.677673,-9.497471 -17.677673,-21.2132c0,-11.715731 7.914558,-21.213205 17.677673,-21.213205c9.7631,0 17.677666,9.497473 17.677666,21.213205z" id="path3946" fill="#e8e8e8"/>
  </g>
  <g id="g3970">
   <path id="path3972" d="m169.567703,166.735718c0,17.015717 -13.567825,30.809662 -30.304581,30.809662c-16.736755,0 -30.304573,-13.793945 -30.304573,-30.809662c0,-17.015686 13.567818,-30.809647 30.304573,-30.809647c16.736755,0 30.304581,13.793945 30.304581,30.809647z" fill="#cccccc"/>
   <path d="m148.529129,142.032532c10.641891,2.882553 18.499985,12.958817 18.499985,24.9375c0,14.226242 -11.081635,25.75 -24.75,25.75c-4.094543,0 -7.941986,-1.042786 -11.343735,-2.875c2.014023,0.550949 4.132324,0.84375 6.3125,0.84375c13.66835,0 24.75,-11.523758 24.75,-25.75c0,-9.987213 -5.485275,-18.632294 -13.46875,-22.90625z" id="path3974" fill="#f9f9f9"/>
   <path id="path3976" d="m131.435364,142.032532c-10.641891,2.882553 -18.499985,12.958817 -18.499985,24.9375c0,14.226242 11.081642,25.75 24.749985,25.75c4.094543,0 7.942001,-1.042786 11.34375,-2.875c-2.014008,0.550949 -4.132324,0.84375 -6.3125,0.84375c-13.668335,0 -24.749992,-11.523758 -24.749992,-25.75c0,-9.987213 5.485268,-18.632294 13.468742,-22.90625z" fill="#f9f9f9"/>
   <path id="path3978" d="m154.415421,166.230637c0,11.715729 -7.914566,21.213196 -17.677673,21.213196c-9.763107,0 -17.677673,-9.497467 -17.677673,-21.213196c0,-11.715729 7.914566,-21.213211 17.677673,-21.213211c9.763107,0 17.677673,9.497482 17.677673,21.213211z" fill="#e8e8e8"/>
  </g>
  <g id="g3980" transform="matrix(0.858579 0 0 0.860897 165.005 116.389)">
   <path id="path3982" d="m135.934601,59.939735c0,17.015709 -13.56781,30.809654 -30.304565,30.809654c-16.736755,0 -30.304573,-13.793945 -30.304573,-30.809654c0,-17.015705 13.567818,-30.809656 30.304573,-30.809656c16.736755,0 30.304565,13.793951 30.304565,30.809656z" fill="#cccccc"/>
   <path d="m114.896027,35.236538c10.641907,2.882553 18.5,12.958817 18.5,24.9375c0,14.226246 -11.08165,25.750004 -24.75,25.750004c-4.094543,0 -7.941986,-1.042786 -11.34375,-2.875c2.01403,0.550949 4.132339,0.84375 6.3125,0.84375c13.66835,0 24.75,-11.523758 24.75,-25.750004c0,-9.987213 -5.48526,-18.632294 -13.46875,-22.90625z" id="path3984" fill="#f9f9f9"/>
   <path id="path3986" d="m97.802277,35.236538c-10.641891,2.882553 -18.5,12.958817 -18.5,24.9375c0,14.226246 11.081657,25.750004 24.750008,25.750004c4.094536,0 7.941994,-1.042786 11.34375,-2.875c-2.014023,0.550949 -4.132332,0.84375 -6.3125,0.84375c-13.668358,0 -24.750008,-11.523758 -24.750008,-25.750004c0,-9.987213 5.485275,-18.632294 13.46875,-22.90625z" fill="#f9f9f9"/>
   <path id="path3988" d="m120.782318,59.434639c0,11.715736 -7.914551,21.213211 -17.677658,21.213211c-9.763115,0 -17.677673,-9.497475 -17.677673,-21.213211c0,-11.715729 7.914558,-21.213203 17.677673,-21.213203c9.763107,0 17.677658,9.497475 17.677658,21.213203z" fill="#e8e8e8"/>
  </g>
  <g id="g3990" transform="matrix(0.717157 0 0 0.768162 271.244 137.669)">
   <path id="path3992" d="m136.84465,42.263416c0,17.015705 -13.567825,30.809658 -30.304581,30.809658c-16.736748,0 -30.304573,-13.793953 -30.304573,-30.809658c0,-17.015701 13.567825,-30.809653 30.304573,-30.809653c16.736755,0 30.304581,13.793952 30.304581,30.809653z" fill="#cccccc"/>
   <path d="m115.806076,17.560223c10.641891,2.882553 18.5,12.95882 18.5,24.9375c0,14.226242 -11.081657,25.750004 -24.75,25.750004c-4.094551,0 -7.942001,-1.042786 -11.34375,-2.875c2.014023,0.550949 4.132332,0.84375 6.3125,0.84375c13.66835,0 24.75,-11.523762 24.75,-25.750004c0,-9.987213 -5.485275,-18.632294 -13.46875,-22.90625z" id="path3994" fill="#f9f9f9"/>
   <path id="path3996" d="m98.712326,17.560223c-10.641899,2.882553 -18.5,12.95882 -18.5,24.9375c0,14.226242 11.08165,25.750004 24.75,25.750004c4.094543,0 7.941994,-1.042786 11.34375,-2.875c-2.014023,0.550949 -4.132339,0.84375 -6.3125,0.84375c-13.66835,0 -24.75,-11.523762 -24.75,-25.750004c0,-9.987213 5.48526,-18.632294 13.46875,-22.90625z" fill="#f9f9f9"/>
   <path id="path3998" d="m121.692368,41.758327c0,11.715729 -7.914566,21.2132 -17.677666,21.2132c-9.763115,0 -17.677673,-9.497471 -17.677673,-21.2132c0,-11.715731 7.914558,-21.213205 17.677673,-21.213205c9.7631,0 17.677666,9.497473 17.677666,21.213205z" fill="#e8e8e8"/>
  </g>
  <g transform="matrix(0.902296 -0.431116 0.431116 0.902296 419.894 -124.143)" id="g5988">
   <g id="g5990" transform="matrix(1 0.000645406 -0.000645406 1 -31.8325 245.46)" stroke-miterlimit="4" stroke-width="0.344" stroke="#000000" fill="#cccccc" opacity="0.715976">
    <path id="path5992" d="m-170.460327,81.129417l5.995544,-7.177078l0,24.082504l-5.995544,4.273773l0,-21.179199z" fill-rule="evenodd" fill="#e9e9ff"/>
    <path id="path5994" d="m-194.239777,78.563759l0,21.959854l23.779449,1.785019l0,-21.179199l-23.779449,-2.565674z" fill-rule="evenodd" fill="#353564"/>
    <path id="path5996" d="m-194.239777,78.563759l2.851044,-7.845947l26.92395,3.234543l-5.995544,7.177078l-23.779449,-2.565674z" fill-rule="evenodd" fill="#4d4d9f"/>
    <path id="path5998" d="m-194.239777,100.523598l2.851044,-4.708817l26.92395,2.220062l-5.995544,4.273773l-23.779449,-1.785019z" fill-rule="evenodd" fill="#afafde"/>
    <path id="path6000" d="m-191.388718,70.717812l0,25.096985l26.923935,2.220047l0,-24.082504l-26.923935,-3.234528z" fill-rule="evenodd" fill="#d7d7ff"/>
    <path id="path6002" d="m-194.239777,78.563759l2.851044,-7.845947l0,25.096985l-2.851044,4.708817l0,-21.959854z" fill-rule="evenodd" fill="#8686bf"/>
   </g>
   <g id="g6004" transform="matrix(0.998787 0.0492434 -0.0492434 0.998787 70.4767 327.783)" stroke-miterlimit="4" stroke-width="0.344" stroke="#000000" fill="#cccccc" opacity="0.715976">
    <path id="path6006" d="m-175.974945,78.4506l5.995544,-7.177078l0,24.082504l-5.995544,4.273773l0,-21.179199z" fill-rule="evenodd" fill="#e9e9ff"/>
    <path id="path6008" d="m-199.754379,75.884941l0,21.959854l23.779434,1.785019l0,-21.179199l-23.779434,-2.565674z" fill-rule="evenodd" fill="#353564"/>
    <path id="path6010" d="m-199.754379,75.884941l2.851044,-7.845947l26.923935,3.234543l-5.995544,7.177078l-23.779434,-2.565674z" fill-rule="evenodd" fill="#4d4d9f"/>
    <path id="path6012" d="m-199.754379,97.84478l2.851044,-4.708817l26.923935,2.220062l-5.995544,4.273773l-23.779434,-1.785019z" fill-rule="evenodd" fill="#afafde"/>
    <path id="path6014" d="m-196.90332,68.038994l0,25.096985l26.923935,2.220047l0,-24.082504l-26.923935,-3.234528z" fill-rule="evenodd" fill="#d7d7ff"/>
    <path id="path6016" d="m-199.754379,75.884941l2.851044,-7.845947l0,25.096985l-2.851044,4.708817l0,-21.959854z" fill-rule="evenodd" fill="#8686bf"/>
   </g>
   <g id="g6018" transform="matrix(0.994309 0.10654 -0.10654 0.994309 55.0443 311.612)" stroke-miterlimit="4" stroke-width="0.344" stroke="#000000" fill="#cccccc" opacity="0.715976">
    <path id="path6020" d="m-182.653152,75.633797l5.995544,-7.177078l0,24.082497l-5.995544,4.273773l0,-21.179192z" fill-rule="evenodd" fill="#e9e9ff"/>
    <path id="path6022" d="m-206.432587,73.068138l0,21.959854l23.779434,1.785011l0,-21.179192l-23.779434,-2.565674z" fill-rule="evenodd" fill="#353564"/>
    <path id="path6024" d="m-206.432587,73.068138l2.851044,-7.845947l26.923935,3.234543l-5.995544,7.177078l-23.779434,-2.565674z" fill-rule="evenodd" fill="#4d4d9f"/>
    <path id="path6026" d="m-206.432587,95.027977l2.851044,-4.708824l26.923935,2.220062l-5.995544,4.273773l-23.779434,-1.785011z" fill-rule="evenodd" fill="#afafde"/>
    <path id="path6028" d="m-203.581528,65.222191l0,25.096977l26.923935,2.220047l0,-24.082497l-26.923935,-3.234528z" fill-rule="evenodd" fill="#d7d7ff"/>
    <path id="path6030" d="m-206.432587,73.068138l2.851044,-7.845947l0,25.096977l-2.851044,4.708824l0,-21.959854z" fill-rule="evenodd" fill="#8686bf"/>
   </g>
   <g id="g6032" transform="matrix(0.997442 0.0714883 -0.0714883 0.997442 34.4429 280.998)" stroke-miterlimit="4" stroke-width="0.344" stroke="#000000" fill="#cccccc" opacity="0.715976">
    <path id="path6034" d="m-178.544937,77.312943l5.995544,-7.177078l0,24.082504l-5.995544,4.273773l0,-21.179199z" fill-rule="evenodd" fill="#e9e9ff"/>
    <path id="path6036" d="m-202.324371,74.747284l0,21.959854l23.779434,1.785019l0,-21.179199l-23.779434,-2.565674z" fill-rule="evenodd" fill="#353564"/>
    <path id="path6038" d="m-202.324371,74.747284l2.851044,-7.845947l26.923935,3.234543l-5.995544,7.177078l-23.779434,-2.565674z" fill-rule="evenodd" fill="#4d4d9f"/>
    <path id="path6040" d="m-202.324371,96.707123l2.851044,-4.708817l26.923935,2.220062l-5.995544,4.273773l-23.779434,-1.785019z" fill-rule="evenodd" fill="#afafde"/>
    <path id="path6042" d="m-199.473312,66.901337l0,25.096985l26.923935,2.220047l0,-24.082504l-26.923935,-3.234528z" fill-rule="evenodd" fill="#d7d7ff"/>
    <path id="path6044" d="m-202.324371,74.747284l2.851044,-7.845947l0,25.096985l-2.851044,4.708817l0,-21.959854z" fill-rule="evenodd" fill="#8686bf"/>
   </g>
   <g id="g6046" transform="matrix(0.960719 0.277522 -0.277522 0.960719 77.313 326.095)" stroke-miterlimit="4" stroke-width="0.344" stroke="#000000" fill="#cccccc" opacity="0.715976">
    <path id="path6048" d="m-203.753418,69.493736l5.995544,-7.177074l0,24.0825l-5.995544,4.273773l0,-21.179199z" fill-rule="evenodd" fill="#e9e9ff"/>
    <path id="path6050" d="m-227.532852,66.928078l0,21.959854l23.779434,1.785019l0,-21.179199l-23.779434,-2.565674z" fill-rule="evenodd" fill="#353564"/>
    <path id="path6052" d="m-227.532852,66.928078l2.851044,-7.845943l26.923935,3.234543l-5.995544,7.177074l-23.779434,-2.565674z" fill-rule="evenodd" fill="#4d4d9f"/>
    <path id="path6054" d="m-227.532852,88.887917l2.851044,-4.708817l26.923935,2.220062l-5.995544,4.273773l-23.779434,-1.785019z" fill-rule="evenodd" fill="#afafde"/>
    <path id="path6056" d="m-224.681793,59.082134l0,25.096981l26.923935,2.220047l0,-24.0825l-26.923935,-3.234528z" fill-rule="evenodd" fill="#d7d7ff"/>
    <path id="path6058" d="m-227.532852,66.928078l2.851044,-7.845943l0,25.096981l-2.851044,4.708817l0,-21.959854z" fill-rule="evenodd" fill="#8686bf"/>
   </g>
   <g id="g6060" transform="matrix(0.900829 -0.434175 0.434175 0.900829 -62.9006 163.745)" stroke-miterlimit="4" stroke-width="0.344" stroke="#000000" fill="#cccccc" opacity="0.715976">
    <path id="path6062" d="m-127.491928,117.42347l5.995544,-7.177078l0,24.082512l-5.995544,4.273773l0,-21.179207z" fill-rule="evenodd" fill="#e9e9ff"/>
    <path id="path6064" d="m-151.271362,114.857811l0,21.959862l23.779434,1.785019l0,-21.179207l-23.779434,-2.565674z" fill-rule="evenodd" fill="#353564"/>
    <path id="path6066" d="m-151.271362,114.857811l2.851044,-7.845947l26.923935,3.234543l-5.995544,7.177078l-23.779434,-2.565674z" fill-rule="evenodd" fill="#4d4d9f"/>
    <path id="path6068" d="m-151.271362,136.817657l2.851044,-4.708817l26.923935,2.220062l-5.995544,4.273773l-23.779434,-1.785019z" fill-rule="evenodd" fill="#afafde"/>
    <path id="path6070" d="m-148.420303,107.011864l0,25.096992l26.923935,2.220047l0,-24.082512l-26.923935,-3.234528z" fill-rule="evenodd" fill="#d7d7ff"/>
    <path id="path6072" d="m-151.271362,114.857811l2.851044,-7.845947l0,25.096992l-2.851044,4.708817l0,-21.959862z" fill-rule="evenodd" fill="#8686bf"/>
   </g>
   <g id="g6074" transform="matrix(0.99681 0.079808 -0.079808 0.99681 -27.7715 257.325)" stroke-miterlimit="4" stroke-width="0.344" stroke="#000000" fill="#cccccc" opacity="0.715976">
    <path id="path6076" d="m-179.513519,76.901779l5.995544,-7.177078l0,24.082504l-5.995544,4.273773l0,-21.179199z" fill-rule="evenodd" fill="#e9e9ff"/>
    <path id="path6078" d="m-203.292953,74.336121l0,21.959854l23.779434,1.785019l0,-21.179199l-23.779434,-2.565674z" fill-rule="evenodd" fill="#353564"/>
    <path id="path6080" d="m-203.292953,74.336121l2.851044,-7.845947l26.923935,3.234543l-5.995544,7.177078l-23.779434,-2.565674z" fill-rule="evenodd" fill="#4d4d9f"/>
    <path id="path6082" d="m-203.292953,96.295959l2.851044,-4.708817l26.923935,2.220062l-5.995544,4.273773l-23.779434,-1.785019z" fill-rule="evenodd" fill="#afafde"/>
    <path id="path6084" d="m-200.441895,66.490173l0,25.096985l26.923935,2.220047l0,-24.082504l-26.923935,-3.234528z" fill-rule="evenodd" fill="#d7d7ff"/>
    <path id="path6086" d="m-203.292953,74.336121l2.851044,-7.845947l0,25.096985l-2.851044,4.708817l0,-21.959854z" fill-rule="evenodd" fill="#8686bf"/>
   </g>
   <g id="g6088" transform="matrix(0.999203 0.0399081 -0.0399081 0.999203 34.9664 256.084)" stroke-miterlimit="4" stroke-width="0.344" stroke="#000000" fill="#cccccc" opacity="0.715976">
    <path id="path6090" d="m-174.904999,78.944618l5.995544,-7.177078l0,24.082504l-5.995544,4.273773l0,-21.179199z" fill-rule="evenodd" fill="#e9e9ff"/>
    <path id="path6092" d="m-198.684433,76.378952l0,21.959854l23.779434,1.785019l0,-21.179192l-23.779434,-2.565681z" fill-rule="evenodd" fill="#353564"/>
    <path id="path6094" d="m-198.684433,76.378952l2.851044,-7.845947l26.923935,3.23455l-5.995544,7.177078l-23.779434,-2.565681z" fill-rule="evenodd" fill="#4d4d9f"/>
    <path id="path6096" d="m-198.684433,98.338791l2.851044,-4.708817l26.923935,2.22007l-5.995544,4.273773l-23.779434,-1.785027z" fill-rule="evenodd" fill="#afafde"/>
    <path id="path6098" d="m-195.833374,68.533005l0,25.096985l26.923935,2.220055l0,-24.082504l-26.923935,-3.234535z" fill-rule="evenodd" fill="#d7d7ff"/>
    <path id="path6100" d="m-198.684433,76.378952l2.851044,-7.845947l0,25.096985l-2.851044,4.708817l0,-21.959854z" fill-rule="evenodd" fill="#8686bf"/>
   </g>
   <g id="g6102" transform="matrix(0.981751 0.190172 -0.190172 0.981751 39.8285 307.13)" stroke-miterlimit="4" stroke-width="0.344" stroke="#000000" fill="#cccccc" opacity="0.715976">
    <path id="path6104" d="m-192.74971,72.196762l5.995544,-7.177078l0,24.082504l-5.995544,4.273773l0,-21.179199z" fill-rule="evenodd" fill="#e9e9ff"/>
    <path id="path6106" d="m-216.529144,69.631104l0,21.959854l23.779434,1.785019l0,-21.179199l-23.779434,-2.565674z" fill-rule="evenodd" fill="#353564"/>
    <path id="path6108" d="m-216.529144,69.631104l2.851044,-7.845947l26.923935,3.234543l-5.995544,7.177078l-23.779434,-2.565674z" fill-rule="evenodd" fill="#4d4d9f"/>
    <path id="path6110" d="m-216.529144,91.590942l2.851044,-4.708817l26.923935,2.220062l-5.995544,4.273773l-23.779434,-1.785019z" fill-rule="evenodd" fill="#afafde"/>
    <path id="path6112" d="m-213.678085,61.785156l0,25.096985l26.923935,2.220047l0,-24.082504l-26.923935,-3.234528z" fill-rule="evenodd" fill="#d7d7ff"/>
    <path id="path6114" d="m-216.529144,69.631104l2.851044,-7.845947l0,25.096985l-2.851044,4.708817l0,-21.959854z" fill-rule="evenodd" fill="#8686bf"/>
   </g>
   <g id="g6116" transform="matrix(0.97303 -0.230678 0.230678 0.97303 -29.2561 216.082)" stroke-miterlimit="4" stroke-width="0.344" stroke="#000000" fill="#cccccc" opacity="0.715976">
    <path id="path6118" d="m-146.10759,97.54863l5.995544,-7.177078l0,24.082504l-5.995544,4.273773l0,-21.179199z" fill-rule="evenodd" fill="#e9e9ff"/>
    <path id="path6120" d="m-169.887039,94.982971l0,21.959854l23.779449,1.785019l0,-21.179199l-23.779449,-2.565674z" fill-rule="evenodd" fill="#353564"/>
    <path id="path6122" d="m-169.887039,94.982971l2.851044,-7.845947l26.92395,3.234543l-5.995544,7.177078l-23.779449,-2.565674z" fill-rule="evenodd" fill="#4d4d9f"/>
    <path id="path6124" d="m-169.887039,116.94281l2.851044,-4.708817l26.92395,2.220062l-5.995544,4.273773l-23.779449,-1.785019z" fill-rule="evenodd" fill="#afafde"/>
    <path id="path6126" d="m-167.035965,87.137024l0,25.096985l26.92392,2.220047l0,-24.082504l-26.92392,-3.234528z" fill-rule="evenodd" fill="#d7d7ff"/>
    <path id="path6128" d="m-169.887039,94.982971l2.851044,-7.845947l0,25.096985l-2.851044,4.708817l0,-21.959854z" fill-rule="evenodd" fill="#8686bf"/>
   </g>
   <g id="g6130" transform="matrix(0.989905 0.14173 -0.14173 0.989905 -0.403666 317.835)" stroke-miterlimit="4" stroke-width="0.344" stroke="#000000" fill="#cccccc" opacity="0.715976">
    <path id="path6132" d="m-186.850418,74.088913l5.995544,-7.177078l0,24.082504l-5.995544,4.273766l0,-21.179192z" fill-rule="evenodd" fill="#e9e9ff"/>
    <path id="path6134" d="m-210.629852,71.523247l0,21.959854l23.779434,1.785027l0,-21.179199l-23.779434,-2.565681z" fill-rule="evenodd" fill="#353564"/>
    <path id="path6136" d="m-210.629852,71.523247l2.851044,-7.845943l26.923935,3.234547l-5.995544,7.177078l-23.779434,-2.565681z" fill-rule="evenodd" fill="#4d4d9f"/>
    <path id="path6138" d="m-210.629852,93.483086l2.851044,-4.708817l26.923935,2.22007l-5.995544,4.273766l-23.779434,-1.785019z" fill-rule="evenodd" fill="#afafde"/>
    <path id="path6140" d="m-207.778793,63.677303l0,25.096981l26.923935,2.220055l0,-24.082504l-26.923935,-3.234531z" fill-rule="evenodd" fill="#d7d7ff"/>
    <path id="path6142" d="m-210.629852,71.523247l2.851044,-7.845943l0,25.096981l-2.851044,4.708817l0,-21.959854z" fill-rule="evenodd" fill="#8686bf"/>
   </g>
   <g id="g6144" transform="matrix(0.99986 -0.0167537 0.0167537 0.99986 -57.7835 271.549)" stroke-miterlimit="4" stroke-width="0.344" stroke="#000000" fill="#cccccc" opacity="0.715976">
    <path id="path6146" d="m-168.519257,82.152847l5.995544,-7.177078l0,24.082512l-5.995544,4.273773l0,-21.179207z" fill-rule="evenodd" fill="#e9e9ff"/>
    <path id="path6148" d="m-192.298691,79.587196l0,21.959854l23.779434,1.785019l0,-21.179199l-23.779434,-2.565674z" fill-rule="evenodd" fill="#353564"/>
    <path id="path6150" d="m-192.298691,79.587196l2.851044,-7.845955l26.923935,3.234543l-5.995544,7.177086l-23.779434,-2.565674z" fill-rule="evenodd" fill="#4d4d9f"/>
    <path id="path6152" d="m-192.298691,101.547035l2.851044,-4.708824l26.923935,2.22007l-5.995544,4.273773l-23.779434,-1.785019z" fill-rule="evenodd" fill="#afafde"/>
    <path id="path6154" d="m-189.447632,71.741241l0,25.096992l26.923935,2.220047l0,-24.082512l-26.923935,-3.234528z" fill-rule="evenodd" fill="#d7d7ff"/>
    <path id="path6156" d="m-192.298691,79.587196l2.851044,-7.845955l0,25.096992l-2.851044,4.708817l0,-21.959854z" fill-rule="evenodd" fill="#8686bf"/>
   </g>
   <g id="g6158" transform="matrix(0.959414 -0.282003 0.282003 0.959414 -83.6124 222.429)" stroke-miterlimit="4" stroke-width="0.344" stroke="#000000" fill="#cccccc" opacity="0.715976">
    <path id="path6160" d="m-141.146423,102.046715l5.995544,-7.177086l0,24.082512l-5.995544,4.273766l0,-21.179192z" fill-rule="evenodd" fill="#e9e9ff"/>
    <path id="path6162" d="m-164.925858,99.481049l0,21.959854l23.779434,1.785019l0,-21.179192l-23.779434,-2.565681z" fill-rule="evenodd" fill="#353564"/>
    <path id="path6164" d="m-164.925858,99.481049l2.851044,-7.84594l26.923935,3.234535l-5.995544,7.177086l-23.779434,-2.565681z" fill-rule="evenodd" fill="#4d4d9f"/>
    <path id="path6166" d="m-164.925858,121.440895l2.851044,-4.708824l26.923935,2.22007l-5.995544,4.273766l-23.779434,-1.785011z" fill-rule="evenodd" fill="#afafde"/>
    <path id="path6168" d="m-162.074799,91.635109l0,25.096977l26.923935,2.220055l0,-24.082512l-26.923935,-3.23452z" fill-rule="evenodd" fill="#d7d7ff"/>
    <path id="path6170" d="m-164.925858,99.481049l2.851044,-7.84594l0,25.096977l-2.851044,4.708817l0,-21.959854z" fill-rule="evenodd" fill="#8686bf"/>
   </g>
   <g id="g6172" transform="matrix(0.961835 -0.273629 0.273629 0.961835 -109.354 224.101)" stroke-miterlimit="4" stroke-width="0.344" stroke="#000000" fill="#cccccc" opacity="0.715976">
    <path id="path6174" d="m-141.944199,101.290451l5.995544,-7.177078l0,24.082504l-5.995544,4.273773l0,-21.179199z" fill-rule="evenodd" fill="#e9e9ff"/>
    <path id="path6176" d="m-165.723633,98.724792l0,21.959854l23.779434,1.785019l0,-21.179199l-23.779434,-2.565674z" fill-rule="evenodd" fill="#353564"/>
    <path id="path6178" d="m-165.723633,98.724792l2.851044,-7.845947l26.923935,3.234543l-5.995544,7.177078l-23.779434,-2.565674z" fill-rule="evenodd" fill="#4d4d9f"/>
    <path id="path6180" d="m-165.723633,120.684631l2.851044,-4.708817l26.923935,2.220062l-5.995544,4.273773l-23.779434,-1.785019z" fill-rule="evenodd" fill="#afafde"/>
    <path id="path6182" d="m-162.872559,90.878845l0,25.096985l26.92392,2.220047l0,-24.082504l-26.92392,-3.234528z" fill-rule="evenodd" fill="#d7d7ff"/>
    <path id="path6184" d="m-165.723633,98.724792l2.851044,-7.845947l0,25.096985l-2.851044,4.708817l0,-21.959854z" fill-rule="evenodd" fill="#8686bf"/>
   </g>
   <g id="g6186" transform="matrix(0.994733 -0.102498 0.102498 0.994733 -34.8794 261.665)" stroke-miterlimit="4" stroke-width="0.344" stroke="#000000" fill="#cccccc" opacity="0.715976">
    <path id="path6188" d="m-159.210419,87.693298l5.995544,-7.177078l0,24.082504l-5.995544,4.273773l0,-21.179199z" fill-rule="evenodd" fill="#e9e9ff"/>
    <path id="path6190" d="m-182.989853,85.12764l0,21.959854l23.779434,1.785019l0,-21.179199l-23.779434,-2.565674z" fill-rule="evenodd" fill="#353564"/>
    <path id="path6192" d="m-182.989853,85.12764l2.851044,-7.845947l26.923935,3.234543l-5.995544,7.177078l-23.779434,-2.565674z" fill-rule="evenodd" fill="#4d4d9f"/>
    <path id="path6194" d="m-182.989853,107.087479l2.851044,-4.708817l26.923935,2.220062l-5.995544,4.273773l-23.779434,-1.785019z" fill-rule="evenodd" fill="#afafde"/>
    <path id="path6196" d="m-180.138794,77.281693l0,25.096985l26.923935,2.220047l0,-24.082504l-26.923935,-3.234528z" fill-rule="evenodd" fill="#d7d7ff"/>
    <path id="path6198" d="m-182.989853,85.12764l2.851044,-7.845947l0,25.096985l-2.851044,4.708817l0,-21.959854z" fill-rule="evenodd" fill="#8686bf"/>
   </g>
   <g id="g6200" transform="matrix(0.997816 0.0660521 -0.0660521 0.997816 -17.0634 326.279)" stroke-miterlimit="4" stroke-width="0.344" stroke="#000000" fill="#cccccc" opacity="0.715976">
    <path id="path6202" d="m-177.914215,77.585815l5.995544,-7.177078l0,24.082504l-5.995544,4.273773l0,-21.179199z" fill-rule="evenodd" fill="#e9e9ff"/>
    <path id="path6204" d="m-201.693649,75.020157l0,21.959854l23.779434,1.785019l0,-21.179199l-23.779434,-2.565674z" fill-rule="evenodd" fill="#353564"/>
    <path id="path6206" d="m-201.693649,75.020157l2.851044,-7.845947l26.923935,3.234543l-5.995544,7.177078l-23.779434,-2.565674z" fill-rule="evenodd" fill="#4d4d9f"/>
    <path id="path6208" d="m-201.693649,96.979996l2.851044,-4.708817l26.923935,2.220062l-5.995544,4.273773l-23.779434,-1.785019z" fill-rule="evenodd" fill="#afafde"/>
    <path id="path6210" d="m-198.84259,67.17421l0,25.096985l26.923935,2.220047l0,-24.082504l-26.923935,-3.234528z" fill-rule="evenodd" fill="#d7d7ff"/>
    <path id="path6212" d="m-201.693649,75.020157l2.851044,-7.845947l0,25.096985l-2.851044,4.708817l0,-21.959854z" fill-rule="evenodd" fill="#8686bf"/>
   </g>
  </g>
  <g id="g5874">
   <g transform="matrix(1 0.000645406 -0.000645406 1 -31.8325 245.46)" id="g5650" stroke-miterlimit="4" stroke-width="0.344" stroke="#000000" fill="#cccccc" opacity="0.715976">
    <path d="m292.779236,-17.157978l5.995544,-7.177078l0,24.082504l-5.995544,4.273774l0,-21.1792z" id="path5652" fill-rule="evenodd" fill="#e9e9ff"/>
    <path d="m268.999786,-19.723637l0,21.959854l23.779449,1.785019l0,-21.179199l-23.779449,-2.565674z" id="path5654" fill-rule="evenodd" fill="#353564"/>
    <path d="m268.999786,-19.723637l2.851044,-7.845947l26.92395,3.234543l-5.995544,7.177078l-23.779449,-2.565672l0,-0.000002z" id="path5656" fill-rule="evenodd" fill="#4d4d9f"/>
    <path d="m268.999786,2.236203l2.851044,-4.708817l26.92395,2.220062l-5.995544,4.273773l-23.779449,-1.785019l0,0.000001z" id="path5658" fill-rule="evenodd" fill="#afafde"/>
    <path d="m271.850861,-27.569584l0,25.096985l26.92395,2.220047l0,-24.082504l-26.92395,-3.234528z" id="path5660" fill-rule="evenodd" fill="#d7d7ff"/>
    <path d="m268.999786,-19.723637l2.851044,-7.845947l0,25.096986l-2.851044,4.708817l0,-21.959853l0,-0.000002z" id="path5662" fill-rule="evenodd" fill="#8686bf"/>
   </g>
   <g transform="matrix(0.998787 0.0492434 -0.0492434 0.998787 70.4767 327.783)" id="g5664" stroke-miterlimit="4" stroke-width="0.344" stroke="#000000" fill="#cccccc" opacity="0.715976">
    <path d="m281.940582,-42.233551l5.995544,-7.177078l0,24.082502l-5.995544,4.273773l0,-21.179197z" id="path5666" fill-rule="evenodd" fill="#e9e9ff"/>
    <path d="m258.161133,-44.79921l0,21.959852l23.779449,1.785019l0,-21.179197l-23.779449,-2.565674z" id="path5668" fill-rule="evenodd" fill="#353564"/>
    <path d="m258.161133,-44.79921l2.851044,-7.845947l26.92395,3.234543l-5.995544,7.177078l-23.779449,-2.565674z" id="path5670" fill-rule="evenodd" fill="#4d4d9f"/>
    <path d="m258.161133,-22.839373l2.851044,-4.708817l26.92395,2.22006l-5.995544,4.273775l-23.779449,-1.785019z" id="path5672" fill-rule="evenodd" fill="#afafde"/>
    <path d="m261.012207,-52.645157l0,25.096983l26.92392,2.220047l0,-24.082502l-26.92392,-3.234528z" id="path5674" fill-rule="evenodd" fill="#d7d7ff"/>
    <path d="m258.161133,-44.79921l2.851044,-7.845947l0,25.096983l-2.851044,4.708818l0,-21.959854z" id="path5676" fill-rule="evenodd" fill="#8686bf"/>
   </g>
   <g transform="matrix(0.994309 0.10654 -0.10654 0.994309 55.0443 311.612)" id="g5678" stroke-miterlimit="4" stroke-width="0.344" stroke="#000000" fill="#cccccc" opacity="0.715976">
    <path d="m267.573151,-71.157097l5.995544,-7.177078l0,24.082508l-5.995544,4.273773l0,-21.179203z" id="path5680" fill-rule="evenodd" fill="#e9e9ff"/>
    <path d="m243.793701,-73.722755l0,21.959858l23.779449,1.785019l0,-21.179203l-23.779449,-2.565674z" id="path5682" fill-rule="evenodd" fill="#353564"/>
    <path d="m243.793701,-73.722755l2.851044,-7.845947l26.92395,3.234543l-5.995544,7.177078l-23.779449,-2.565674z" id="path5684" fill-rule="evenodd" fill="#4d4d9f"/>
    <path d="m243.793701,-51.762913l2.851044,-4.708817l26.92395,2.220062l-5.995544,4.273773l-23.779449,-1.785019z" id="path5686" fill-rule="evenodd" fill="#afafde"/>
    <path d="m246.644775,-81.568703l0,25.096989l26.92392,2.220047l0,-24.082508l-26.92392,-3.234528z" id="path5688" fill-rule="evenodd" fill="#d7d7ff"/>
    <path d="m243.793701,-73.722755l2.851044,-7.845947l0,25.096989l-2.851044,4.708817l0,-21.959858z" id="path5690" fill-rule="evenodd" fill="#8686bf"/>
   </g>
   <g transform="matrix(0.997442 0.0714883 -0.0714883 0.997442 34.4429 280.998)" id="g5692" stroke-miterlimit="4" stroke-width="0.344" stroke="#000000" fill="#cccccc" opacity="0.715976">
    <path d="m276.567505,-53.545479l5.995544,-7.177078l0,24.082504l-5.995544,4.273773l0,-21.179199z" id="path5694" fill-rule="evenodd" fill="#e9e9ff"/>
    <path d="m252.788071,-56.111137l0,21.959854l23.779434,1.785019l0,-21.179199l-23.779434,-2.565674z" id="path5696" fill-rule="evenodd" fill="#353564"/>
    <path d="m252.788071,-56.111137l2.851059,-7.845947l26.92392,3.234543l-5.995544,7.177078l-23.779434,-2.565674z" id="path5698" fill-rule="evenodd" fill="#4d4d9f"/>
    <path d="m252.788071,-34.151299l2.851059,-4.708817l26.92392,2.220062l-5.995544,4.273773l-23.779434,-1.785019z" id="path5700" fill-rule="evenodd" fill="#afafde"/>
    <path d="m255.63913,-63.957085l0,25.096985l26.92395,2.220047l0,-24.082504l-26.92395,-3.234528z" id="path5702" fill-rule="evenodd" fill="#d7d7ff"/>
    <path d="m252.788071,-56.111137l2.851059,-7.845947l0,25.096985l-2.851059,4.708817l0,-21.959854z" id="path5704" fill-rule="evenodd" fill="#8686bf"/>
   </g>
   <g transform="matrix(0.960719 0.277522 -0.277522 0.960719 77.313 326.095)" id="g5706" stroke-miterlimit="4" stroke-width="0.344" stroke="#000000" fill="#cccccc" opacity="0.715976">
    <path d="m214.156708,-153.222336l5.995544,-7.177078l0,24.082504l-5.995544,4.273773l0,-21.179199z" id="path5708" fill-rule="evenodd" fill="#e9e9ff"/>
    <path d="m190.377258,-155.787994l0,21.959854l23.779449,1.785019l0,-21.179199l-23.779449,-2.565674z" id="path5710" fill-rule="evenodd" fill="#353564"/>
    <path d="m190.377258,-155.787994l2.851044,-7.845947l26.92395,3.234543l-5.995544,7.177078l-23.779449,-2.565674z" id="path5712" fill-rule="evenodd" fill="#4d4d9f"/>
    <path d="m190.377258,-133.828156l2.851044,-4.708817l26.92395,2.220062l-5.995544,4.273773l-23.779449,-1.785019z" id="path5714" fill-rule="evenodd" fill="#afafde"/>
    <path d="m193.228302,-163.633942l0,25.096985l26.92395,2.220047l0,-24.082504l-26.92395,-3.234528z" id="path5716" fill-rule="evenodd" fill="#d7d7ff"/>
    <path d="m190.377258,-155.787994l2.851044,-7.845947l0,25.096985l-2.851044,4.708817l0,-21.959854z" id="path5718" fill-rule="evenodd" fill="#8686bf"/>
   </g>
   <g transform="matrix(0.900829 -0.434175 0.434175 0.900829 -62.9006 163.745)" id="g5720" stroke-miterlimit="4" stroke-width="0.344" stroke="#000000" fill="#cccccc" opacity="0.715976">
    <path d="m332.40863,230.307343l5.995544,-7.177078l0,24.082504l-5.995544,4.273773l0,-21.179199z" id="path5722" fill-rule="evenodd" fill="#e9e9ff"/>
    <path d="m308.629181,227.741684l0,21.959854l23.779449,1.785019l0,-21.179199l-23.779449,-2.565674z" id="path5724" fill-rule="evenodd" fill="#353564"/>
    <path d="m308.629181,227.741684l2.851044,-7.845947l26.92395,3.234543l-5.995544,7.177078l-23.779449,-2.565674z" id="path5726" fill-rule="evenodd" fill="#4d4d9f"/>
    <path d="m308.629181,249.701523l2.851044,-4.708817l26.92395,2.220062l-5.995544,4.273773l-23.779449,-1.785019z" id="path5728" fill-rule="evenodd" fill="#afafde"/>
    <path d="m311.480255,219.895737l0,25.096985l26.92392,2.220047l0,-24.082504l-26.92392,-3.234528z" id="path5730" fill-rule="evenodd" fill="#d7d7ff"/>
    <path d="m308.629181,227.741684l2.851044,-7.845947l0,25.096985l-2.851044,4.708817l0,-21.959854z" id="path5732" fill-rule="evenodd" fill="#8686bf"/>
   </g>
   <g transform="matrix(0.99681 0.079808 -0.079808 0.99681 -27.7715 257.325)" id="g5734" stroke-miterlimit="4" stroke-width="0.344" stroke="#000000" fill="#cccccc" opacity="0.715976">
    <path d="m274.491272,-57.749363l5.995544,-7.177082l0,24.082508l-5.995544,4.273773l0,-21.179199z" id="path5736" fill-rule="evenodd" fill="#e9e9ff"/>
    <path d="m250.711838,-60.315022l0,21.959854l23.779434,1.785019l0,-21.179199l-23.779434,-2.565674z" id="path5738" fill-rule="evenodd" fill="#353564"/>
    <path d="m250.711838,-60.315022l2.851044,-7.845951l26.923935,3.234543l-5.995544,7.177082l-23.779434,-2.565674z" id="path5740" fill-rule="evenodd" fill="#4d4d9f"/>
    <path d="m250.711838,-38.355183l2.851044,-4.708817l26.923935,2.220062l-5.995544,4.273773l-23.779434,-1.785019z" id="path5742" fill-rule="evenodd" fill="#afafde"/>
    <path d="m253.562912,-68.160973l0,25.096989l26.923904,2.220047l0,-24.082508l-26.923904,-3.234528z" id="path5744" fill-rule="evenodd" fill="#d7d7ff"/>
    <path d="m250.711838,-60.315022l2.851044,-7.845951l0,25.096989l-2.851044,4.708817l0,-21.959854z" id="path5746" fill-rule="evenodd" fill="#8686bf"/>
   </g>
   <g transform="matrix(0.999203 0.0399081 -0.0399081 0.999203 34.9664 256.084)" id="g5748" stroke-miterlimit="4" stroke-width="0.344" stroke="#000000" fill="#cccccc" opacity="0.715976">
    <path d="m284.118317,-37.455265l5.995544,-7.177078l0,24.082504l-5.995544,4.273773l0,-21.179199z" id="path5750" fill-rule="evenodd" fill="#e9e9ff"/>
    <path d="m260.338867,-40.020924l0,21.959854l23.779449,1.785019l0,-21.179199l-23.779449,-2.565674z" id="path5752" fill-rule="evenodd" fill="#353564"/>
    <path d="m260.338867,-40.020924l2.851044,-7.845947l26.92395,3.234543l-5.995544,7.177078l-23.779449,-2.565674z" id="path5754" fill-rule="evenodd" fill="#4d4d9f"/>
    <path d="m260.338867,-18.061085l2.851044,-4.708817l26.92395,2.220062l-5.995544,4.273773l-23.779449,-1.785019z" id="path5756" fill-rule="evenodd" fill="#afafde"/>
    <path d="m263.189941,-47.866871l0,25.096985l26.92392,2.220047l0,-24.082504l-26.92392,-3.234528z" id="path5758" fill-rule="evenodd" fill="#d7d7ff"/>
    <path d="m260.338867,-40.020924l2.851044,-7.845947l0,25.096985l-2.851044,4.708817l0,-21.959854z" id="path5760" fill-rule="evenodd" fill="#8686bf"/>
   </g>
   <g transform="matrix(0.981751 0.190172 -0.190172 0.981751 39.8285 307.13)" id="g5762" stroke-miterlimit="4" stroke-width="0.344" stroke="#000000" fill="#cccccc" opacity="0.715976">
    <path d="m243.463531,-112.110886l5.995544,-7.177078l0,24.082504l-5.995544,4.273773l0,-21.179199z" id="path5764" fill-rule="evenodd" fill="#e9e9ff"/>
    <path d="m219.684113,-114.676544l0,21.959854l23.779419,1.785019l0,-21.179199l-23.779419,-2.565674z" id="path5766" fill-rule="evenodd" fill="#353564"/>
    <path d="m219.684113,-114.676544l2.851044,-7.845947l26.92392,3.234543l-5.995544,7.177078l-23.779419,-2.565674z" id="path5768" fill-rule="evenodd" fill="#4d4d9f"/>
    <path d="m219.684113,-92.716705l2.851044,-4.708817l26.92392,2.220062l-5.995544,4.273773l-23.779419,-1.785019z" id="path5770" fill-rule="evenodd" fill="#afafde"/>
    <path d="m222.535156,-122.522491l0,25.096985l26.92395,2.220047l0,-24.082504l-26.92395,-3.234528z" id="path5772" fill-rule="evenodd" fill="#d7d7ff"/>
    <path d="m219.684113,-114.676544l2.851044,-7.845947l0,25.096985l-2.851044,4.708817l0,-21.959854z" id="path5774" fill-rule="evenodd" fill="#8686bf"/>
   </g>
   <g transform="matrix(0.97303 -0.230678 0.230678 0.97303 -29.2561 216.082)" id="g5776" stroke-miterlimit="4" stroke-width="0.344" stroke="#000000" fill="#cccccc" opacity="0.715976">
    <path d="m327.303833,109.076691l5.995544,-7.177078l0,24.082504l-5.995544,4.273773l0,-21.179199z" id="path5778" fill-rule="evenodd" fill="#e9e9ff"/>
    <path d="m303.524414,106.511032l0,21.959854l23.779419,1.785019l0,-21.179199l-23.779419,-2.565674z" id="path5780" fill-rule="evenodd" fill="#353564"/>
    <path d="m303.524414,106.511032l2.851074,-7.845947l26.923889,3.234543l-5.995544,7.177078l-23.779419,-2.565674z" id="path5782" fill-rule="evenodd" fill="#4d4d9f"/>
    <path d="m303.524414,128.470871l2.851074,-4.708817l26.923889,2.220062l-5.995544,4.273773l-23.779419,-1.785019z" id="path5784" fill-rule="evenodd" fill="#afafde"/>
    <path d="m306.375488,98.665085l0,25.096985l26.92395,2.220047l0,-24.082504l-26.92395,-3.234528z" id="path5786" fill-rule="evenodd" fill="#d7d7ff"/>
    <path d="m303.524414,106.511032l2.851074,-7.845947l0,25.096985l-2.851074,4.708817l0,-21.959854z" id="path5788" fill-rule="evenodd" fill="#8686bf"/>
   </g>
   <g transform="matrix(0.989905 0.14173 -0.14173 0.989905 -0.403666 317.835)" id="g5790" stroke-miterlimit="4" stroke-width="0.344" stroke="#000000" fill="#cccccc" opacity="0.715976">
    <path d="m257.887787,-88.574127l5.995544,-7.177078l0,24.082504l-5.995544,4.273773l0,-21.179199z" id="path5792" fill-rule="evenodd" fill="#e9e9ff"/>
    <path d="m234.108322,-91.139786l0,21.959854l23.779465,1.785019l0,-21.179199l-23.779465,-2.565674z" id="path5794" fill-rule="evenodd" fill="#353564"/>
    <path d="m234.108322,-91.139786l2.851044,-7.845947l26.923965,3.234543l-5.995544,7.177078l-23.779465,-2.565674z" id="path5796" fill-rule="evenodd" fill="#4d4d9f"/>
    <path d="m234.108322,-69.179947l2.851044,-4.708817l26.923965,2.220062l-5.995544,4.273773l-23.779465,-1.785019z" id="path5798" fill-rule="evenodd" fill="#afafde"/>
    <path d="m236.959396,-98.985733l0,25.096985l26.923935,2.220047l0,-24.082504l-26.923935,-3.234528z" id="path5800" fill-rule="evenodd" fill="#d7d7ff"/>
    <path d="m234.108322,-91.139786l2.851044,-7.845947l0,25.096985l-2.851044,4.708817l0,-21.959854z" id="path5802" fill-rule="evenodd" fill="#8686bf"/>
   </g>
   <g transform="matrix(0.99986 -0.0167537 0.0167537 0.99986 -57.7835 271.549)" id="g5804" stroke-miterlimit="4" stroke-width="0.344" stroke="#000000" fill="#cccccc" opacity="0.715976">
    <path d="m296.36026,-8.059738l5.995514,-7.177078l0,24.082504l-5.995514,4.273773l0,-21.179199z" id="path5806" fill-rule="evenodd" fill="#e9e9ff"/>
    <path d="m272.580811,-10.625397l0,21.959854l23.779449,1.785019l0,-21.179198l-23.779449,-2.565675z" id="path5808" fill-rule="evenodd" fill="#353564"/>
    <path d="m272.580811,-10.625397l2.851044,-7.845947l26.92392,3.234544l-5.995514,7.177078l-23.779449,-2.565675z" id="path5810" fill-rule="evenodd" fill="#4d4d9f"/>
    <path d="m272.580811,11.334444l2.851044,-4.708817l26.92392,2.220062l-5.995514,4.273773l-23.779449,-1.785018l0,0z" id="path5812" fill-rule="evenodd" fill="#afafde"/>
    <path d="m275.431854,-18.471344l0,25.096985l26.92395,2.220047l0,-24.082504l-26.92395,-3.234528z" id="path5814" fill-rule="evenodd" fill="#d7d7ff"/>
    <path d="m272.580811,-10.625397l2.851044,-7.845947l0,25.096986l-2.851044,4.708816l0,-21.959854l0,-0.000001z" id="path5816" fill-rule="evenodd" fill="#8686bf"/>
   </g>
   <g transform="matrix(0.959414 -0.282003 0.282003 0.959414 -83.6124 222.429)" id="g5818" stroke-miterlimit="4" stroke-width="0.344" stroke="#000000" fill="#cccccc" opacity="0.715976">
    <path d="m330.985657,138.687973l5.995544,-7.177078l0,24.082504l-5.995544,4.273773l0,-21.179199z" id="path5820" fill-rule="evenodd" fill="#e9e9ff"/>
    <path d="m307.206238,136.122314l0,21.959854l23.779419,1.785019l0,-21.179199l-23.779419,-2.565674z" id="path5822" fill-rule="evenodd" fill="#353564"/>
    <path d="m307.206238,136.122314l2.851044,-7.845947l26.92392,3.234543l-5.995544,7.177078l-23.779419,-2.565674z" id="path5824" fill-rule="evenodd" fill="#4d4d9f"/>
    <path d="m307.206238,158.082153l2.851044,-4.708817l26.92392,2.220062l-5.995544,4.273773l-23.779419,-1.785019z" id="path5826" fill-rule="evenodd" fill="#afafde"/>
    <path d="m310.057312,128.276367l0,25.096985l26.92392,2.220047l0,-24.082504l-26.92392,-3.234528z" id="path5828" fill-rule="evenodd" fill="#d7d7ff"/>
    <path d="m307.206238,136.122314l2.851044,-7.845947l0,25.096985l-2.851044,4.708817l0,-21.959854z" id="path5830" fill-rule="evenodd" fill="#8686bf"/>
   </g>
   <g transform="matrix(0.961835 -0.273629 0.273629 0.961835 -109.354 224.101)" id="g5832" stroke-miterlimit="4" stroke-width="0.344" stroke="#000000" fill="#cccccc" opacity="0.715976">
    <path d="m330.48938,133.815018l5.995544,-7.177071l0,24.082497l-5.995544,4.273773l0,-21.179199z" id="path5834" fill-rule="evenodd" fill="#e9e9ff"/>
    <path d="m306.70993,131.249359l0,21.959854l23.779449,1.785019l0,-21.179199l-23.779449,-2.565674z" id="path5836" fill-rule="evenodd" fill="#353564"/>
    <path d="m306.70993,131.249359l2.851044,-7.84594l26.92395,3.234543l-5.995544,7.177071l-23.779449,-2.565674z" id="path5838" fill-rule="evenodd" fill="#4d4d9f"/>
    <path d="m306.70993,153.209198l2.851044,-4.708817l26.92395,2.220062l-5.995544,4.273773l-23.779449,-1.785019z" id="path5840" fill-rule="evenodd" fill="#afafde"/>
    <path d="m309.560974,123.403419l0,25.096977l26.92395,2.220047l0,-24.082497l-26.92395,-3.234528z" id="path5842" fill-rule="evenodd" fill="#d7d7ff"/>
    <path d="m306.70993,131.249359l2.851044,-7.84594l0,25.096977l-2.851044,4.708817l0,-21.959854z" id="path5844" fill-rule="evenodd" fill="#8686bf"/>
   </g>
   <g transform="matrix(0.994733 -0.102498 0.102498 0.994733 -34.8794 261.665)" id="g5846" stroke-miterlimit="4" stroke-width="0.344" stroke="#000000" fill="#cccccc" opacity="0.715976">
    <path d="m311.696014,37.708439l5.995544,-7.177078l0,24.082504l-5.995544,4.273773l0,-21.179199z" id="path5848" fill-rule="evenodd" fill="#e9e9ff"/>
    <path d="m287.916565,35.14278l0,21.959854l23.779449,1.785019l0,-21.179199l-23.779449,-2.565674z" id="path5850" fill-rule="evenodd" fill="#353564"/>
    <path d="m287.916565,35.14278l2.851044,-7.845947l26.92395,3.234545l-5.995544,7.177076l-23.779449,-2.565674z" id="path5852" fill-rule="evenodd" fill="#4d4d9f"/>
    <path d="m287.916565,57.102619l2.851044,-4.708817l26.92395,2.220062l-5.995544,4.273773l-23.779449,-1.785019z" id="path5854" fill-rule="evenodd" fill="#afafde"/>
    <path d="m290.767639,27.296833l0,25.096985l26.92395,2.220047l0,-24.082504l-26.92395,-3.234528z" id="path5856" fill-rule="evenodd" fill="#d7d7ff"/>
    <path d="m287.916565,35.14278l2.851044,-7.845947l0,25.096985l-2.851044,4.708817l0,-21.959854z" id="path5858" fill-rule="evenodd" fill="#8686bf"/>
   </g>
   <g transform="matrix(0.997816 0.0660521 -0.0660521 0.997816 -17.0634 326.279)" id="g5860" stroke-miterlimit="4" stroke-width="0.344" stroke="#000000" fill="#cccccc" opacity="0.715976">
    <path d="m277.904541,-50.790733l5.995544,-7.177082l0,24.082508l-5.995544,4.273771l0,-21.179197z" id="path5862" fill-rule="evenodd" fill="#e9e9ff"/>
    <path d="m254.125076,-53.356396l0,21.959856l23.779465,1.785019l0,-21.179197l-23.779465,-2.565678z" id="path5864" fill-rule="evenodd" fill="#353564"/>
    <path d="m254.125076,-53.356396l2.851059,-7.845947l26.92395,3.234543l-5.995544,7.177082l-23.779465,-2.565678z" id="path5866" fill-rule="evenodd" fill="#4d4d9f"/>
    <path d="m254.125076,-31.396555l2.851059,-4.708815l26.92395,2.220062l-5.995544,4.273771l-23.779465,-1.785019z" id="path5868" fill-rule="evenodd" fill="#afafde"/>
    <path d="m256.976135,-61.202343l0,25.096989l26.92395,2.220047l0,-24.082508l-26.92395,-3.234528z" id="path5870" fill-rule="evenodd" fill="#d7d7ff"/>
    <path d="m254.125076,-53.356396l2.851059,-7.845947l0,25.096989l-2.851059,4.708817l0,-21.959858z" id="path5872" fill-rule="evenodd" fill="#8686bf"/>
   </g>
  </g>
  <path d="m222.105011,519.613647l-112.857147,-65.096191l-0.750366,-101.818054l-0.750381,-101.818069l9.321808,-0.164642c5.126991,-0.090485 13.821808,-0.626251 19.321793,-1.190491c5.500015,-0.56424 22.214294,-1.840576 37.142868,-2.836273c14.928574,-0.995728 32.928574,-2.319672 40,-2.942078c7.071426,-0.622437 22.5,-1.859253 34.285706,-2.748505c11.785721,-0.889221 30.428574,-2.294861 41.428574,-3.123627c11,-0.828796 26.107147,-2.050842 33.571442,-2.715729l13.571411,-1.208832l0,175.607925c0,96.584351 -0.321411,175.505127 -0.714264,175.379395c-0.392883,-0.125732 -51.5,-29.521912 -113.571442,-65.324829z" id="path3040" fill="#000080"/>
  <path d="m339.247864,410.114319l0,-175.376572l95,13.694366c52.25,7.531921 95.964294,13.735641 97.142883,13.786057c1.178528,0.050415 2.142822,47.356506 2.142822,105.124603l0,105.032898l-85,49.275696c-46.75,27.101624 -90.464264,52.552551 -97.142853,56.557617l-12.142853,7.281921l0,-175.376587z" id="path3042" fill="#0000ff"/>
  <path d="m107.231445,244.782089l226.211914,-9.247345l201.207703,15.412262c14.287659,7.192368 8.737915,15.078842 5.667847,21.577133l-206.875549,-9.247345l-237.547562,1.541229c-9.497147,-9.500717 -1.710838,-21.578079 11.33564,-20.035934l0.000008,0z" id="path3858" stroke-width="0.731466px" stroke="#000000" fill="#ffffff"/>
  <path id="path3968" d="m415.687988,267.325592l3.505859,36.96463l55.857056,-13.059662l-0.252533,-25.052979l-59.110382,1.14801z" stroke-width="1.105152px" stroke="#000000" fill="#cccccc"/>
  <path d="m419.773682,267.47702l4.394379,34.449921l69.696869,-9.817657l0,-25.702179l-74.091248,1.069916z" id="path3860" stroke-width="1.194467px" stroke="#000000" fill="#ffffff"/>
  <path id="path3862" d="m471.355133,281.309906c0,3.550354 -3.094055,6.428558 -6.910767,6.428558c-3.816711,0 -6.910767,-2.878204 -6.910767,-6.428558c0,-3.550415 3.094055,-6.428589 6.910767,-6.428589c3.816711,0 6.910767,2.878174 6.910767,6.428589z" stroke="#000000" fill="#cccccc"/>
  <path d="m472.692047,280.386414c0,3.550354 -2.942749,6.428558 -6.572784,6.428558c-3.630035,0 -6.572784,-2.878204 -6.572784,-6.428558c0,-3.550415 2.942749,-6.428589 6.572784,-6.428589c3.630035,0 6.572784,2.878174 6.572784,6.428589z" id="path3864" stroke-miterlimit="4" stroke-width="0.407563" stroke="#000000" fill="#b3b3b3"/>
  <g id="g3872" transform="matrix(1.02229 0.003573 0.0360557 0.737801 -11.4079 135.714)">
   <path id="rect3015" d="m170.675903,259.78241c-47.379814,38.626862 -4.234024,121.609985 42.151596,119.612305c40.020828,-8.279297 75.292953,-85.872589 47.433365,-102.676514c9.360901,80.220825 -80.313156,109.008789 -98.07724,35.101471c-4.293503,-17.793488 -1.93689,-40.043213 8.492279,-52.037262z" fill="#ffffff"/>
   <path d="m173.831757,263.251434c0,3.353149 -3.038055,6.071442 -6.785706,6.071442c-3.74765,0 -6.785706,-2.718292 -6.785706,-6.071442c0,-3.353149 3.038055,-6.071442 6.785706,-6.071442c3.74765,0 6.785706,2.718292 6.785706,6.071442z" id="path3868" fill="#ffffff"/>
   <path id="path3870" d="m267.760315,272.179993c0,3.353149 -3.038055,6.071442 -6.785706,6.071442c-3.74765,0 -6.785706,-2.718292 -6.785706,-6.071442c0,-3.353149 3.038055,-6.071442 6.785706,-6.071442c3.74765,0 6.785706,2.718292 6.785706,6.071442z" fill="#ffffff"/>
  </g>
  <path d="m332.508453,583.015015l5.300568,3.509277l5.638824,-3.360779l-1.766846,-327.137665l-10.059113,0.505615" id="path7947" fill="#ffffff"/>
  <use x="0" y="0" transform="matrix(0.756719 0 0 0.756719 0 337.385)" xlink:href="#svg_155" id="svg_156"/>
  <use id="svg_157" x="26.460041" y="3.060533" transform="matrix(0.756719 0 0 0.756719 11 363)" xlink:href="#svg_155"/>
  <use id="svg_158" x="136.144086" y="32.133413" transform="matrix(0.756719 0 0 0.756719 11 363)" xlink:href="#svg_155"/>
 </g>
</svg>