<svg width="527.02472" height="587.9707" xmlns="http://www.w3.org/2000/svg">

 <metadata id="metadata7">image/svg+xml</metadata>
 <g>
  <title>Layer 1</title>
  <path fill="#ffffff" d="m517.625549,472.306396l-4.734619,2.200684l-5.036743,-2.107544l1.578186,-205.152283l8.985046,0.317078" id="path7949"/>
  <path fill="none" stroke="#000000" stroke-width="0.997258px" id="path3892" d="m11.903519,30.951004c0,0 7.515116,117.549301 27.296211,142.379745c19.781094,24.830444 43.735901,68.678864 43.735901,68.678864l-71.032112,-211.058609z"/>
  <path fill="none" stroke="#000000" stroke-width="1px" id="path3877" d="m82.967255,246.081879c0,0 -90.913725,-207.081268 -81.822355,-216.172653c9.091373,-9.09137 343.451872,9.091385 351.533079,22.223358c8.081207,13.131989 43.436554,192.939133 43.436554,192.939133l-313.147278,1.010162z"/>
  <path fill="#ffffff" stroke="#000000" stroke-width="1px" d="m82.967255,246.081879c0,0 -90.913725,-207.081268 -81.822355,-216.172653c9.091373,-9.09137 343.451872,9.091385 351.533079,22.223358c8.081207,13.131989 43.436554,192.939133 43.436554,192.939133l-313.147278,1.010162z" id="path3879"/>
  <path fill="#dcdcdc" stroke="#000000" stroke-width="0.906771px" id="path3881" d="m90.019249,229.966064c0,0 -83.601042,-185.162643 -75.24095,-193.291733c8.360107,-8.129089 315.826193,8.129105 323.257376,19.871124c7.431213,11.742004 39.942719,172.51738 39.942719,172.51738l-287.959145,0.903229z"/>
  <path fill="none" stroke="#000000" stroke-width="1px" id="path3894" d="m155.698242,28.899063l-23.233505,-28.284271l75.761429,7.071075l14.142136,28.284271l-66.670059,-7.071075z"/>
  <path fill="#cccccc" stroke="#000000" stroke-width="1px" id="path3896" d="m133.474884,2.635101c0,0 -5.050766,11.111679 -1.010147,13.131989c4.040604,2.020309 17.172592,16.162445 17.172592,16.162445l7.07106,0"/>
  <path fill="#cccccc" d="m189.033295,16.272167c0,3.626297 -4.070358,6.565994 -9.091385,6.565994c-5.021027,0 -9.09137,-2.939697 -9.09137,-6.565994c0,-3.626297 4.070343,-6.565993 9.09137,-6.565993c5.021027,0 9.091385,2.939696 9.091385,6.565993z" id="path3898"/>
  <g id="g3902">
   <path fill="#cccccc" id="path3883" d="m114.281982,80.921944c0,17.015709 -13.567818,30.809662 -30.304573,30.809662c-16.736755,0 -30.304573,-13.793953 -30.304573,-30.809662c0,-17.015697 13.567818,-30.809654 30.304573,-30.809654c16.736755,0 30.304573,13.793949 30.304573,30.809654z"/>
   <path fill="#f9f9f9" d="m93.243408,56.21875c10.641899,2.882553 18.5,12.958817 18.5,24.9375c0,14.226242 -11.08165,25.75 -24.75,25.75c-4.094543,0 -7.941994,-1.042786 -11.34375,-2.875c2.014023,0.550949 4.132332,0.84375 6.3125,0.84375c13.66835,0 24.75,-11.523758 24.75,-25.75c0,-9.987213 -5.485268,-18.632294 -13.46875,-22.90625z" id="path3885"/>
   <path fill="#f9f9f9" id="path3890" d="m76.149658,56.21875c-10.641899,2.882553 -18.499996,12.958817 -18.499996,24.9375c0,14.226242 11.081646,25.75 24.749996,25.75c4.094543,0 7.941994,-1.042786 11.34375,-2.875c-2.014023,0.550949 -4.132332,0.84375 -6.3125,0.84375c-13.66835,0 -24.75,-11.523758 -24.75,-25.75c0,-9.987213 5.485268,-18.632294 13.46875,-22.90625z"/>
   <path fill="#e8e8e8" id="path3900" d="m99.1297,80.416855c0,11.715729 -7.914558,21.213203 -17.677666,21.213203c-9.763107,0 -17.67767,-9.497475 -17.67767,-21.213203c0,-11.715729 7.914562,-21.213203 17.67767,-21.213203c9.763107,0 17.677666,9.497475 17.677666,21.213203z"/>
  </g>
  <g id="g3918" transform="matrix(0.858579 0 0 0.860897 130.719 29.9605)">
   <path fill="#cccccc" id="path3920" d="m111.475586,60.653866c0,17.015705 -13.567818,30.80965 -30.304573,30.80965c-16.736755,0 -30.304573,-13.793945 -30.304573,-30.80965c0,-17.015705 13.567818,-30.809656 30.304573,-30.809656c16.736755,0 30.304573,13.793951 30.304573,30.809656z"/>
   <path fill="#f9f9f9" d="m90.437012,35.950668c10.641899,2.882553 18.5,12.958817 18.5,24.9375c0,14.226242 -11.08165,25.75 -24.75,25.75c-4.094543,0 -7.941994,-1.042786 -11.34375,-2.875c2.014023,0.550949 4.132332,0.84375 6.3125,0.84375c13.66835,0 24.75,-11.523758 24.75,-25.75c0,-9.987213 -5.485268,-18.632294 -13.46875,-22.90625z" id="path3922"/>
   <path fill="#f9f9f9" id="path3924" d="m73.343262,35.950668c-10.641899,2.882553 -18.5,12.958817 -18.5,24.9375c0,14.226242 11.08165,25.75 24.75,25.75c4.094543,0 7.941994,-1.042786 11.34375,-2.875c-2.014023,0.550949 -4.132332,0.84375 -6.3125,0.84375c-13.66835,0 -24.75,-11.523758 -24.75,-25.75c0,-9.987213 5.485268,-18.632294 13.46875,-22.90625z"/>
   <path fill="#e8e8e8" id="path3926" d="m96.323303,60.148769c0,11.715733 -7.914558,21.213207 -17.677666,21.213207c-9.763107,0 -17.677673,-9.497475 -17.677673,-21.213207c0,-11.715729 7.914566,-21.213203 17.677673,-21.213203c9.763107,0 17.677666,9.497475 17.677666,21.213203z"/>
  </g>
  <g id="g3938" transform="matrix(0.717157 0 0 0.768162 236.959 51.2401)">
   <path fill="#cccccc" id="path3940" d="m107.562355,43.063759c0,17.015705 -13.567818,30.809654 -30.304573,30.809654c-16.736752,0 -30.304573,-13.793949 -30.304573,-30.809654c0,-17.015703 13.567822,-30.809655 30.304573,-30.809655c16.736755,0 30.304573,13.793952 30.304573,30.809655z"/>
   <path fill="#f9f9f9" d="m86.523781,18.360565c10.641899,2.882553 18.5,12.958817 18.5,24.9375c0,14.226242 -11.08165,25.75 -24.75,25.75c-4.094543,0 -7.941994,-1.042786 -11.34375,-2.875c2.014023,0.550949 4.132332,0.84375 6.3125,0.84375c13.66835,0 24.75,-11.523758 24.75,-25.75c0,-9.987213 -5.485268,-18.632294 -13.46875,-22.90625z" id="path3942"/>
   <path fill="#f9f9f9" id="path3944" d="m69.430031,18.360565c-10.641899,2.882553 -18.499996,12.958817 -18.499996,24.9375c0,14.226242 11.081646,25.75 24.749996,25.75c4.094543,0 7.941994,-1.042786 11.34375,-2.875c-2.014023,0.550949 -4.132332,0.84375 -6.3125,0.84375c-13.66835,0 -24.749996,-11.523758 -24.749996,-25.75c0,-9.987213 5.485264,-18.632294 13.468746,-22.90625z"/>
   <path fill="#e8e8e8" id="path3946" d="m92.41008,42.55867c0,11.715729 -7.914566,21.2132 -17.677673,21.2132c-9.763107,0 -17.67767,-9.497471 -17.67767,-21.2132c0,-11.715734 7.914562,-21.213207 17.67767,-21.213207c9.763107,0 17.677673,9.497473 17.677673,21.213207z"/>
  </g>
  <g id="g3970">
   <path fill="#cccccc" d="m148.567703,167.35051c0,17.015717 -13.567825,30.809662 -30.304581,30.809662c-16.736755,0 -30.304573,-13.793945 -30.304573,-30.809662c0,-17.015686 13.567818,-30.809647 30.304573,-30.809647c16.736755,0 30.304581,13.793945 30.304581,30.809647z" id="path3972"/>
   <path fill="#f9f9f9" id="path3974" d="m127.529121,142.647324c10.641899,2.882553 18.499992,12.958817 18.499992,24.9375c0,14.226242 -11.081635,25.75 -24.749992,25.75c-4.094543,0 -7.941994,-1.042786 -11.34375,-2.875c2.014023,0.550949 4.132332,0.84375 6.3125,0.84375c13.668358,0 24.750008,-11.523758 24.750008,-25.75c0,-9.987213 -5.485275,-18.632294 -13.468758,-22.90625z"/>
   <path fill="#f9f9f9" d="m110.435371,142.647324c-10.641899,2.882553 -18.499992,12.958817 -18.499992,24.9375c0,14.226242 11.081642,25.75 24.749992,25.75c4.094543,0 7.941994,-1.042786 11.343742,-2.875c-2.014015,0.550949 -4.132324,0.84375 -6.312492,0.84375c-13.66835,0 -24.75,-11.523758 -24.75,-25.75c0,-9.987213 5.485268,-18.632294 13.46875,-22.90625z" id="path3976"/>
   <path fill="#e8e8e8" d="m133.415421,166.845428c0,11.715729 -7.914566,21.213196 -17.677673,21.213196c-9.763107,0 -17.677673,-9.497467 -17.677673,-21.213196c0,-11.715729 7.914566,-21.213211 17.677673,-21.213211c9.763107,0 17.677673,9.497482 17.677673,21.213211z" id="path3978"/>
  </g>
  <g transform="matrix(0.858579 0 0 0.860897 165.005 116.389)" id="g3980">
   <path fill="#cccccc" d="m111.475586,60.653866c0,17.015705 -13.567818,30.80965 -30.304573,30.80965c-16.736755,0 -30.304573,-13.793945 -30.304573,-30.80965c0,-17.015705 13.567818,-30.809656 30.304573,-30.809656c16.736755,0 30.304573,13.793951 30.304573,30.809656z" id="path3982"/>
   <path fill="#f9f9f9" id="path3984" d="m90.437012,35.950668c10.641899,2.882553 18.5,12.958817 18.5,24.9375c0,14.226242 -11.08165,25.75 -24.75,25.75c-4.094543,0 -7.941994,-1.042786 -11.34375,-2.875c2.014023,0.550949 4.132332,0.84375 6.3125,0.84375c13.66835,0 24.75,-11.523758 24.75,-25.75c0,-9.987213 -5.485268,-18.632294 -13.46875,-22.90625z"/>
   <path fill="#f9f9f9" d="m73.343262,35.950668c-10.641899,2.882553 -18.5,12.958817 -18.5,24.9375c0,14.226242 11.08165,25.75 24.75,25.75c4.094543,0 7.941994,-1.042786 11.34375,-2.875c-2.014023,0.550949 -4.132332,0.84375 -6.3125,0.84375c-13.66835,0 -24.75,-11.523758 -24.75,-25.75c0,-9.987213 5.485268,-18.632294 13.46875,-22.90625z" id="path3986"/>
   <path fill="#e8e8e8" d="m96.323303,60.148769c0,11.715733 -7.914558,21.213207 -17.677666,21.213207c-9.763107,0 -17.677673,-9.497475 -17.677673,-21.213207c0,-11.715729 7.914566,-21.213203 17.677673,-21.213203c9.763107,0 17.677666,9.497475 17.677666,21.213203z" id="path3988"/>
  </g>
  <g transform="matrix(0.717157 0 0 0.768162 271.244 137.669)" id="g3990">
   <path fill="#cccccc" d="m107.562355,43.063759c0,17.015705 -13.567818,30.809654 -30.304573,30.809654c-16.736752,0 -30.304573,-13.793949 -30.304573,-30.809654c0,-17.015703 13.567822,-30.809655 30.304573,-30.809655c16.736755,0 30.304573,13.793952 30.304573,30.809655z" id="path3992"/>
   <path fill="#f9f9f9" id="path3994" d="m86.523781,18.360565c10.641899,2.882553 18.5,12.958817 18.5,24.9375c0,14.226242 -11.08165,25.75 -24.75,25.75c-4.094543,0 -7.941994,-1.042786 -11.34375,-2.875c2.014023,0.550949 4.132332,0.84375 6.3125,0.84375c13.66835,0 24.75,-11.523758 24.75,-25.75c0,-9.987213 -5.485268,-18.632294 -13.46875,-22.90625z"/>
   <path fill="#f9f9f9" d="m69.430031,18.360565c-10.641899,2.882553 -18.499996,12.958817 -18.499996,24.9375c0,14.226242 11.081646,25.75 24.749996,25.75c4.094543,0 7.941994,-1.042786 11.34375,-2.875c-2.014023,0.550949 -4.132332,0.84375 -6.3125,0.84375c-13.66835,0 -24.749996,-11.523758 -24.749996,-25.75c0,-9.987213 5.485264,-18.632294 13.468746,-22.90625z" id="path3996"/>
   <path fill="#e8e8e8" d="m92.41008,42.55867c0,11.715729 -7.914566,21.2132 -17.677673,21.2132c-9.763107,0 -17.67767,-9.497471 -17.67767,-21.2132c0,-11.715734 7.914562,-21.213207 17.67767,-21.213207c9.763107,0 17.677673,9.497473 17.677673,21.213207z" id="path3998"/>
  </g>
  <g id="g5988" transform="matrix(0.902296 -0.431116 0.431116 0.902296 419.894 -124.143)">
   <g opacity="0.715976" fill="#cccccc" stroke="#000000" stroke-width="0.344" stroke-miterlimit="4" transform="matrix(1 0.000645406 -0.000645406 1 -31.8325 245.46)" id="g5990">
    <path fill="#e9e9ff" fill-rule="evenodd" d="m-189.679092,72.643105l5.995544,-7.177078l0,24.082504l-5.995544,4.273773l0,-21.179199z" id="path5992"/>
    <path fill="#353564" fill-rule="evenodd" d="m-213.458527,70.077446l0,21.959854l23.779434,1.785019l0,-21.179199l-23.779434,-2.565674z" id="path5994"/>
    <path fill="#4d4d9f" fill-rule="evenodd" d="m-213.458527,70.077446l2.851044,-7.845947l26.923935,3.234543l-5.995544,7.177078l-23.779434,-2.565674z" id="path5996"/>
    <path fill="#afafde" fill-rule="evenodd" d="m-213.458527,92.037285l2.851044,-4.708817l26.923935,2.220062l-5.995544,4.273773l-23.779434,-1.785019z" id="path5998"/>
    <path fill="#d7d7ff" fill-rule="evenodd" d="m-210.607468,62.231499l0,25.096985l26.923935,2.220047l0,-24.082504l-26.923935,-3.234528z" id="path6000"/>
    <path fill="#8686bf" fill-rule="evenodd" d="m-213.458527,70.077446l2.851044,-7.845947l0,25.096985l-2.851044,4.708817l0,-21.959854z" id="path6002"/>
   </g>
   <g opacity="0.715976" fill="#cccccc" stroke="#000000" stroke-width="0.344" stroke-miterlimit="4" transform="matrix(0.998787 0.0492434 -0.0492434 0.998787 70.4767 327.783)" id="g6004">
    <path fill="#e9e9ff" fill-rule="evenodd" d="m-195.58342,70.908318l5.995544,-7.177078l0,24.082504l-5.995544,4.273773l0,-21.179199z" id="path6006"/>
    <path fill="#353564" fill-rule="evenodd" d="m-219.362854,68.342659l0,21.959854l23.779434,1.785019l0,-21.179199l-23.779434,-2.565674z" id="path6008"/>
    <path fill="#4d4d9f" fill-rule="evenodd" d="m-219.362854,68.342659l2.851044,-7.845947l26.923935,3.234543l-5.995544,7.177078l-23.779434,-2.565674z" id="path6010"/>
    <path fill="#afafde" fill-rule="evenodd" d="m-219.362854,90.302498l2.851044,-4.708817l26.923935,2.220062l-5.995544,4.273773l-23.779434,-1.785019z" id="path6012"/>
    <path fill="#d7d7ff" fill-rule="evenodd" d="m-216.511795,60.496712l0,25.096985l26.923935,2.220047l0,-24.082504l-26.923935,-3.234528z" id="path6014"/>
    <path fill="#8686bf" fill-rule="evenodd" d="m-219.362854,68.342659l2.851044,-7.845947l0,25.096985l-2.851044,4.708817l0,-21.959854z" id="path6016"/>
   </g>
   <g opacity="0.715976" fill="#cccccc" stroke="#000000" stroke-width="0.344" stroke-miterlimit="4" transform="matrix(0.994309 0.10654 -0.10654 0.994309 55.0443 311.612)" id="g6018">
    <path fill="#e9e9ff" fill-rule="evenodd" d="m-202.662521,69.230431l5.995544,-7.177078l0,24.082504l-5.995544,4.273773l0,-21.179199z" id="path6020"/>
    <path fill="#353564" fill-rule="evenodd" d="m-226.441956,66.664772l0,21.959854l23.779434,1.785019l0,-21.179199l-23.779434,-2.565674z" id="path6022"/>
    <path fill="#4d4d9f" fill-rule="evenodd" d="m-226.441956,66.664772l2.851044,-7.845947l26.923935,3.234543l-5.995544,7.177078l-23.779434,-2.565674z" id="path6024"/>
    <path fill="#afafde" fill-rule="evenodd" d="m-226.441956,88.624611l2.851044,-4.708817l26.923935,2.220062l-5.995544,4.273773l-23.779434,-1.785019z" id="path6026"/>
    <path fill="#d7d7ff" fill-rule="evenodd" d="m-223.590897,58.818825l0,25.096985l26.923935,2.220047l0,-24.082504l-26.923935,-3.234528z" id="path6028"/>
    <path fill="#8686bf" fill-rule="evenodd" d="m-226.441956,66.664772l2.851044,-7.845947l0,25.096985l-2.851044,4.708817l0,-21.959854z" id="path6030"/>
   </g>
   <g opacity="0.715976" fill="#cccccc" stroke="#000000" stroke-width="0.344" stroke-miterlimit="4" transform="matrix(0.997442 0.0714883 -0.0714883 0.997442 34.4429 280.998)" id="g6032">
    <path fill="#e9e9ff" fill-rule="evenodd" d="m-198.316605,70.209496l5.995544,-7.177078l0,24.082504l-5.995544,4.273773l0,-21.179199z" id="path6034"/>
    <path fill="#353564" fill-rule="evenodd" d="m-222.096039,67.643837l0,21.959854l23.779434,1.785019l0,-21.179199l-23.779434,-2.565674z" id="path6036"/>
    <path fill="#4d4d9f" fill-rule="evenodd" d="m-222.096039,67.643837l2.851044,-7.845947l26.923935,3.234543l-5.995544,7.177078l-23.779434,-2.565674z" id="path6038"/>
    <path fill="#afafde" fill-rule="evenodd" d="m-222.096039,89.603676l2.851044,-4.708817l26.923935,2.220062l-5.995544,4.273773l-23.779434,-1.785019z" id="path6040"/>
    <path fill="#d7d7ff" fill-rule="evenodd" d="m-219.24498,59.79789l0,25.096985l26.923935,2.220047l0,-24.082504l-26.923935,-3.234528z" id="path6042"/>
    <path fill="#8686bf" fill-rule="evenodd" d="m-222.096039,67.643837l2.851044,-7.845947l0,25.096985l-2.851044,4.708817l0,-21.959854z" id="path6044"/>
   </g>
   <g opacity="0.715976" fill="#cccccc" stroke="#000000" stroke-width="0.344" stroke-miterlimit="4" transform="matrix(0.960719 0.277522 -0.277522 0.960719 77.313 326.095)" id="g6046">
    <path fill="#e9e9ff" fill-rule="evenodd" d="m-224.570572,66.660965l5.995544,-7.177078l0,24.082504l-5.995544,4.273773l0,-21.179199z" id="path6048"/>
    <path fill="#353564" fill-rule="evenodd" d="m-248.350006,64.095306l0,21.959854l23.779434,1.785019l0,-21.179199l-23.779434,-2.565674z" id="path6050"/>
    <path fill="#4d4d9f" fill-rule="evenodd" d="m-248.350006,64.095306l2.851044,-7.845947l26.923935,3.234543l-5.995544,7.177078l-23.779434,-2.565674z" id="path6052"/>
    <path fill="#afafde" fill-rule="evenodd" d="m-248.350006,86.055145l2.851044,-4.708817l26.923935,2.220062l-5.995544,4.273773l-23.779434,-1.785019z" id="path6054"/>
    <path fill="#d7d7ff" fill-rule="evenodd" d="m-245.498947,56.249359l0,25.096985l26.923935,2.220047l0,-24.082504l-26.923935,-3.234528z" id="path6056"/>
    <path fill="#8686bf" fill-rule="evenodd" d="m-248.350006,64.095306l2.851044,-7.845947l0,25.096985l-2.851044,4.708817l0,-21.959854z" id="path6058"/>
   </g>
   <g opacity="0.715976" fill="#cccccc" stroke="#000000" stroke-width="0.344" stroke-miterlimit="4" transform="matrix(0.900829 -0.434175 0.434175 0.900829 -62.9006 163.745)" id="g6060">
    <path fill="#e9e9ff" fill-rule="evenodd" d="m-141.109863,101.425667l5.995544,-7.177078l0,24.082504l-5.995544,4.273773l0,-21.179199z" id="path6062"/>
    <path fill="#353564" fill-rule="evenodd" d="m-164.889297,98.860008l0,21.959854l23.779434,1.785019l0,-21.179199l-23.779434,-2.565674z" id="path6064"/>
    <path fill="#4d4d9f" fill-rule="evenodd" d="m-164.889297,98.860008l2.851044,-7.845947l26.923935,3.234543l-5.995544,7.177078l-23.779434,-2.565674z" id="path6066"/>
    <path fill="#afafde" fill-rule="evenodd" d="m-164.889297,120.819847l2.851044,-4.708817l26.923935,2.220062l-5.995544,4.273773l-23.779434,-1.785019z" id="path6068"/>
    <path fill="#d7d7ff" fill-rule="evenodd" d="m-162.038239,91.014061l0,25.096985l26.923935,2.220047l0,-24.082504l-26.923935,-3.234528z" id="path6070"/>
    <path fill="#8686bf" fill-rule="evenodd" d="m-164.889297,98.860008l2.851044,-7.845947l0,25.096985l-2.851044,4.708817l0,-21.959854z" id="path6072"/>
   </g>
   <g opacity="0.715976" fill="#cccccc" stroke="#000000" stroke-width="0.344" stroke-miterlimit="4" transform="matrix(0.99681 0.079808 -0.079808 0.99681 -27.7715 257.325)" id="g6074">
    <path fill="#e9e9ff" fill-rule="evenodd" d="m-199.343781,69.963539l5.995544,-7.177078l0,24.082504l-5.995544,4.273773l0,-21.179199z" id="path6076"/>
    <path fill="#353564" fill-rule="evenodd" d="m-223.123215,67.397881l0,21.959854l23.779434,1.785019l0,-21.179199l-23.779434,-2.565674z" id="path6078"/>
    <path fill="#4d4d9f" fill-rule="evenodd" d="m-223.123215,67.397881l2.851044,-7.845947l26.923935,3.234543l-5.995544,7.177078l-23.779434,-2.565674z" id="path6080"/>
    <path fill="#afafde" fill-rule="evenodd" d="m-223.123215,89.357719l2.851044,-4.708817l26.923935,2.220062l-5.995544,4.273773l-23.779434,-1.785019z" id="path6082"/>
    <path fill="#d7d7ff" fill-rule="evenodd" d="m-220.272156,59.551933l0,25.096985l26.923935,2.220047l0,-24.082504l-26.923935,-3.234528z" id="path6084"/>
    <path fill="#8686bf" fill-rule="evenodd" d="m-223.123215,67.397881l2.851044,-7.845947l0,25.096985l-2.851044,4.708817l0,-21.959854z" id="path6086"/>
   </g>
   <g opacity="0.715976" fill="#cccccc" stroke="#000000" stroke-width="0.344" stroke-miterlimit="4" transform="matrix(0.999203 0.0399081 -0.0399081 0.999203 34.9664 256.084)" id="g6088">
    <path fill="#e9e9ff" fill-rule="evenodd" d="m-194.442139,71.219429l5.995544,-7.177078l0,24.082504l-5.995544,4.273773l0,-21.179199z" id="path6090"/>
    <path fill="#353564" fill-rule="evenodd" d="m-218.221573,68.65377l0,21.959854l23.779434,1.785019l0,-21.179199l-23.779434,-2.565674z" id="path6092"/>
    <path fill="#4d4d9f" fill-rule="evenodd" d="m-218.221573,68.65377l2.851044,-7.845947l26.923935,3.234543l-5.995544,7.177078l-23.779434,-2.565674z" id="path6094"/>
    <path fill="#afafde" fill-rule="evenodd" d="m-218.221573,90.613609l2.851044,-4.708817l26.923935,2.220062l-5.995544,4.273773l-23.779434,-1.785019z" id="path6096"/>
    <path fill="#d7d7ff" fill-rule="evenodd" d="m-215.370514,60.807823l0,25.096985l26.923935,2.220047l0,-24.082504l-26.923935,-3.234528z" id="path6098"/>
    <path fill="#8686bf" fill-rule="evenodd" d="m-218.221573,68.65377l2.851044,-7.845947l0,25.096985l-2.851044,4.708817l0,-21.959854z" id="path6100"/>
   </g>
   <g opacity="0.715976" fill="#cccccc" stroke="#000000" stroke-width="0.344" stroke-miterlimit="4" transform="matrix(0.981751 0.190172 -0.190172 0.981751 39.8285 307.13)" id="g6102">
    <path fill="#e9e9ff" fill-rule="evenodd" d="m-213.228577,67.506966l5.995544,-7.177078l0,24.082504l-5.995544,4.273773l0,-21.179199z" id="path6104"/>
    <path fill="#353564" fill-rule="evenodd" d="m-237.008011,64.941307l0,21.959854l23.779434,1.785019l0,-21.179199l-23.779434,-2.565674z" id="path6106"/>
    <path fill="#4d4d9f" fill-rule="evenodd" d="m-237.008011,64.941307l2.851044,-7.845947l26.923935,3.234543l-5.995544,7.177078l-23.779434,-2.565674z" id="path6108"/>
    <path fill="#afafde" fill-rule="evenodd" d="m-237.008011,86.901146l2.851044,-4.708817l26.923935,2.220062l-5.995544,4.273773l-23.779434,-1.785019z" id="path6110"/>
    <path fill="#d7d7ff" fill-rule="evenodd" d="m-234.156952,57.09536l0,25.096985l26.923935,2.220047l0,-24.082504l-26.923935,-3.234528z" id="path6112"/>
    <path fill="#8686bf" fill-rule="evenodd" d="m-237.008011,64.941307l2.851044,-7.845947l0,25.096985l-2.851044,4.708817l0,-21.959854z" id="path6114"/>
   </g>
   <g opacity="0.715976" fill="#cccccc" stroke="#000000" stroke-width="0.344" stroke-miterlimit="4" transform="matrix(0.97303 -0.230678 0.230678 0.97303 -29.2561 216.082)" id="g6116">
    <path fill="#e9e9ff" fill-rule="evenodd" d="m-162.842224,84.847038l5.995544,-7.177078l0,24.082504l-5.995544,4.273773l0,-21.179199z" id="path6118"/>
    <path fill="#353564" fill-rule="evenodd" d="m-186.621674,82.28138l0,21.959854l23.779449,1.785019l0,-21.179199l-23.779449,-2.565674z" id="path6120"/>
    <path fill="#4d4d9f" fill-rule="evenodd" d="m-186.621674,82.28138l2.851044,-7.845947l26.92395,3.234543l-5.995544,7.177078l-23.779449,-2.565674z" id="path6122"/>
    <path fill="#afafde" fill-rule="evenodd" d="m-186.621674,104.241219l2.851044,-4.708817l26.92395,2.220062l-5.995544,4.273773l-23.779449,-1.785019z" id="path6124"/>
    <path fill="#d7d7ff" fill-rule="evenodd" d="m-183.770599,74.435432l0,25.096985l26.92392,2.220047l0,-24.082504l-26.92392,-3.234528z" id="path6126"/>
    <path fill="#8686bf" fill-rule="evenodd" d="m-186.621674,82.28138l2.851044,-7.845947l0,25.096985l-2.851044,4.708817l0,-21.959854z" id="path6128"/>
   </g>
   <g opacity="0.715976" fill="#cccccc" stroke="#000000" stroke-width="0.344" stroke-miterlimit="4" transform="matrix(0.989905 0.14173 -0.14173 0.989905 -0.403666 317.835)" id="g6130">
    <path fill="#e9e9ff" fill-rule="evenodd" d="m-207.07428,68.399078l5.995544,-7.177078l0,24.082504l-5.995544,4.273773l0,-21.179199z" id="path6132"/>
    <path fill="#353564" fill-rule="evenodd" d="m-230.853714,65.83342l0,21.959854l23.779434,1.785019l0,-21.179199l-23.779434,-2.565674z" id="path6134"/>
    <path fill="#4d4d9f" fill-rule="evenodd" d="m-230.853714,65.83342l2.851044,-7.845947l26.923935,3.234543l-5.995544,7.177078l-23.779434,-2.565674z" id="path6136"/>
    <path fill="#afafde" fill-rule="evenodd" d="m-230.853714,87.793259l2.851044,-4.708817l26.923935,2.220062l-5.995544,4.273773l-23.779434,-1.785019z" id="path6138"/>
    <path fill="#d7d7ff" fill-rule="evenodd" d="m-228.002655,57.987473l0,25.096985l26.923935,2.220047l0,-24.082504l-26.923935,-3.234528z" id="path6140"/>
    <path fill="#8686bf" fill-rule="evenodd" d="m-230.853714,65.83342l2.851044,-7.845947l0,25.096985l-2.851044,4.708817l0,-21.959854z" id="path6142"/>
   </g>
   <g opacity="0.715976" fill="#cccccc" stroke="#000000" stroke-width="0.344" stroke-miterlimit="4" transform="matrix(0.99986 -0.0167537 0.0167537 0.99986 -57.7835 271.549)" id="g6144">
    <path fill="#e9e9ff" fill-rule="evenodd" d="m-187.587448,73.333435l5.995544,-7.177078l0,24.082504l-5.995544,4.273773l0,-21.179199z" id="path6146"/>
    <path fill="#353564" fill-rule="evenodd" d="m-211.366882,70.767776l0,21.959854l23.779434,1.785019l0,-21.179199l-23.779434,-2.565674z" id="path6148"/>
    <path fill="#4d4d9f" fill-rule="evenodd" d="m-211.366882,70.767776l2.851044,-7.845947l26.923935,3.234543l-5.995544,7.177078l-23.779434,-2.565674z" id="path6150"/>
    <path fill="#afafde" fill-rule="evenodd" d="m-211.366882,92.727615l2.851044,-4.708817l26.923935,2.220062l-5.995544,4.273773l-23.779434,-1.785019z" id="path6152"/>
    <path fill="#d7d7ff" fill-rule="evenodd" d="m-208.515823,62.921829l0,25.096985l26.923935,2.220047l0,-24.082504l-26.923935,-3.234528z" id="path6154"/>
    <path fill="#8686bf" fill-rule="evenodd" d="m-211.366882,70.767776l2.851044,-7.845947l0,25.096985l-2.851044,4.708817l0,-21.959854z" id="path6156"/>
   </g>
   <g opacity="0.715976" fill="#cccccc" stroke="#000000" stroke-width="0.344" stroke-miterlimit="4" transform="matrix(0.959414 -0.282003 0.282003 0.959414 -83.6124 222.429)" id="g6158">
    <path fill="#e9e9ff" fill-rule="evenodd" d="m-157.183228,88.474731l5.995544,-7.177078l0,24.082504l-5.995544,4.273773l0,-21.179199z" id="path6160"/>
    <path fill="#353564" fill-rule="evenodd" d="m-180.962662,85.909073l0,21.959854l23.779434,1.785019l0,-21.179199l-23.779434,-2.565674z" id="path6162"/>
    <path fill="#4d4d9f" fill-rule="evenodd" d="m-180.962662,85.909073l2.851044,-7.845947l26.923935,3.234543l-5.995544,7.177078l-23.779434,-2.565674z" id="path6164"/>
    <path fill="#afafde" fill-rule="evenodd" d="m-180.962662,107.868912l2.851044,-4.708817l26.923935,2.220062l-5.995544,4.273773l-23.779434,-1.785019z" id="path6166"/>
    <path fill="#d7d7ff" fill-rule="evenodd" d="m-178.111603,78.063126l0,25.096985l26.923935,2.220047l0,-24.082504l-26.923935,-3.234528z" id="path6168"/>
    <path fill="#8686bf" fill-rule="evenodd" d="m-180.962662,85.909073l2.851044,-7.845947l0,25.096985l-2.851044,4.708817l0,-21.959854z" id="path6170"/>
   </g>
   <g opacity="0.715976" fill="#cccccc" stroke="#000000" stroke-width="0.344" stroke-miterlimit="4" transform="matrix(0.961835 -0.273629 0.273629 0.961835 -109.354 224.101)" id="g6172">
    <path fill="#e9e9ff" fill-rule="evenodd" d="m-158.098709,87.858765l5.995544,-7.177078l0,24.082504l-5.995544,4.273773l0,-21.179199z" id="path6174"/>
    <path fill="#353564" fill-rule="evenodd" d="m-181.878143,85.293106l0,21.959854l23.779434,1.785019l0,-21.179199l-23.779434,-2.565674z" id="path6176"/>
    <path fill="#4d4d9f" fill-rule="evenodd" d="m-181.878143,85.293106l2.851044,-7.845947l26.923935,3.234543l-5.995544,7.177078l-23.779434,-2.565674z" id="path6178"/>
    <path fill="#afafde" fill-rule="evenodd" d="m-181.878143,107.252945l2.851044,-4.708817l26.923935,2.220062l-5.995544,4.273773l-23.779434,-1.785019z" id="path6180"/>
    <path fill="#d7d7ff" fill-rule="evenodd" d="m-179.027084,77.447159l0,25.096985l26.923935,2.220047l0,-24.082504l-26.923935,-3.234528z" id="path6182"/>
    <path fill="#8686bf" fill-rule="evenodd" d="m-181.878143,85.293106l2.851044,-7.845947l0,25.096985l-2.851044,4.708817l0,-21.959854z" id="path6184"/>
   </g>
   <g opacity="0.715976" fill="#cccccc" stroke="#000000" stroke-width="0.344" stroke-miterlimit="4" transform="matrix(0.994733 -0.102498 0.102498 0.994733 -34.8794 261.665)" id="g6186">
    <path fill="#e9e9ff" fill-rule="evenodd" d="m-177.451401,77.270012l5.995544,-7.177078l0,24.082504l-5.995544,4.273773l0,-21.179199z" id="path6188"/>
    <path fill="#353564" fill-rule="evenodd" d="m-201.230835,74.704353l0,21.959854l23.779434,1.785019l0,-21.179199l-23.779434,-2.565674z" id="path6190"/>
    <path fill="#4d4d9f" fill-rule="evenodd" d="m-201.230835,74.704353l2.851044,-7.845947l26.923935,3.234543l-5.995544,7.177078l-23.779434,-2.565674z" id="path6192"/>
    <path fill="#afafde" fill-rule="evenodd" d="m-201.230835,96.664192l2.851044,-4.708817l26.923935,2.220062l-5.995544,4.273773l-23.779434,-1.785019z" id="path6194"/>
    <path fill="#d7d7ff" fill-rule="evenodd" d="m-198.379776,66.858406l0,25.096985l26.923935,2.220047l0,-24.082504l-26.923935,-3.234528z" id="path6196"/>
    <path fill="#8686bf" fill-rule="evenodd" d="m-201.230835,74.704353l2.851044,-7.845947l0,25.096985l-2.851044,4.708817l0,-21.959854z" id="path6198"/>
   </g>
   <g opacity="0.715976" fill="#cccccc" stroke="#000000" stroke-width="0.344" stroke-miterlimit="4" transform="matrix(0.997816 0.0660521 -0.0660521 0.997816 -17.0634 326.279)" id="g6200">
    <path fill="#e9e9ff" fill-rule="evenodd" d="m-197.646896,70.374733l5.995544,-7.177078l0,24.082504l-5.995544,4.273773l0,-21.179199z" id="path6202"/>
    <path fill="#353564" fill-rule="evenodd" d="m-221.426331,67.809074l0,21.959854l23.779434,1.785019l0,-21.179199l-23.779434,-2.565674z" id="path6204"/>
    <path fill="#4d4d9f" fill-rule="evenodd" d="m-221.426331,67.809074l2.851044,-7.845947l26.923935,3.234543l-5.995544,7.177078l-23.779434,-2.565674z" id="path6206"/>
    <path fill="#afafde" fill-rule="evenodd" d="m-221.426331,89.768913l2.851044,-4.708817l26.923935,2.220062l-5.995544,4.273773l-23.779434,-1.785019z" id="path6208"/>
    <path fill="#d7d7ff" fill-rule="evenodd" d="m-218.575272,59.963127l0,25.096985l26.923935,2.220047l0,-24.082504l-26.923935,-3.234528z" id="path6210"/>
    <path fill="#8686bf" fill-rule="evenodd" d="m-221.426331,67.809074l2.851044,-7.845947l0,25.096985l-2.851044,4.708817l0,-21.959854z" id="path6212"/>
   </g>
  </g>
  <g id="g5874">
   <g opacity="0.715976" fill="#cccccc" stroke="#000000" stroke-width="0.344" stroke-miterlimit="4" id="g5650" transform="matrix(1 0.000645406 -0.000645406 1 -31.8325 245.46)">
    <path fill="#e9e9ff" fill-rule="evenodd" id="path5652" d="m271.779633,-16.529633l5.995544,-7.177078l0,24.082504l-5.995544,4.273773l0,-21.179199z"/>
    <path fill="#353564" fill-rule="evenodd" id="path5654" d="m248.000183,-19.095291l0,21.959854l23.779449,1.785019l0,-21.179199l-23.779449,-2.565674z"/>
    <path fill="#4d4d9f" fill-rule="evenodd" id="path5656" d="m248.000183,-19.095291l2.851044,-7.845947l26.92395,3.234543l-5.995544,7.177078l-23.779449,-2.565674z"/>
    <path fill="#afafde" fill-rule="evenodd" id="path5658" d="m248.000183,2.864548l2.851044,-4.708817l26.92395,2.220062l-5.995544,4.273773l-23.779449,-1.785019z"/>
    <path fill="#d7d7ff" fill-rule="evenodd" id="path5660" d="m250.851257,-26.941238l0,25.096985l26.92395,2.220047l0,-24.082504l-26.92395,-3.234528z"/>
    <path fill="#8686bf" fill-rule="evenodd" id="path5662" d="m248.000183,-19.095291l2.851044,-7.845947l0,25.096985l-2.851044,4.708817l0,-21.959854z"/>
   </g>
   <g opacity="0.715976" fill="#cccccc" stroke="#000000" stroke-width="0.344" stroke-miterlimit="4" id="g5664" transform="matrix(0.998787 0.0492434 -0.0492434 0.998787 70.4767 327.783)">
    <path fill="#e9e9ff" fill-rule="evenodd" id="path5666" d="m260.996338,-40.585396l5.995544,-7.177078l0,24.082504l-5.995544,4.273773l0,-21.179199z"/>
    <path fill="#353564" fill-rule="evenodd" id="path5668" d="m237.216888,-43.151054l0,21.959854l23.779449,1.785019l0,-21.179199l-23.779449,-2.565674z"/>
    <path fill="#4d4d9f" fill-rule="evenodd" id="path5670" d="m237.216888,-43.151054l2.851044,-7.845947l26.92395,3.234543l-5.995544,7.177078l-23.779449,-2.565674z"/>
    <path fill="#afafde" fill-rule="evenodd" id="path5672" d="m237.216888,-21.191216l2.851044,-4.708817l26.92395,2.220062l-5.995544,4.273773l-23.779449,-1.785019z"/>
    <path fill="#d7d7ff" fill-rule="evenodd" id="path5674" d="m240.067963,-50.997002l0,25.096985l26.92392,2.220047l0,-24.082504l-26.92392,-3.234528z"/>
    <path fill="#8686bf" fill-rule="evenodd" id="path5676" d="m237.216888,-43.151054l2.851044,-7.845947l0,25.096985l-2.851044,4.708817l0,-21.959854z"/>
   </g>
   <g opacity="0.715976" fill="#cccccc" stroke="#000000" stroke-width="0.344" stroke-miterlimit="4" id="g5678" transform="matrix(0.994309 0.10654 -0.10654 0.994309 55.0443 311.612)">
    <path fill="#e9e9ff" fill-rule="evenodd" id="path5680" d="m246.758179,-68.308464l5.995544,-7.177078l0,24.082504l-5.995544,4.273773l0,-21.179199z"/>
    <path fill="#353564" fill-rule="evenodd" id="path5682" d="m222.978729,-70.874123l0,21.959854l23.779449,1.785019l0,-21.179199l-23.779449,-2.565674z"/>
    <path fill="#4d4d9f" fill-rule="evenodd" id="path5684" d="m222.978729,-70.874123l2.851044,-7.845947l26.92395,3.234543l-5.995544,7.177078l-23.779449,-2.565674z"/>
    <path fill="#afafde" fill-rule="evenodd" id="path5686" d="m222.978729,-48.914284l2.851044,-4.708817l26.92395,2.220062l-5.995544,4.273773l-23.779449,-1.785019z"/>
    <path fill="#d7d7ff" fill-rule="evenodd" id="path5688" d="m225.829803,-78.72007l0,25.096985l26.923935,2.220047l0,-24.082504l-26.923935,-3.234528z"/>
    <path fill="#8686bf" fill-rule="evenodd" id="path5690" d="m222.978729,-70.874123l2.851044,-7.845947l0,25.096985l-2.851044,4.708817l0,-21.959854z"/>
   </g>
   <g opacity="0.715976" fill="#cccccc" stroke="#000000" stroke-width="0.344" stroke-miterlimit="4" id="g5692" transform="matrix(0.997442 0.0714883 -0.0714883 0.997442 34.4429 280.998)">
    <path fill="#e9e9ff" fill-rule="evenodd" id="path5694" d="m255.665192,-51.431007l5.995544,-7.177078l0,24.082504l-5.995544,4.273773l0,-21.179199z"/>
    <path fill="#353564" fill-rule="evenodd" id="path5696" d="m231.885773,-53.996666l0,21.959854l23.779419,1.785019l0,-21.179199l-23.779419,-2.565674z"/>
    <path fill="#4d4d9f" fill-rule="evenodd" id="path5698" d="m231.885773,-53.996666l2.851044,-7.845947l26.92392,3.234543l-5.995544,7.177078l-23.779419,-2.565674z"/>
    <path fill="#afafde" fill-rule="evenodd" id="path5700" d="m231.885773,-32.036827l2.851044,-4.708817l26.92392,2.220062l-5.995544,4.273773l-23.779419,-1.785019z"/>
    <path fill="#d7d7ff" fill-rule="evenodd" id="path5702" d="m234.736816,-61.842613l0,25.096985l26.92395,2.220047l0,-24.082504l-26.92395,-3.234528z"/>
    <path fill="#8686bf" fill-rule="evenodd" id="path5704" d="m231.885773,-53.996666l2.851044,-7.845947l0,25.096985l-2.851044,4.708817l0,-21.959854z"/>
   </g>
   <g opacity="0.715976" fill="#cccccc" stroke="#000000" stroke-width="0.344" stroke-miterlimit="4" id="g5706" transform="matrix(0.960719 0.277522 -0.277522 0.960719 77.313 326.095)">
    <path fill="#e9e9ff" fill-rule="evenodd" id="path5708" d="m194.152222,-146.803726l5.995544,-7.177078l0,24.082504l-5.995544,4.273773l0,-21.179199z"/>
    <path fill="#353564" fill-rule="evenodd" id="path5710" d="m170.372772,-149.369385l0,21.959854l23.779449,1.785019l0,-21.179199l-23.779449,-2.565674z"/>
    <path fill="#4d4d9f" fill-rule="evenodd" id="path5712" d="m170.372772,-149.369385l2.851044,-7.845947l26.92395,3.234543l-5.995544,7.177078l-23.779449,-2.565674z"/>
    <path fill="#afafde" fill-rule="evenodd" id="path5714" d="m170.372772,-127.409546l2.851044,-4.708817l26.92395,2.220062l-5.995544,4.273773l-23.779449,-1.785019z"/>
    <path fill="#d7d7ff" fill-rule="evenodd" id="path5716" d="m173.223816,-157.215332l0,25.096985l26.92395,2.220047l0,-24.082504l-26.92395,-3.234528z"/>
    <path fill="#8686bf" fill-rule="evenodd" id="path5718" d="m170.372772,-149.369385l2.851044,-7.845947l0,25.096985l-2.851044,4.708817l0,-21.959854z"/>
   </g>
   <g opacity="0.715976" fill="#cccccc" stroke="#000000" stroke-width="0.344" stroke-miterlimit="4" id="g5720" transform="matrix(0.900829 -0.434175 0.434175 0.900829 -62.9006 163.745)">
    <path fill="#e9e9ff" fill-rule="evenodd" id="path5722" d="m313.224304,221.7435l5.995544,-7.177078l0,24.082504l-5.995544,4.273773l0,-21.179199z"/>
    <path fill="#353564" fill-rule="evenodd" id="path5724" d="m289.444855,219.177841l0,21.959854l23.779449,1.785019l0,-21.179199l-23.779449,-2.565674z"/>
    <path fill="#4d4d9f" fill-rule="evenodd" id="path5726" d="m289.444855,219.177841l2.851044,-7.845947l26.92395,3.234543l-5.995544,7.177078l-23.779449,-2.565674z"/>
    <path fill="#afafde" fill-rule="evenodd" id="path5728" d="m289.444855,241.13768l2.851044,-4.708817l26.92395,2.220062l-5.995544,4.273773l-23.779449,-1.785019z"/>
    <path fill="#d7d7ff" fill-rule="evenodd" id="path5730" d="m292.295929,211.331894l0,25.096985l26.92392,2.220047l0,-24.082504l-26.92392,-3.234528z"/>
    <path fill="#8686bf" fill-rule="evenodd" id="path5732" d="m289.444855,219.177841l2.851044,-7.845947l0,25.096985l-2.851044,4.708817l0,-21.959854z"/>
   </g>
   <g opacity="0.715976" fill="#cccccc" stroke="#000000" stroke-width="0.344" stroke-miterlimit="4" id="g5734" transform="matrix(0.99681 0.079808 -0.079808 0.99681 -27.7715 257.325)">
    <path fill="#e9e9ff" fill-rule="evenodd" id="path5736" d="m253.607315,-55.460564l5.99556,-7.177078l0,24.082504l-5.99556,4.273773l0,-21.179199z"/>
    <path fill="#353564" fill-rule="evenodd" id="path5738" d="m229.827881,-58.026222l0,21.959854l23.779434,1.785019l0,-21.179199l-23.779434,-2.565674z"/>
    <path fill="#4d4d9f" fill-rule="evenodd" id="path5740" d="m229.827881,-58.026222l2.851044,-7.845947l26.92395,3.234543l-5.99556,7.177078l-23.779434,-2.565674z"/>
    <path fill="#afafde" fill-rule="evenodd" id="path5742" d="m229.827881,-36.066383l2.851044,-4.708817l26.92395,2.220062l-5.99556,4.273773l-23.779434,-1.785019z"/>
    <path fill="#d7d7ff" fill-rule="evenodd" id="path5744" d="m232.678955,-65.872169l0,25.096985l26.92392,2.220047l0,-24.082504l-26.92392,-3.234528z"/>
    <path fill="#8686bf" fill-rule="evenodd" id="path5746" d="m229.827881,-58.026222l2.851044,-7.845947l0,25.096985l-2.851044,4.708817l0,-21.959854z"/>
   </g>
   <g opacity="0.715976" fill="#cccccc" stroke="#000000" stroke-width="0.344" stroke-miterlimit="4" id="g5748" transform="matrix(0.999203 0.0399081 -0.0399081 0.999203 34.9664 256.084)">
    <path fill="#e9e9ff" fill-rule="evenodd" id="path5750" d="m263.159576,-36.002892l5.995544,-7.177078l0,24.082504l-5.995544,4.273773l0,-21.179199z"/>
    <path fill="#353564" fill-rule="evenodd" id="path5752" d="m239.380127,-38.56855l0,21.959854l23.779449,1.785019l0,-21.179199l-23.779449,-2.565674z"/>
    <path fill="#4d4d9f" fill-rule="evenodd" id="path5754" d="m239.380127,-38.56855l2.851044,-7.845947l26.92395,3.234543l-5.995544,7.177078l-23.779449,-2.565674z"/>
    <path fill="#afafde" fill-rule="evenodd" id="path5756" d="m239.380127,-16.608711l2.851044,-4.708817l26.92395,2.220062l-5.995544,4.273773l-23.779449,-1.785019z"/>
    <path fill="#d7d7ff" fill-rule="evenodd" id="path5758" d="m242.231201,-46.414497l0,25.096985l26.92392,2.220047l0,-24.082504l-26.92392,-3.234528z"/>
    <path fill="#8686bf" fill-rule="evenodd" id="path5760" d="m239.380127,-38.56855l2.851044,-7.845947l0,25.096985l-2.851044,4.708817l0,-21.959854z"/>
   </g>
   <g opacity="0.715976" fill="#cccccc" stroke="#000000" stroke-width="0.344" stroke-miterlimit="4" id="g5762" transform="matrix(0.981751 0.190172 -0.190172 0.981751 39.8285 307.13)">
    <path fill="#e9e9ff" fill-rule="evenodd" id="path5764" d="m222.963684,-107.513702l5.995544,-7.177078l0,24.082504l-5.995544,4.273773l0,-21.179199z"/>
    <path fill="#353564" fill-rule="evenodd" id="path5766" d="m199.184265,-110.079361l0,21.959854l23.779419,1.785019l0,-21.179199l-23.779419,-2.565674z"/>
    <path fill="#4d4d9f" fill-rule="evenodd" id="path5768" d="m199.184265,-110.079361l2.851044,-7.845947l26.92392,3.234543l-5.995544,7.177078l-23.779419,-2.565674z"/>
    <path fill="#afafde" fill-rule="evenodd" id="path5770" d="m199.184265,-88.119522l2.851044,-4.708817l26.92392,2.220062l-5.995544,4.273773l-23.779419,-1.785019z"/>
    <path fill="#d7d7ff" fill-rule="evenodd" id="path5772" d="m202.035309,-117.925308l0,25.096985l26.92395,2.220047l0,-24.082504l-26.92395,-3.234528z"/>
    <path fill="#8686bf" fill-rule="evenodd" id="path5774" d="m199.184265,-110.079361l2.851044,-7.845947l0,25.096985l-2.851044,4.708817l0,-21.959854z"/>
   </g>
   <g opacity="0.715976" fill="#cccccc" stroke="#000000" stroke-width="0.344" stroke-miterlimit="4" id="g5776" transform="matrix(0.97303 -0.230678 0.230678 0.97303 -29.2561 216.082)">
    <path fill="#e9e9ff" fill-rule="evenodd" id="path5778" d="m306.728394,104.830666l5.995544,-7.177078l0,24.082504l-5.995544,4.273773l0,-21.179199z"/>
    <path fill="#353564" fill-rule="evenodd" id="path5780" d="m282.948975,102.265007l0,21.959854l23.779419,1.785019l0,-21.179199l-23.779419,-2.565674z"/>
    <path fill="#4d4d9f" fill-rule="evenodd" id="path5782" d="m282.948975,102.265007l2.851044,-7.845947l26.92392,3.234543l-5.995544,7.177078l-23.779419,-2.565674z"/>
    <path fill="#afafde" fill-rule="evenodd" id="path5784" d="m282.948975,124.224846l2.851044,-4.708817l26.92392,2.220062l-5.995544,4.273773l-23.779419,-1.785019z"/>
    <path fill="#d7d7ff" fill-rule="evenodd" id="path5786" d="m285.800018,94.41906l0,25.096985l26.92395,2.220047l0,-24.082504l-26.92395,-3.234528z"/>
    <path fill="#8686bf" fill-rule="evenodd" id="path5788" d="m282.948975,102.265007l2.851044,-7.845947l0,25.096985l-2.851044,4.708817l0,-21.959854z"/>
   </g>
   <g opacity="0.715976" fill="#cccccc" stroke="#000000" stroke-width="0.344" stroke-miterlimit="4" id="g5790" transform="matrix(0.989905 0.14173 -0.14173 0.989905 -0.403666 317.835)">
    <path fill="#e9e9ff" fill-rule="evenodd" id="path5792" d="m237.18689,-84.989212l5.995544,-7.177078l0,24.082504l-5.995544,4.273773l0,-21.179199z"/>
    <path fill="#353564" fill-rule="evenodd" id="path5794" d="m213.40744,-87.554871l0,21.959854l23.779449,1.785019l0,-21.179199l-23.779449,-2.565674z"/>
    <path fill="#4d4d9f" fill-rule="evenodd" id="path5796" d="m213.40744,-87.554871l2.851044,-7.845947l26.92395,3.234543l-5.995544,7.177078l-23.779449,-2.565674z"/>
    <path fill="#afafde" fill-rule="evenodd" id="path5798" d="m213.40744,-65.595032l2.851044,-4.708817l26.92395,2.220062l-5.995544,4.273773l-23.779449,-1.785019z"/>
    <path fill="#d7d7ff" fill-rule="evenodd" id="path5800" d="m216.258514,-95.400818l0,25.096985l26.92392,2.220047l0,-24.082504l-26.92392,-3.234528z"/>
    <path fill="#8686bf" fill-rule="evenodd" id="path5802" d="m213.40744,-87.554871l2.851044,-7.845947l0,25.096985l-2.851044,4.708817l0,-21.959854z"/>
   </g>
   <g opacity="0.715976" fill="#cccccc" stroke="#000000" stroke-width="0.344" stroke-miterlimit="4" id="g5804" transform="matrix(0.99986 -0.0167537 0.0167537 0.99986 -57.7835 271.549)">
    <path fill="#e9e9ff" fill-rule="evenodd" id="path5806" d="m275.352905,-7.79686l5.995514,-7.177078l0,24.082504l-5.995514,4.273773l0,-21.179199z"/>
    <path fill="#353564" fill-rule="evenodd" id="path5808" d="m251.573456,-10.362518l0,21.959854l23.779449,1.785019l0,-21.179199l-23.779449,-2.565674z"/>
    <path fill="#4d4d9f" fill-rule="evenodd" id="path5810" d="m251.573456,-10.362518l2.851044,-7.845947l26.92392,3.234543l-5.995514,7.177078l-23.779449,-2.565674z"/>
    <path fill="#afafde" fill-rule="evenodd" id="path5812" d="m251.573456,11.597321l2.851044,-4.708817l26.92392,2.220062l-5.995514,4.273773l-23.779449,-1.785019z"/>
    <path fill="#d7d7ff" fill-rule="evenodd" id="path5814" d="m254.4245,-18.208466l0,25.096985l26.92395,2.220047l0,-24.082504l-26.92395,-3.234528z"/>
    <path fill="#8686bf" fill-rule="evenodd" id="path5816" d="m251.573456,-10.362518l2.851044,-7.845947l0,25.096985l-2.851044,4.708817l0,-21.959854z"/>
   </g>
   <g opacity="0.715976" fill="#cccccc" stroke="#000000" stroke-width="0.344" stroke-miterlimit="4" id="g5818" transform="matrix(0.959414 -0.282003 0.282003 0.959414 -83.6124 222.429)">
    <path fill="#e9e9ff" fill-rule="evenodd" id="path5820" d="m310.664612,133.355759l5.995544,-7.177078l0,24.082504l-5.995544,4.273773l0,-21.179199z"/>
    <path fill="#353564" fill-rule="evenodd" id="path5822" d="m286.885193,130.7901l0,21.959854l23.779419,1.785019l0,-21.179199l-23.779419,-2.565674z"/>
    <path fill="#4d4d9f" fill-rule="evenodd" id="path5824" d="m286.885193,130.7901l2.851044,-7.845947l26.92392,3.234543l-5.995544,7.177078l-23.779419,-2.565674z"/>
    <path fill="#afafde" fill-rule="evenodd" id="path5826" d="m286.885193,152.749939l2.851044,-4.708817l26.92392,2.220062l-5.995544,4.273773l-23.779419,-1.785019z"/>
    <path fill="#d7d7ff" fill-rule="evenodd" id="path5828" d="m289.736267,122.944153l0,25.096985l26.92392,2.220047l0,-24.082504l-26.92392,-3.234528z"/>
    <path fill="#8686bf" fill-rule="evenodd" id="path5830" d="m286.885193,130.7901l2.851044,-7.845947l0,25.096985l-2.851044,4.708817l0,-21.959854z"/>
   </g>
   <g opacity="0.715976" fill="#cccccc" stroke="#000000" stroke-width="0.344" stroke-miterlimit="4" id="g5832" transform="matrix(0.961835 -0.273629 0.273629 0.961835 -109.354 224.101)">
    <path fill="#e9e9ff" fill-rule="evenodd" id="path5834" d="m310.12262,128.660141l5.995544,-7.177078l0,24.082504l-5.995544,4.273773l0,-21.179199z"/>
    <path fill="#353564" fill-rule="evenodd" id="path5836" d="m286.34317,126.094482l0,21.959854l23.779449,1.785019l0,-21.179199l-23.779449,-2.565674z"/>
    <path fill="#4d4d9f" fill-rule="evenodd" id="path5838" d="m286.34317,126.094482l2.851044,-7.845947l26.92395,3.234543l-5.995544,7.177078l-23.779449,-2.565674z"/>
    <path fill="#afafde" fill-rule="evenodd" id="path5840" d="m286.34317,148.054321l2.851044,-4.708817l26.92395,2.220062l-5.995544,4.273773l-23.779449,-1.785019z"/>
    <path fill="#d7d7ff" fill-rule="evenodd" id="path5842" d="m289.194214,118.248535l0,25.096985l26.92395,2.220047l0,-24.082504l-26.92395,-3.234528z"/>
    <path fill="#8686bf" fill-rule="evenodd" id="path5844" d="m286.34317,126.094482l2.851044,-7.845947l0,25.096985l-2.851044,4.708817l0,-21.959854z"/>
   </g>
   <g opacity="0.715976" fill="#cccccc" stroke="#000000" stroke-width="0.344" stroke-miterlimit="4" id="g5846" transform="matrix(0.994733 -0.102498 0.102498 0.994733 -34.8794 261.665)">
    <path fill="#e9e9ff" fill-rule="evenodd" id="path5848" d="m290.743591,36.167534l5.995544,-7.177078l0,24.082504l-5.995544,4.273773l0,-21.179199z"/>
    <path fill="#353564" fill-rule="evenodd" id="path5850" d="m266.964142,33.601875l0,21.959854l23.779449,1.785019l0,-21.179199l-23.779449,-2.565674z"/>
    <path fill="#4d4d9f" fill-rule="evenodd" id="path5852" d="m266.964142,33.601875l2.851044,-7.845947l26.92395,3.234543l-5.995544,7.177078l-23.779449,-2.565674z"/>
    <path fill="#afafde" fill-rule="evenodd" id="path5854" d="m266.964142,55.561714l2.851044,-4.708817l26.92395,2.220062l-5.995544,4.273773l-23.779449,-1.785019z"/>
    <path fill="#d7d7ff" fill-rule="evenodd" id="path5856" d="m269.815216,25.755928l0,25.096985l26.92395,2.220047l0,-24.082504l-26.92395,-3.234528z"/>
    <path fill="#8686bf" fill-rule="evenodd" id="path5858" d="m266.964142,33.601875l2.851044,-7.845947l0,25.096985l-2.851044,4.708817l0,-21.959854z"/>
   </g>
   <g opacity="0.715976" fill="#cccccc" stroke="#000000" stroke-width="0.344" stroke-miterlimit="4" id="g5860" transform="matrix(0.997816 0.0660521 -0.0660521 0.997816 -17.0634 326.279)">
    <path fill="#e9e9ff" fill-rule="evenodd" id="path5862" d="m256.990997,-48.790192l5.995544,-7.177078l0,24.082504l-5.995544,4.273773l0,-21.179199z"/>
    <path fill="#353564" fill-rule="evenodd" id="path5864" d="m233.211548,-51.35585l0,21.959854l23.779449,1.785019l0,-21.179199l-23.779449,-2.565674z"/>
    <path fill="#4d4d9f" fill-rule="evenodd" id="path5866" d="m233.211548,-51.35585l2.851044,-7.845947l26.92395,3.234543l-5.995544,7.177078l-23.779449,-2.565674z"/>
    <path fill="#afafde" fill-rule="evenodd" id="path5868" d="m233.211548,-29.396011l2.851044,-4.708817l26.92395,2.220062l-5.995544,4.273773l-23.779449,-1.785019z"/>
    <path fill="#d7d7ff" fill-rule="evenodd" id="path5870" d="m236.062592,-59.201797l0,25.096985l26.92395,2.220047l0,-24.082504l-26.92395,-3.234528z"/>
    <path fill="#8686bf" fill-rule="evenodd" id="path5872" d="m233.211548,-51.35585l2.851044,-7.845947l0,25.096985l-2.851044,4.708817l0,-21.959854z"/>
   </g>
  </g>
  <path fill="#000080" id="path3040" d="m201.105011,520.228455l-112.857147,-65.096191l-0.750366,-101.818054l-0.750381,-101.818085l9.321808,-0.164642c5.126991,-0.090485 13.8218,-0.626251 19.321793,-1.190491c5.500015,-0.56424 22.214294,-1.840576 37.142868,-2.836273c14.928574,-0.995728 32.928574,-2.319672 40,-2.942078c7.071426,-0.622437 22.5,-1.859253 34.285706,-2.748505c11.785721,-0.889221 30.428574,-2.294861 41.428574,-3.123627c11,-0.828796 26.107147,-2.050842 33.571442,-2.715729l13.571411,-1.208832l0,175.607941c0,96.584351 -0.321411,175.505127 -0.714264,175.379395c-0.392883,-0.125732 -51.5,-29.521912 -113.571442,-65.324829z"/>
  <path fill="#0000ff" id="path3042" d="m318.247864,410.729126l0,-175.376587l95,13.694366c52.25,7.531921 95.964294,13.735657 97.142883,13.786072c1.178528,0.050415 2.142822,47.356506 2.142822,105.124603l0,105.032898l-85,49.275696c-46.75,27.101624 -90.464264,52.552551 -97.142853,56.557617l-12.142853,7.281921l0,-175.376587z"/>
  <path fill="#ffffff" stroke="#000000" stroke-width="0.731466px" id="path3858" d="m86.231445,245.396881l226.211914,-9.247345l201.207703,15.412262c14.287659,7.192383 8.737915,15.078857 5.667847,21.577148l-206.875549,-9.247345l-237.547562,1.541229c-9.497147,-9.500732 -1.710838,-21.578094 11.33564,-20.03595l0.000008,0z"/>
  <path fill="#cccccc" stroke="#000000" stroke-width="1.105152px" d="m394.687988,267.940399l3.505859,36.96463l55.857056,-13.059662l-0.252533,-25.052979l-59.110382,1.14801z" id="path3968"/>
  <path fill="#ffffff" stroke="#000000" stroke-width="1.194467px" id="path3860" d="m398.773682,268.091827l4.394379,34.449921l69.696869,-9.817657l0,-25.702179l-74.091248,1.069916z"/>
  <path fill="#cccccc" stroke="#000000" d="m450.355133,281.924713c0,3.550354 -3.094055,6.428558 -6.910767,6.428558c-3.816711,0 -6.910767,-2.878204 -6.910767,-6.428558c0,-3.550415 3.094055,-6.428589 6.910767,-6.428589c3.816711,0 6.910767,2.878174 6.910767,6.428589z" id="path3862"/>
  <path fill="#b3b3b3" stroke="#000000" stroke-width="0.407563" stroke-miterlimit="4" id="path3864" d="m451.692047,281.001221c0,3.550354 -2.942749,6.428558 -6.572784,6.428558c-3.630035,0 -6.572784,-2.878204 -6.572784,-6.428558c0,-3.550415 2.942749,-6.428589 6.572784,-6.428589c3.630035,0 6.572784,2.878174 6.572784,6.428589z"/>
  <g transform="matrix(1.02229 0.003573 0.0360557 0.737801 -11.4079 135.714)" id="g3872">
   <path fill="#ffffff" d="m150.100876,260.715332c-47.379807,38.626862 -4.234009,121.609985 42.151596,119.612305c40.020844,-8.279297 75.292969,-85.872589 47.43338,-102.676514c9.360886,80.220825 -80.313171,109.008789 -98.077255,35.101471c-4.293503,-17.793488 -1.936874,-40.043213 8.492279,-52.037262z" id="rect3015"/>
   <path fill="#ffffff" id="path3868" d="m153.256744,264.184357c0,3.353149 -3.038071,6.071442 -6.785706,6.071442c-3.74765,0 -6.785721,-2.718292 -6.785721,-6.071442c0,-3.353149 3.038071,-6.071442 6.785721,-6.071442c3.747635,0 6.785706,2.718292 6.785706,6.071442z"/>
   <path fill="#ffffff" d="m247.185303,273.112915c0,3.353149 -3.038071,6.071442 -6.785706,6.071442c-3.74765,0 -6.785706,-2.718292 -6.785706,-6.071442c0,-3.353149 3.038055,-6.071442 6.785706,-6.071442c3.747635,0 6.785706,2.718292 6.785706,6.071442z" id="path3870"/>
  </g>
  <path fill="#ffffff" id="path7947" d="m311.508453,583.629822l5.300568,3.509277l5.638824,-3.360779l-1.766846,-327.137665l-10.059113,0.505615"/>
 </g>
</svg>