<svg width="687" height="837" xmlns="http://www.w3.org/2000/svg" xmlns:xlink="http://www.w3.org/1999/xlink">
 <defs>
  <linearGradient y2="0.500001" x2="1" y1="0.500001" x1="0" id="linearGradient9365" xlink:href="#linearGradient35151"/>
  <linearGradient id="linearGradient35151">
   <stop stop-color="#ad612a" id="stop35153" offset="0"/>
   <stop stop-color="#ffa569" id="stop35155" offset="1"/>
  </linearGradient>
  <linearGradient y2="0.5" x2="1" y1="0.5" x1="0" id="linearGradient9395" xlink:href="#linearGradient9397"/>
  <linearGradient id="linearGradient9397">
   <stop stop-color="#882f05" offset="0" id="stop9399"/>
   <stop stop-color="#ff8269" offset="1" id="stop9401"/>
  </linearGradient>
  <linearGradient y2="0.5" x2="1.000001" y1="0.5" x1="0" id="linearGradient9377" xlink:href="#linearGradient35151"/>
  <linearGradient id="linearGradient9603">
   <stop stop-color="#ad612a" id="stop9605" offset="0"/>
   <stop stop-color="#ffa569" id="stop9607" offset="1"/>
  </linearGradient>
  <linearGradient y2="0.500002" x2="1" y1="0.500002" x1="0.000001" id="linearGradient9387" xlink:href="#linearGradient35151"/>
  <linearGradient id="linearGradient9610">
   <stop stop-color="#ad612a" id="stop9612" offset="0"/>
   <stop stop-color="#ffa569" id="stop9614" offset="1"/>
  </linearGradient>
 </defs>
 <metadata id="metadata9635">image/svg+xml</metadata>
 <g>
  <title>Layer 1</title>
  <g id="layer1">
   <g display="inline" id="g9403" transform="matrix(14.3565 0 0 14.3565 -9891.24 -10057.4)">
    <rect fill="#552200" fill-rule="nonzero" stroke="#000000" stroke-width="0.214224" stroke-miterlimit="4" id="rect12644-7-1-2-9-4-7-0-7-4" width="0.742426" height="18.728174" x="567.181285" y="811.044341" transform="matrix(0.985459 -0.169912 0.184897 0.982758 0 0)"/>
    <rect fill="#552200" fill-rule="nonzero" stroke="#000000" stroke-width="0.214224" stroke-miterlimit="4" id="rect12644-7-1-2-9-4-7-0-7" width="0.742426" height="18.728174" x="825.854167" y="555.621754" transform="matrix(0.982047 0.188635 -0.17366 0.984806 0 0)"/>
    <rect fill="#552200" fill-rule="nonzero" stroke="#000000" stroke-width="0.214224" stroke-miterlimit="4" id="rect12644-7-1-2-9-4-7-0" width="0.742426" height="18.728176" x="252.170934" y="962.624965" transform="matrix(0.870572 -0.492041 0.50524 0.862979 0 0)"/>
    <rect fill="#552200" fill-rule="nonzero" stroke="#000000" stroke-width="0.218666" stroke-miterlimit="4" id="rect12644-7-1" width="0.732522" height="19.776829" x="404.958401" y="925.791218" transform="matrix(0.932061 -0.362302 0.366904 0.930259 0 0)"/>
    <rect fill="#552200" fill-rule="nonzero" stroke="#000000" stroke-width="0.214224" stroke-miterlimit="4" id="rect12644-7-1-2-9-4" width="0.742426" height="18.728174" x="719.008561" y="682.206339" transform="matrix(0.999673 0.0255524 -0.0103281 0.999947 0 0)"/>
    <rect fill="#552200" fill-rule="nonzero" stroke="#000000" stroke-width="0.186242" stroke-miterlimit="4" id="rect12644-7-1-2-9" width="0.764498" height="13.746507" x="910.305353" y="424.478247" transform="matrix(0.942145 0.335207 -0.331698 0.943386 0 0)"/>
    <rect fill="#552200" fill-rule="nonzero" stroke="#000000" stroke-width="0.214224" stroke-miterlimit="4" id="rect12644-7-1-2-9-4-7" width="0.742426" height="18.728176" x="971.993328" y="245.89567" transform="matrix(0.865324 0.501212 -0.487979 0.872856 0 0)"/>
    <rect fill="#552200" fill-rule="nonzero" stroke="#000000" stroke-width="0.186242" stroke-miterlimit="4" id="rect12644-7-1-2" width="0.764498" height="13.746507" x="441.789718" y="893.084532" transform="matrix(0.947617 -0.319409 0.322933 0.946422 0 0)"/>
    <rect fill="#552200" fill-rule="nonzero" stroke="#000000" stroke-width="0.243929" stroke-miterlimit="4" id="rect12644-7-1-8" width="0.709059" height="25.424921" x="-907.667494" y="442.639852" transform="matrix(-0.944783 -0.327698 -0.33781 0.941214 0 0)"/>
    <path fill="url(#linearGradient9365)" d="m708.143433,719.21283l-18.567932,34.263733l9.346375,3.191467l13.677612,1.823669l14.247559,-2.621521l9.574341,-4.331238l-19.599915,-32.251465l0.845276,-5.400757l-3.333435,1.381287l-1.990234,1.195129l-1.803467,-1.211304l-3.361877,-2.140442l0.965698,6.10144z" id="path6459"/>
    <path fill="url(#linearGradient9395)" fill-rule="nonzero" d="m691.855103,748.917358l8.320557,2.849487l12.195862,1.595764l12.651855,-2.051636l8.662476,-3.989319l2.963501,3.875305l-9.802307,5.129089l-14.247559,2.507568l-13.56366,-2.279602l-9.574341,-3.191406l2.393616,-4.445251z" id="path6457"/>
    <path fill="url(#linearGradient9377)" fill-rule="nonzero" d="m707.203308,713.216125l2.982971,18.240112l1.858215,-0.635742l-1.418091,-15.550537l-3.423096,-2.053833z" id="path9369"/>
    <path fill="url(#linearGradient9387)" fill-rule="nonzero" d="m714.245056,715.367737l3.569763,-1.51593l-3.520874,17.702209l-1.467041,-0.489014" id="path9379"/>
    <path fill="#000000" stroke-width="0.665" d="m707.065308,713.016235l0.0625,0.25l0.96875,5.96875l-19.125,34.1875l10.25,3.53125l0.031189,0l13.375,1.875l0.0625,0l0.0625,0l14,-2.34375l0.0625,0l0.031189,-0.031189l9.6875,-4.6875l0.3125,-0.15625l-0.1875,-0.3125l-19.78125,-32.4375l0.96875,-4.96875l0.0625,-0.21875l-0.21875,0.093689l-3.09375,1.34375l-0.28125,0.125l-0.0625,0.031189l-1.375,0.59375l-0.031189,0l-1.21875,-0.093689l-0.84375,-0.5l-0.093689,-0.0625l-0.0625,-0.031189l-0.15625,-0.093689l-3.1875,-1.9375l-0.21875,-0.125l0,-0.000122zm0.3125,0.4375l3.0625,1.90625l1.3125,15.46875l-1.46875,0.40625l-2.90625,-17.78125zm10.21875,0.625l-3.40625,17.3125l-1.15625,-0.4375l1.4375,-15.5l0.28125,-0.125l0,-0.031189l2.84375,-1.21875l0,-0.000061zm-0.90625,5.71875l19.21875,31.53125l-9.15625,4.4375l-10.84375,-32.03125l0.78125,-3.9375zm-8.40625,0.5625l0.5625,3.34375l-9.96875,32.4375l-9.09375,-2.90625l18.5,-32.875zm15.9375,3.28125l10.71875,31.65625l-13.8125,2.3125l-0.093689,0l-0.031189,0l0,-0.75c0.061157,0.000183 0.126282,0.000122 0.1875,0c0.178467,-0.000366 0.352722,0.000244 0.53125,0l0.125,0l0.1875,-0.125l-0.125,0c-0.177612,-0.000244 -0.353699,0.000366 -0.53125,0c-0.123352,0 -0.251648,-0.000854 -0.375,0l0,-0.625c0.056702,0.025024 0.124634,0.050903 0.1875,0.0625c0.17041,0.005005 0.330017,-0.01947 0.5,-0.031189c0.119446,-0.005005 0.070557,0.000977 0.1875,0l0.1875,-0.15625c-0.117615,0.002014 -0.067322,-0.005005 -0.1875,0c-0.168518,0.010559 -0.331116,0.061768 -0.5,0.0625c-0.1203,-0.015503 -0.220093,-0.119019 -0.34375,-0.125c-0.010498,0.000061 -0.020813,-0.000061 -0.03125,0l0,-0.75c2.160217,-0.083618 3.875,-2.314148 3.875,-5.03125c0,-2.743652 -1.747925,-4.957642 -3.9375,-5l0,-1.375c0.082825,0.000305 0.167175,0 0.25,0c0.124329,-0.000244 0.250732,0.000122 0.375,0l0.1875,-0.15625c-0.123718,-0.000122 -0.251282,0.000244 -0.375,0c-0.146301,0 -0.291138,-0.000427 -0.4375,0l-0.031189,-0.90625c0.054932,0.000183 0.101379,0.000122 0.15625,0c0.138367,-0.000549 0.267944,0.000061 0.40625,0l0.1875,-0.125c-0.137695,-0.000061 -0.268555,0.000488 -0.40625,0c-0.110779,0 -0.20166,-0.001038 -0.3125,0c-0.010071,0.000061 -0.021057,-0.000061 -0.031189,0l0,-1.15625c0.082825,0.000305 0.167175,0 0.25,0c0.124268,-0.000244 0.250732,0.000122 0.375,0l0.1875,-0.125c-0.123718,-0.000122 -0.251282,0.000244 -0.375,0c-0.146301,0 -0.291199,-0.000427 -0.4375,0l0,-0.875c0.039917,0.000061 0.085083,0.000122 0.125,0c0.138306,-0.000549 0.267883,0.000061 0.40625,0l0.1875,-0.125c-0.137695,-0.000061 -0.268555,0.000488 -0.40625,0c-0.110779,0 -0.20166,-0.001038 -0.3125,0l0,-0.9375c0.100342,0.000305 0.180908,0 0.28125,0c0.124268,-0.000244 0.250732,0.000122 0.375,0l0.21875,-0.125c-0.123718,-0.000122 -0.251282,0.000244 -0.375,0c-0.146301,0 -0.291199,-0.000427 -0.4375,0c-0.020264,0.000061 -0.042175,-0.000061 -0.0625,0l0,-0.96875c0.059875,0.000183 0.127625,0.000183 0.1875,0c0.138306,-0.000549 0.267883,0.000061 0.40625,0l0.1875,-0.125c-0.137695,-0.000061 -0.268555,0.000488 -0.40625,0c-0.110779,0 -0.23291,-0.001038 -0.34375,0c-0.010498,0.000061 -0.020813,-0.000061 -0.031189,0l-0.031189,-1.0625c0.093201,0.000305 0.188049,0 0.28125,0c0.124268,-0.000244 0.250732,0.000122 0.375,0l0.1875,-0.125c-0.123718,-0.000122 -0.251282,0.000244 -0.375,0c-0.146301,0 -0.291199,-0.000427 -0.4375,0c-0.010498,0 -0.020691,-0.000061 -0.031189,0l0,-0.90625c0.054871,0.000183 0.101318,0.000122 0.15625,0c0.138306,-0.000549 0.267883,0.000061 0.40625,0l0.21875,-0.15625c-0.137756,-0.000061 -0.299805,0.000488 -0.4375,0c-0.11084,0 -0.201721,-0.001038 -0.3125,0c-0.010498,0.000061 -0.020813,-0.000061 -0.03125,0l0,-1.125c0.082825,0.000305 0.167175,0 0.25,0c0.124329,-0.000244 0.250732,0.000122 0.375,0l-8.219177,0.406189c-0.123718,-0.000122 -0.251282,0.000244 -0.375,0c-0.146301,0 -0.291199,-0.000427 -0.4375,0l0,-0.84375c0.043884,0.000061 0.081116,0.000122 0.125,0c0.138367,-0.000488 0.267883,0.000061 0.40625,0l0.1875,-0.125c-0.137695,-0.000061 -0.268555,0.000488 -0.40625,0c-0.110779,0 -0.20166,-0.000977 -0.3125,0l0,-0.9375c0.103516,0.000305 0.208984,0.000061 0.3125,0c0.124268,-0.000244 0.219482,0.000122 0.34375,0l0.21875,-0.125c-0.123718,-0.000122 -0.251282,0.000244 -0.375,0c-0.146301,0 -0.291199,-0.000427 -0.4375,0c-0.020325,0.000061 -0.042175,-0.000061 -0.0625,0l0,-0.96875c0.059875,0.000244 0.127625,0.000183 0.1875,0c0.138367,-0.000549 0.267883,0.000061 0.40625,0l0.1875,-0.15625c-0.137695,-0.000061 -0.268555,0.000488 -0.40625,0c-0.110779,0 -0.23291,-0.000977 -0.34375,0c-0.010498,0.000061 -0.020813,-0.000061 -0.031189,0l-0.031189,-0.75l0.9375,0.0625l0.031189,0l0.8125,0.3125l0.125,0.031189l0.031189,-0.125l1.4375,-7.34375l8.40625,-0.562439zm-6.875,0.031189l1.15625,7.15625l0.031189,0.125l0.125,-0.031189l1.125,-0.3125l0.84375,0.0625l0,0.78125c-0.230103,0.000427 -0.457397,0.000977 -0.6875,0l-0.1875,0.15625c0.293335,-0.002014 0.581665,-0.000854 0.875,0l0,0.96875c-0.203125,0.000122 -0.421875,0.000977 -0.625,0l-0.1875,0.125c0.265015,-0.002014 0.547546,-0.000488 0.8125,0l0,0.9375c-0.243225,0.000549 -0.506775,0.000977 -0.75,0l-0.1875,0.125c0.304443,-0.002014 0.633057,-0.000916 0.9375,0l0.031189,0.84375c-0.23114,0.000366 -0.456299,0.002014 -0.6875,0l-0.21875,0.15625c0.295593,-0.002014 0.610718,-0.000671 0.90625,0l0,1.125c-0.240601,0.000488 -0.478149,0.000977 -0.71875,0l-8.624878,0.71875c0.304443,-0.002014 0.633057,-0.000916 0.9375,0l0,0.90625c-0.220642,0.000244 -0.435608,0.000977 -0.65625,0l-0.1875,0.125c0.284668,-0.002014 0.559082,-0.00061 0.84375,0l0,1.0625c-0.230164,0.000427 -0.457397,0.000977 -0.6875,0l-0.1875,0.125c0.293335,-0.002014 0.581665,-0.000854 0.875,0l0,0.96875c-0.203125,0.000122 -0.421875,0.000977 -0.625,0l-0.1875,0.125c0.264954,-0.002014 0.547485,-0.000488 0.8125,0l0.03125,0.9375c-0.253357,0.00061 -0.527893,0.002014 -0.78125,0l-0.1875,0.125c0.324768,-0.002991 0.643982,-0.000977 0.96875,0l0,0.875c-0.23114,0.000366 -0.45636,0.002014 -0.6875,0l-0.21875,0.125c0.295532,-0.002014 0.610718,-0.000671 0.90625,0l0,1.15625c-0.243225,0.000549 -0.506775,0.000977 -0.75,0l-0.1875,0.125c0.304443,-0.002014 0.633057,-0.000916 0.9375,0l0,0.90625c-0.220642,0.000244 -0.435608,0.000977 -0.65625,0l-0.21875,0.15625c0.285339,-0.002014 0.5896,-0.00061 0.875,0l0.031189,1.375c-2.145447,0.103821 -3.875,2.296082 -3.875,5c0,2.717163 1.746094,4.947632 3.90625,5.03125l0.031189,0.75c-0.240601,0.000488 -0.478149,0.000977 -0.71875,0l-0.1875,0.125c0.303833,-0.002014 0.602478,-0.000916 0.90625,0l0,0.6875c-0.21936,0.000427 -0.436829,0.000977 -0.65625,0l-0.1875,0.125c0.282776,-0.002014 0.561035,-0.000916 0.84375,0l0,0.71875l-13.03125,-1.84375l-0.25,-0.093689l9.84375,-31.96875l8.406372,-0.562622z" id="path12610"/>
   </g>
  </g>
 </g>
</svg>