<svg width="87" height="259" xmlns="http://www.w3.org/2000/svg" xmlns:xlink="http://www.w3.org/1999/xlink">
 <defs>
  <linearGradient id="linearGradient3992">
   <stop offset="0" id="stop3994" stop-color="#00d2ff"/>
   <stop id="stop4000" offset="0.431718" stop-color="#6fe6ff"/>
   <stop offset="1" id="stop3996" stop-color="#004352"/>
  </linearGradient>
  <linearGradient id="linearGradient3984">
   <stop id="stop3986" offset="0" stop-color="#cccccc"/>
   <stop offset="0.412962" id="stop3988" stop-color="#ffffff"/>
   <stop id="stop3990" offset="1" stop-color="#cccccc"/>
  </linearGradient>
  <linearGradient id="linearGradient3964">
   <stop offset="0" id="stop3966" stop-color="#999999"/>
   <stop id="stop3972" offset="0.412962" stop-color="#ececec"/>
   <stop offset="1" id="stop3968" stop-color="#cccccc"/>
  </linearGradient>
  <linearGradient id="linearGradient3876">
   <stop id="stop3878" offset="0" stop-color="#fff6d5"/>
   <stop offset="0.573438" id="stop3880" stop-color="#ffcc00"/>
   <stop id="stop3882" offset="1" stop-color="#806600"/>
  </linearGradient>
  <linearGradient id="linearGradient3858">
   <stop offset="0" id="stop3860" stop-color="#d4aa00"/>
   <stop id="stop3866" offset="0.573438" stop-color="#ffcc00"/>
   <stop offset="1" id="stop3862" stop-color="#ffeeaa"/>
  </linearGradient>
  <radialGradient xlink:href="#linearGradient3858" id="radialGradient3864" cx="214.83415" cy="288.15701" fx="214.83415" fy="288.15701" r="88.064468" gradientUnits="userSpaceOnUse" gradientTransform="matrix(0.70608515,0,0,0.70608515,63.142946,58.884226)"/>
  <radialGradient xlink:href="#linearGradient3876" id="radialGradient3874" cx="41.658672" cy="316.28546" fx="41.658672" fy="316.28546" r="55.61763" gradientUnits="userSpaceOnUse" gradientTransform="matrix(1.7085405,0.02313421,-0.02034819,1.5027834,-23.081022,-159.98682)"/>
  <linearGradient xlink:href="#linearGradient3964" id="linearGradient3970" x1="341.59381" y1="324.45053" x2="392.21881" y2="324.45053" gradientUnits="userSpaceOnUse"/>
  <linearGradient xlink:href="#linearGradient3984" id="linearGradient3982" x1="326" y1="323.11218" x2="409.5" y2="276.61218" gradientUnits="userSpaceOnUse"/>
  <linearGradient xlink:href="#linearGradient3992" id="linearGradient3998" x1="306.4375" y1="444.06836" x2="427.03125" y2="444.06836" gradientUnits="userSpaceOnUse"/>
  <linearGradient xlink:href="#linearGradient3992" id="linearGradient4066" gradientUnits="userSpaceOnUse" x1="306.4375" y1="444.06836" x2="427.03125" y2="444.06836"/>
  <linearGradient xlink:href="#linearGradient3992" id="linearGradient4068" gradientUnits="userSpaceOnUse" x1="306.4375" y1="444.06836" x2="427.03125" y2="444.06836"/>
  <linearGradient xlink:href="#linearGradient3964" id="linearGradient4070" gradientUnits="userSpaceOnUse" x1="341.59381" y1="324.45053" x2="392.21881" y2="324.45053"/>
  <linearGradient xlink:href="#linearGradient3984" id="linearGradient4072" gradientUnits="userSpaceOnUse" x1="326" y1="323.11218" x2="409.5" y2="276.61218"/>
  <radialGradient xlink:href="#linearGradient3858" id="radialGradient4078" gradientUnits="userSpaceOnUse" gradientTransform="matrix(0.70608515,0,0,0.70608515,63.142946,58.884226)" cx="214.83415" cy="288.15701" fx="214.83415" fy="288.15701" r="88.064468"/>
  <radialGradient xlink:href="#linearGradient3876" id="radialGradient4080" gradientUnits="userSpaceOnUse" gradientTransform="matrix(1.7085405,0.02313421,-0.02034819,1.5027834,-23.081022,-159.98682)" cx="41.658672" cy="316.28546" fx="41.658672" fy="316.28546" r="55.61763"/>
  <radialGradient xlink:href="#linearGradient3858" id="radialGradient4095" gradientUnits="userSpaceOnUse" gradientTransform="matrix(0.70608515,0,0,0.70608515,63.142946,58.884226)" cx="214.83415" cy="288.15701" fx="214.83415" fy="288.15701" r="88.064468"/>
  <radialGradient xlink:href="#linearGradient3876" id="radialGradient4097" gradientUnits="userSpaceOnUse" gradientTransform="matrix(1.7085405,0.02313421,-0.02034819,1.5027834,-23.081022,-159.98682)" cx="41.658672" cy="316.28546" fx="41.658672" fy="316.28546" r="55.61763"/>
  <linearGradient xlink:href="#linearGradient3992" id="linearGradient4099" x1="-0.012756" y1="0.041576" x2="1.012756" y2="0.041576"/>
  <linearGradient xlink:href="#linearGradient3992" id="linearGradient4101" x1="-0.012756" y1="0.474247" x2="1.012756" y2="0.474247"/>
  <linearGradient xlink:href="#linearGradient3964" id="linearGradient4103" x1="0" y1="0.5" x2="1" y2="0.5"/>
  <linearGradient xlink:href="#linearGradient3984" id="linearGradient4105" x1="-0.308663" y1="1.396761" x2="1.341523" y2="-1.353609"/>
 </defs>
 <metadata id="metadata7">image/svg+xml</metadata>
 <g>
  <title>Layer 1</title>
  <g id="svg_4">
   <g id="svg_3">
    <path stroke="#00857d" id="path4039" d="m41.581001,131.248413c-23.949699,0 -41.581001,11.560974 -41.581001,20.259003l0,79.99498c0,8.698013 19.684502,27.771011 43.635002,27.771011c23.950005,0 43.088997,-19.072998 43.088997,-27.771011l0,-79.99498c0,-8.698029 -21.192001,-20.259003 -45.142998,-20.259003z" stroke-width="3" fill-rule="evenodd" fill="url(#linearGradient4099)" opacity="0.316872"/>
    <path stroke="#00857d" d="m44.711006,25.889404c-23.9505,0 -44.711006,35.602997 -44.711006,44.300995l0,161.311996c0,8.698013 19.684502,27.771011 43.635002,27.771011c23.950005,0 43.088997,-19.072998 43.088997,-27.771011l0,-161.311996c0,-8.697998 -18.063004,-44.300995 -42.012993,-44.300995z" id="path3895" stroke-width="3" fill-rule="evenodd" fill="url(#linearGradient4101)" opacity="0.316872"/>
    <path d="m86.356003,73.815407c0,0.130997 -0.052994,0.349991 -0.253006,0.655991c-0.201996,0.306 -0.519989,0.653 -0.945999,1.031006c-0.85199,0.757004 -2.113998,1.625 -3.664001,2.5c-3.098999,1.75 -7.370987,3.619995 -11.916,5.343994c-9.087997,3.447998 -19.375992,6.281006 -23.943993,6.281006c-4.693001,0 -13.205002,0.341995 -21.895302,-1.406006c-8.689896,-1.748001 -17.533897,-5.602997 -22.954498,-13.843994l-0.553101,0.655991c5.609398,8.528 14.642998,12.392014 23.415497,14.157013c8.773407,1.763992 17.320404,1.436996 21.987404,1.436996c4.788002,0 15.025993,-2.850006 24.152,-6.311996c4.563004,-1.73201 8.837997,-3.630005 11.985001,-5.407013c1.572998,-0.887985 2.858994,-1.744995 3.778992,-2.561996c0.461014,-0.40799 0.837006,-0.810989 1.10701,-1.218994c0.26799,-0.408005 0.436996,-0.820999 0.436996,-1.311996l-0.737,0zm0,10c0,0.130997 -0.052994,0.349991 -0.253006,0.655991c-0.201996,0.306 -0.519989,0.653 -0.945999,1.031006c-0.85199,0.757004 -2.113998,1.625 -3.664001,2.5c-3.098999,1.75 -7.370987,3.619995 -11.916,5.343994c-9.087997,3.447998 -19.375992,6.281006 -23.943993,6.281006c-4.693001,0 -13.205002,0.341995 -21.895302,-1.406006c-8.689896,-1.748001 -17.533897,-5.602997 -22.954498,-13.843994l-0.553101,0.655991c5.609398,8.528 14.642998,12.392014 23.415497,14.157013c8.773407,1.763992 17.320404,1.436996 21.987404,1.436996c4.788002,0 15.025993,-2.850006 24.152,-6.311996c4.563004,-1.73201 8.837997,-3.630005 11.985001,-5.407013c1.572998,-0.887985 2.858994,-1.744995 3.778992,-2.561996c0.461014,-0.40799 0.837006,-0.810989 1.10701,-1.218994c0.26799,-0.408005 0.436996,-0.820999 0.436996,-1.311996l-0.737,0zm0,10c0,0.130997 -0.052994,0.349991 -0.253006,0.655991c-0.201996,0.306 -0.519989,0.653 -0.945999,1.031006c-0.85199,0.757004 -2.113998,1.625 -3.664001,2.5c-3.098999,1.75 -7.370987,3.619995 -11.916,5.343994c-9.087997,3.447998 -19.375992,6.281006 -23.943993,6.281006c-4.693001,0 -13.205002,0.341995 -21.895302,-1.406006c-8.689896,-1.748001 -17.533897,-5.602997 -22.954498,-13.843994l-0.553101,0.655991c5.609398,8.528 14.642998,12.392014 23.415497,14.157013c8.773407,1.763992 17.320404,1.436996 21.987404,1.436996c4.788002,0 15.025993,-2.850006 24.152,-6.311996c4.563004,-1.73201 8.837997,-3.630005 11.985001,-5.407013c1.572998,-0.887985 2.858994,-1.744995 3.778992,-2.561996c0.461014,-0.40799 0.837006,-0.810989 1.10701,-1.218994c0.26799,-0.408005 0.436996,-0.820999 0.436996,-1.311996l-0.737,0zm0,10c0,0.130997 -0.052994,0.349991 -0.253006,0.655991c-0.201996,0.306 -0.519989,0.653 -0.945999,1.031006c-0.85199,0.757004 -2.113998,1.625 -3.664001,2.5c-3.098999,1.75 -7.370987,3.619995 -11.916,5.343994c-9.087997,3.447998 -19.375992,6.281006 -23.943993,6.281006c-4.693001,0 -13.205002,0.341995 -21.895302,-1.406006c-8.689896,-1.748001 -17.533897,-5.602997 -22.954498,-13.843994l-0.553101,0.655991c5.609398,8.528 14.642998,12.392014 23.415497,14.157013c8.773407,1.763992 17.320404,1.436996 21.987404,1.436996c4.788002,0 15.025993,-2.850006 24.152,-6.311996c4.563004,-1.73201 8.837997,-3.630005 11.985001,-5.407013c1.572998,-0.887985 2.858994,-1.744995 3.778992,-2.561996c0.461014,-0.40799 0.837006,-0.810989 1.10701,-1.218994c0.26799,-0.408005 0.436996,-0.820999 0.436996,-1.311996l-0.737,0zm0,10c0,0.130997 -0.052994,0.349991 -0.253006,0.655991c-0.201996,0.306 -0.519989,0.653 -0.945999,1.031006c-0.85199,0.757004 -2.113998,1.625 -3.664001,2.5c-3.098999,1.75 -7.370987,3.619995 -11.916,5.343994c-9.087997,3.447998 -19.375992,6.281013 -23.943993,6.281013c-4.693001,0 -13.205002,0.341995 -21.895302,-1.406006c-8.689896,-1.748009 -17.533897,-5.603004 -22.954498,-13.844002l-0.553101,0.655991c5.609398,8.528 14.642998,12.392014 23.415497,14.157021c8.773407,1.763992 17.320404,1.436996 21.987404,1.436996c4.788002,0 15.025993,-2.850014 24.152,-6.312004c4.563004,-1.73201 8.837997,-3.630005 11.985001,-5.407013c1.572998,-0.887985 2.858994,-1.744995 3.778992,-2.561996c0.461014,-0.40799 0.837006,-0.810989 1.10701,-1.218994c0.26799,-0.408005 0.436996,-0.820999 0.436996,-1.311996l-0.737,0zm0,10c0,0.130997 -0.052994,0.349991 -0.253006,0.655991c-0.201996,0.306 -0.519989,0.653 -0.945999,1.031006c-0.85199,0.757004 -2.113998,1.625 -3.664001,2.500008c-3.098999,1.749985 -7.370987,3.61998 -11.916,5.343994c-9.087997,3.447998 -19.375992,6.281006 -23.943993,6.281006c-4.693001,0 -13.205002,0.341995 -21.895302,-1.406006c-8.689896,-1.748016 -17.533897,-5.602997 -22.954498,-13.844002l-0.553101,0.655991c5.609398,8.528008 14.642998,12.392021 23.415497,14.157021c8.773407,1.763992 17.320404,1.436996 21.987404,1.436996c4.788002,0 15.025993,-2.850006 24.152,-6.312012c4.563004,-1.731995 8.837997,-3.630005 11.985001,-5.407013c1.572998,-0.88797 2.858994,-1.744987 3.778992,-2.561989c0.461014,-0.40799 0.837006,-0.810989 1.10701,-1.218994c0.26799,-0.408005 0.436996,-0.820999 0.436996,-1.311996l-0.737,0zm0,10.000008c0,0.130997 -0.052994,0.349991 -0.253006,0.655975c-0.201996,0.306015 -0.519989,0.653015 -0.945999,1.031006c-0.85199,0.757004 -2.113998,1.625015 -3.664001,2.500015c-3.098999,1.749985 -7.370987,3.61998 -11.916,5.343994c-9.087997,3.447998 -19.375992,6.281006 -23.943993,6.281006c-4.693001,0 -13.205002,0.341995 -21.895302,-1.406006c-8.689896,-1.748016 -17.533897,-5.602997 -22.954498,-13.843994l-0.553101,0.655975c5.609398,8.528015 14.642998,12.392029 23.415497,14.157028c8.773407,1.763992 17.320404,1.436996 21.987404,1.436996c4.788002,0 15.025993,-2.850006 24.152,-6.312012c4.563004,-1.731995 8.837997,-3.630005 11.985001,-5.407013c1.572998,-0.88797 2.858994,-1.74498 3.778992,-2.561981c0.461014,-0.40799 0.837006,-0.811005 1.10701,-1.218994c0.26799,-0.40802 0.436996,-0.821014 0.436996,-1.311996l-0.737,0zm0,10c0,0.130997 -0.052994,0.349991 -0.253006,0.655975c-0.201996,0.306015 -0.519989,0.653015 -0.945999,1.031006c-0.85199,0.757004 -2.113998,1.625015 -3.664001,2.500015c-3.098999,1.749985 -7.370987,3.61998 -11.916,5.343994c-9.087997,3.447998 -19.375992,6.281006 -23.943993,6.281006c-4.693001,0 -13.205002,0.341995 -21.895302,-1.406006c-8.689896,-1.748016 -17.533897,-5.602997 -22.954498,-13.843994l-0.553101,0.655975c5.609398,8.528015 14.642998,12.392029 23.415497,14.157028c8.773407,1.763992 17.320404,1.436996 21.987404,1.436996c4.788002,0 15.025993,-2.850006 24.152,-6.312012c4.563004,-1.731995 8.837997,-3.630005 11.985001,-5.407013c1.572998,-0.88797 2.858994,-1.74498 3.778992,-2.561981c0.461014,-0.40799 0.837006,-0.811005 1.10701,-1.218994c0.26799,-0.40802 0.436996,-0.821014 0.436996,-1.311996l-0.737,0z" id="path3940" stroke-width="1px" fill="#008080"/>
    <path d="m86.356003,73.315407c0,0.130997 -0.052994,0.381989 -0.253006,0.686996c-0.201996,0.306 -0.519989,0.653 -0.945999,1.030991c-0.85199,0.757004 -2.113998,1.594009 -3.664001,2.469009c-3.098999,1.75 -7.370987,3.651001 -11.916,5.375c-9.087997,3.449005 -19.375992,6.25 -23.943993,6.25c-4.693001,0 -13.205002,0.341995 -21.895302,-1.406006c-8.689896,-1.748001 -17.533897,-5.571991 -22.954498,-13.813004l-0.553101,0.657013c5.609398,8.526993 14.642998,12.391998 23.415497,14.155991c8.773407,1.764008 17.320404,1.406006 21.987404,1.406006c4.788002,0 15.025993,-2.818008 24.152,-6.281006c4.563004,-1.731003 8.837997,-3.62999 11.985001,-5.405991c1.572998,-0.889008 2.858994,-1.746002 3.778992,-2.563004c0.461014,-0.408005 0.837006,-0.811005 1.10701,-1.219009c0.26799,-0.40799 0.436996,-0.85199 0.436996,-1.342987l-0.737,0zm0,10c0,0.130997 -0.052994,0.381989 -0.253006,0.686996c-0.201996,0.306 -0.519989,0.653 -0.945999,1.030991c-0.85199,0.757004 -2.113998,1.594009 -3.664001,2.469009c-3.098999,1.75 -7.370987,3.651001 -11.916,5.375c-9.087997,3.449005 -19.375992,6.25 -23.943993,6.25c-4.693001,0 -13.205002,0.341995 -21.895302,-1.406006c-8.689896,-1.748001 -17.533897,-5.571991 -22.954498,-13.813004l-0.553101,0.657013c5.609398,8.526993 14.642998,12.391998 23.415497,14.155991c8.773407,1.764008 17.320404,1.406006 21.987404,1.406006c4.788002,0 15.025993,-2.818008 24.152,-6.281006c4.563004,-1.731003 8.837997,-3.62999 11.985001,-5.405991c1.572998,-0.889008 2.858994,-1.746002 3.778992,-2.563004c0.461014,-0.408005 0.837006,-0.811005 1.10701,-1.219009c0.26799,-0.40799 0.436996,-0.85199 0.436996,-1.342987l-0.737,0zm0,10c0,0.130997 -0.052994,0.381989 -0.253006,0.686996c-0.201996,0.306 -0.519989,0.653 -0.945999,1.030991c-0.85199,0.757004 -2.113998,1.594009 -3.664001,2.469009c-3.098999,1.75 -7.370987,3.651001 -11.916,5.375c-9.087997,3.449005 -19.375992,6.25 -23.943993,6.25c-4.693001,0 -13.205002,0.341995 -21.895302,-1.406006c-8.689896,-1.748001 -17.533897,-5.571991 -22.954498,-13.813004l-0.553101,0.657013c5.609398,8.526993 14.642998,12.391998 23.415497,14.155991c8.773407,1.764008 17.320404,1.406006 21.987404,1.406006c4.788002,0 15.025993,-2.818008 24.152,-6.281006c4.563004,-1.731003 8.837997,-3.62999 11.985001,-5.405991c1.572998,-0.889008 2.858994,-1.746002 3.778992,-2.563004c0.461014,-0.408005 0.837006,-0.811005 1.10701,-1.219009c0.26799,-0.40799 0.436996,-0.85199 0.436996,-1.342987l-0.737,0zm0,10c0,0.130997 -0.052994,0.381989 -0.253006,0.686996c-0.201996,0.306 -0.519989,0.653 -0.945999,1.030991c-0.85199,0.757004 -2.113998,1.594009 -3.664001,2.469009c-3.098999,1.75 -7.370987,3.651001 -11.916,5.375c-9.087997,3.449005 -19.375992,6.25 -23.943993,6.25c-4.693001,0 -13.205002,0.341995 -21.895302,-1.406006c-8.689896,-1.748001 -17.533897,-5.571991 -22.954498,-13.813004l-0.553101,0.657013c5.609398,8.526993 14.642998,12.391998 23.415497,14.155991c8.773407,1.764008 17.320404,1.406006 21.987404,1.406006c4.788002,0 15.025993,-2.818008 24.152,-6.281006c4.563004,-1.731003 8.837997,-3.62999 11.985001,-5.405991c1.572998,-0.889008 2.858994,-1.746002 3.778992,-2.563004c0.461014,-0.408005 0.837006,-0.811005 1.10701,-1.219009c0.26799,-0.40799 0.436996,-0.85199 0.436996,-1.342987l-0.737,0zm0,10c0,0.130997 -0.052994,0.381989 -0.253006,0.686996c-0.201996,0.306 -0.519989,0.653 -0.945999,1.030991c-0.85199,0.757004 -2.113998,1.594009 -3.664001,2.469009c-3.098999,1.75 -7.370987,3.651001 -11.916,5.375c-9.087997,3.449005 -19.375992,6.250008 -23.943993,6.250008c-4.693001,0 -13.205002,0.34198 -21.895302,-1.406013c-8.689896,-1.748001 -17.533897,-5.571991 -22.954498,-13.813004l-0.553101,0.657013c5.609398,8.526993 14.642998,12.391998 23.415497,14.155983c8.773407,1.764023 17.320404,1.406021 21.987404,1.406021c4.788002,0 15.025993,-2.818016 24.152,-6.281013c4.563004,-1.731003 8.837997,-3.62999 11.985001,-5.405991c1.572998,-0.889008 2.858994,-1.746002 3.778992,-2.563004c0.461014,-0.408005 0.837006,-0.811005 1.10701,-1.219009c0.26799,-0.40799 0.436996,-0.85199 0.436996,-1.342987l-0.737,0zm0,10c0,0.130997 -0.052994,0.381989 -0.253006,0.686996c-0.201996,0.306 -0.519989,0.653 -0.945999,1.030991c-0.85199,0.757004 -2.113998,1.594009 -3.664001,2.469009c-3.098999,1.750008 -7.370987,3.651009 -11.916,5.375008c-9.087997,3.449005 -19.375992,6.25 -23.943993,6.25c-4.693001,0 -13.205002,0.34198 -21.895302,-1.406021c-8.689896,-1.747986 -17.533897,-5.571976 -22.954498,-13.812996l-0.553101,0.657013c5.609398,8.527 14.642998,12.392006 23.415497,14.155983c8.773407,1.764023 17.320404,1.406021 21.987404,1.406021c4.788002,0 15.025993,-2.818024 24.152,-6.281006c4.563004,-1.731018 8.837997,-3.62999 11.985001,-5.406006c1.572998,-0.889 2.858994,-1.745995 3.778992,-2.562996c0.461014,-0.408005 0.837006,-0.811005 1.10701,-1.219009c0.26799,-0.40799 0.436996,-0.85199 0.436996,-1.342987l-0.737,0zm0,9.999992c0,0.131012 -0.052994,0.382004 -0.253006,0.687012c-0.201996,0.306 -0.519989,0.653 -0.945999,1.030975c-0.85199,0.757019 -2.113998,1.594025 -3.664001,2.469009c-3.098999,1.750015 -7.370987,3.651016 -11.916,5.375015c-9.087997,3.449005 -19.375992,6.25 -23.943993,6.25c-4.693001,0 -13.205002,0.34198 -21.895302,-1.406021c-8.689896,-1.747986 -17.533897,-5.571976 -22.954498,-13.813004l-0.553101,0.657028c5.609398,8.526993 14.642998,12.391998 23.415497,14.155975c8.773407,1.764023 17.320404,1.406021 21.987404,1.406021c4.788002,0 15.025993,-2.818024 24.152,-6.281006c4.563004,-1.731018 8.837997,-3.62999 11.985001,-5.406006c1.572998,-0.889008 2.858994,-1.745987 3.778992,-2.562988c0.461014,-0.40802 0.837006,-0.811005 1.10701,-1.219025c0.26799,-0.40799 0.436996,-0.85199 0.436996,-1.342987l-0.737,0zm0,10c0,0.131012 -0.052994,0.382004 -0.253006,0.687012c-0.201996,0.306 -0.519989,0.653 -0.945999,1.030975c-0.85199,0.757019 -2.113998,1.594025 -3.664001,2.469009c-3.098999,1.750015 -7.370987,3.651016 -11.916,5.375015c-9.087997,3.449005 -19.375992,6.25 -23.943993,6.25c-4.693001,0 -13.205002,0.34198 -21.895302,-1.406021c-8.689896,-1.747986 -17.533897,-5.571976 -22.954498,-13.813004l-0.553101,0.657028c5.609398,8.526993 14.642998,12.391998 23.415497,14.155975c8.773407,1.764023 17.320404,1.406021 21.987404,1.406021c4.788002,0 15.025993,-2.818024 24.152,-6.281006c4.563004,-1.731018 8.837997,-3.62999 11.985001,-5.406006c1.572998,-0.889008 2.858994,-1.745987 3.778992,-2.562988c0.461014,-0.40802 0.837006,-0.811005 1.10701,-1.219025c0.26799,-0.40799 0.436996,-0.85199 0.436996,-1.342987l-0.737,0z" id="path3946" stroke-width="1px" fill="#57ffff"/>
   </g>
   <g id="svg_2">
    <path stroke="#999999" d="m43.619003,0c-10.230003,0 -18.537697,2.557301 -18.813797,5.7486l-0.023102,21.306004c0.138397,3.230194 8.518898,5.851799 18.836899,5.851799c10.405998,0 18.839005,-2.667099 18.839005,-5.934303l0,-21.058697c0,-3.267101 -8.433006,-5.913403 -18.839005,-5.913403l0,0z" id="path3888" stroke-width="1px" fill-rule="evenodd" fill="url(#linearGradient4103)"/>
    <path stroke="#b3b3b3" id="path3974" d="m43.619003,0c-10.230003,0 -18.537697,2.557301 -18.813797,5.7486c-0.169701,1.804703 4.055099,5.3988 18.813797,5.3988c16.231003,0.034302 18.839005,-2.283298 18.839005,-5.233997c0,-3.267101 -8.433006,-5.913403 -18.839005,-5.913403l0,0z" fill-rule="evenodd" fill="url(#linearGradient4105)"/>
   </g>
  </g>
 </g>
</svg>